<?xml version="1.0" encoding="utf-8"?>
<!-- Generator: Adobe Illustrator 16.0.0, SVG Export Plug-In . SVG Version: 6.00 Build 0)  -->
<!DOCTYPE svg PUBLIC "-//W3C//DTD SVG 1.1//EN" "http://www.w3.org/Graphics/SVG/1.1/DTD/svg11.dtd">
<svg version="1.1" id="Layer_1" xmlns="http://www.w3.org/2000/svg" xmlns:xlink="http://www.w3.org/1999/xlink" x="0px" y="0px"
	 width="720px" height="503.999px" viewBox="0 0 720 503.999" enable-background="new 0 0 720 503.999" xml:space="preserve">
<symbol  id="New_Symbol" viewBox="-0.763 -0.763 1.526 1.525">
	<path fill="#FFFFFF" d="M0.763,0c0-0.421-0.342-0.762-0.763-0.762S-0.763-0.421-0.763,0S-0.421,0.763,0,0.763S0.763,0.42,0.763,0z"
		/>
</symbol>
<linearGradient id="SVGID_1_" gradientUnits="userSpaceOnUse" x1="160.6934" y1="596.7754" x2="558.8063" y2="-92.7764">
	<stop  offset="0" style="stop-color:#9BD6E5"/>
	<stop  offset="0.6375" style="stop-color:#D0EFF9"/>
	<stop  offset="0.7623" style="stop-color:#DDF3FB"/>
	<stop  offset="0.9909" style="stop-color:#FEFFFF"/>
	<stop  offset="0.9975" style="stop-color:#FFFFFF"/>
</linearGradient>
<rect fill="url(#SVGID_1_)" width="719.5" height="503.999"/>
<g>
	<path fill="#EFEEE8" d="M662.871,284.623c-20.621,8.647-37.251,31.929-61.197,31.264c-19.301-0.622-38.019-12.897-58.334-10.649
		c-4.432,6.213-5.199,12.916-5.199,12.916h49.888H720V284.04C700.951,278.044,680.881,277.207,662.871,284.623z"/>
	<path fill="#F8F9ED" d="M629.911,253.272c-22.329,13.229-34.898,54.967-34.898,54.967s-16.034-13.8-34.921-11.066
		c-8.312,1.203-13.511,5.487-16.752,10.032c20.315-2.248,39.033,10.027,58.334,10.649c23.946,0.665,40.576-22.616,61.197-31.265
		c18.01-7.415,38.08-6.578,57.129-0.582v-38.639C706.193,234.927,649.88,241.441,629.911,253.272z"/>
</g>
<g>
	<polygon fill="#D3AE94" points="161.738,409.953 170.826,408.47 189.969,432.08 	"/>
	<path fill="#876460" d="M239.399,449.169l-68.573-40.699l18.89,23.35l-27.034-21.203c0,0-54.458-39.516-56.025-39.995
		c-1.567-0.481,7.443,17.349,7.443,17.349l-95.795-43.131L0,361.725v123.708l239.395-0.831L239.399,449.169z"/>
	<g>
		<path fill="#9C756F" d="M196.444,491.61l303.808-1.058l0.004-35.433l-68.688-40.96l19.143,23.61l-26.959-21.203
			c0,0-54.307-39.516-55.869-39.995c-1.562-0.481,7.422,17.349,7.422,17.349l-95.528-43.131l-46.86,43.878l24.394-11.35
			l-44.54,47.225l50.793-22.169l-63.297,48.191L196.444,491.61z"/>
		<polygon fill="#DEB99E" points="53.716,491.61 279.777,350.79 233.58,394.162 257.667,383.001 213.681,429.577 264.333,407.834 
			200.955,456.565 196.444,491.61 		"/>
		<polygon fill="#DEB99E" points="367.883,376.572 375.305,393.921 339.663,377.831 		"/>
		<polygon fill="#DEB99E" points="422.48,415.644 431.568,414.16 450.711,437.771 		"/>
	</g>
	<polygon fill="#DEB99E" points="106.656,370.621 114.448,388.282 78.806,372.192 	"/>
	<polygon fill="#DEB99E" points="0.062,346.678 0,361.725 18.421,344.839 	"/>
</g>
<path fill="#2B6878" d="M124.678,442.31c-1.159-0.989-2.799-12.056-2.35-10.975c0.45,1.079,3.599,3.508,1.8,0.539
	c-1.8-2.969-2.699-12.505-2.699-12.505s2.789,2.52,1.349,0.45c-1.439-2.069-2.249-12.236-2.249-12.236s2.699,2.069,1.079,0
	c-1.619-2.068-3.329-20.062-3.329-20.062s-1.709,17.993-3.329,20.062c-1.619,2.069,1.079,0,1.079,0s-0.81,10.167-2.249,12.236
	c-1.439,2.069,1.349-0.45,1.349-0.45s-0.899,9.536-2.699,12.505c-1.799,2.969,1.35,0.54,1.8-0.539
	c0.45-1.081-1.19,9.985-2.35,10.975s6.398,0,6.398,0S125.837,443.299,124.678,442.31z"/>
<path fill="#4E5728" d="M-206.165,768.109c-0.067-0.766-0.143-1.239-0.143-1.239L-206.165,768.109z"/>
<g>
	<path fill="#EFEEE8" d="M633.619,104.082c-31,13-56,48-92,47c-29.016-0.936-57.154-19.388-87.695-16.01
		c-6.66,9.34-7.814,19.417-7.814,19.417h74.996H719.5v-51.283C690.865,94.192,660.691,92.934,633.619,104.082z"/>
	<path fill="#F8F9ED" d="M584.068,53.994c-33.568,19.888-52.463,82.633-52.463,82.633s-24.105-20.745-52.496-16.636
		c-12.496,1.809-20.312,8.249-25.186,15.082c30.541-3.378,58.68,15.074,87.695,16.01c36,1,61-34,92-47
		c27.072-11.148,57.246-9.89,85.881-0.876V45.119C698.746,26.415,614.088,36.209,584.068,53.994z"/>
</g>
<g>
	<path fill="#EFEEE8" d="M242.146,85.631c-32,16-83,43-111,6c-6-8-9-18-15-28c-2-4-8-7-11-11
		C80.152,17.454,37.161,22.553,0.767,23.504v19.084c43.812,4.375,121.796,49.403,97.262,40.885
		c-24.534-8.518-60-11.042-57.831-1.703s99.837,28.836,51.697,27.257c-43.866-1.439-60.46,9.369-30.668,20.441
		c29.792,11.074,87.623,22.998,126.177,19.592c38.555-3.408,18.401-12.777,14.896-19.308s14.02-0.284,27.163-0.284
		s27.678-2.494,34.173-7.665c17.586-14.001-13.144-14.48,12.268-14.48c25.41,0,56.078-2.556,58.01-17.035
		c1.931-14.479-28.219-5.11-28.219-5.11s5.598-28.872,41.684-10.352c21.029,10.792,29.941,7.526,31.589,1.104
		c-17.7-3.87-35.605-12.927-51.821-20.298C297.146,41.631,269.146,71.631,242.146,85.631z"/>
	<path fill="#F8F9ED" d="M374.188,62.431c-26.955-27.866-42.969-18.613-104.305-27.866C208.548,25.312,187.259,0,187.259,0H0.622
		v23.504c36.395-0.951,79.385-6.051,104.38,29.127c3,4,9,7,11,11c6,10,9,20,15,28c28,37,79,10,111-6c27-14,55-44,85-30
		c16.216,7.371,34.121,16.428,51.821,20.298C379.892,71.768,377.919,66.287,374.188,62.431z"/>
</g>
<g>
	<path fill="#F8F9ED" d="M204.118,216.2c1.625-0.181,3.239-0.426,4.848-0.701c1.611-1.431,2.02-3.07,1.034-4.925
		c-1.417-2.668-4.324,6.91-43.334,1.623c-14.549-1.971-2.666-13-32.666-10.334c-29.948,2.662-84.667-27.999-84.667-27.999
		s-1.179-10.562-6.629-16.453S0,116.531,0,116.531v57.041C56.762,219.329,134.307,223.083,204.118,216.2z"/>
	<path fill="#EFEEE8" d="M204.118,216.2C134.307,223.083,56.762,219.329,0,173.572v30.292c6.667,6.668,56,14.668,113.333,18
		c47.912,2.786,87.436,0.914,95.633-6.364C207.357,215.774,205.743,216.02,204.118,216.2z"/>
</g>
<g>
	<path fill="#407A87" d="M35.77,423.043c-2.218-1.895-5.358-23.076-4.498-21.008c0.861,2.065,6.889,6.716,3.445,1.032
		c-3.445-5.683-5.167-23.938-5.167-23.938s5.339,4.822,2.583,0.861c-2.755-3.961-4.305-23.422-4.305-23.422s5.166,3.961,2.066,0
		c-3.099-3.959-6.372-38.402-6.372-38.402s-3.272,34.443-6.372,38.402c-3.1,3.961,2.066,0,2.066,0s-1.55,19.461-4.305,23.422
		c-2.755,3.961,2.583-0.861,2.583-0.861s-1.722,18.255-5.167,23.938c-3.444,5.684,2.583,1.033,3.445-1.032
		c0.861-2.068-2.279,19.113-4.498,21.008s12.247,0,12.247,0S37.989,424.938,35.77,423.043z"/>
	<path fill="#2B6878" d="M20.509,423.108c-2.047-1.748-4.943-21.291-4.149-19.383c0.794,1.906,6.355,6.196,3.178,0.952
		c-3.178-5.242-4.767-22.084-4.767-22.084s4.926,4.449,2.383,0.794c-2.542-3.654-3.972-21.609-3.972-21.609s4.766,3.654,1.906,0
		c-2.859-3.653-5.878-35.431-5.878-35.431s-3.02,31.777-5.879,35.431c-2.86,3.654,1.906,0,1.906,0s-1.43,17.955-3.972,21.609
		c-2.542,3.655,2.383-0.794,2.383-0.794s-1.589,16.842-4.767,22.084c-3.177,5.244,2.384,0.954,3.178-0.952
		c0.794-1.908-2.103,17.635-4.149,19.383c-2.047,1.747,11.299,0,11.299,0S22.557,424.855,20.509,423.108z"/>
	<path fill="#407A87" d="M104.602,433.351c-4.744-1.678-9.64-16.179-9.64-16.179s7.615,2.582,5.804,1.313
		c-2.398-1.678-9.415-15.344-9.415-15.344s7.257,3.116,4.252,0c-3.004-3.117-5.007-17.513-5.007-17.513s7.053,2.888,4.176-0.949
		c-1.026-1.368-3.825-7.317-5.035-15.184c-2.181-14.188-2.638-33.247-2.638-33.247s-0.589,19.004-2.797,33.247
		c-1.189,7.666-3.868,13.842-4.875,15.184c-2.877,3.837,4.235,1.44,4.235,1.44s-2.062,13.904-5.066,17.021
		c-3.004,3.116,4.251,0,4.251,0s-7.017,13.666-9.414,15.344c-1.811,1.269,5.804-1.313,5.804-1.313s-4.896,14.501-9.64,16.179
		c-4.744,1.679,17.502,0.479,17.502,0.479S109.346,435.029,104.602,433.351z"/>
	<path fill="#407A87" d="M116.703,438.849c-1.159-0.989-2.799-12.056-2.35-10.975c0.45,1.079,3.599,3.508,1.8,0.539
		c-1.8-2.969-2.699-12.505-2.699-12.505s2.789,2.52,1.349,0.45c-1.439-2.069-2.249-12.236-2.249-12.236s2.699,2.069,1.079,0
		c-1.619-2.068-3.329-20.062-3.329-20.062s-1.709,17.993-3.329,20.062c-1.619,2.069,1.079,0,1.079,0s-0.81,10.167-2.249,12.236
		c-1.439,2.069,1.349-0.45,1.349-0.45s-0.899,9.536-2.699,12.505c-1.799,2.969,1.35,0.54,1.8-0.539
		c0.45-1.081-1.19,9.985-2.35,10.975s6.398,0,6.398,0S117.862,439.838,116.703,438.849z"/>
	<path fill="#2B6878" d="M81.838,434.259c-2.337-1.996-5.646-24.314-4.739-22.137c0.907,2.178,7.258,7.077,3.629,1.089
		s-5.444-25.222-5.444-25.222s5.625,5.081,2.722,0.907c-2.903-4.173-4.536-24.678-4.536-24.678s5.443,4.174,2.178,0
		c-3.266-4.173-6.714-40.463-6.714-40.463s-3.448,36.29-6.714,40.463c-3.266,4.174,2.178,0,2.178,0s-1.633,20.505-4.537,24.678
		c-2.903,4.174,2.722-0.907,2.722-0.907s-1.814,19.233-5.444,25.222c-3.629,5.988,2.722,1.089,3.629-1.089
		c0.907-2.178-2.401,20.141-4.739,22.137c-2.337,1.996,12.904,0,12.904,0S84.176,436.255,81.838,434.259z"/>
	<path fill="#407A87" d="M67.199,431.153c-2.442-2.086-5.899-25.406-4.952-23.131s7.584,7.395,3.792,1.138
		s-5.688-26.354-5.688-26.354s5.877,5.31,2.844,0.948c-3.033-4.36-4.74-25.785-4.74-25.785s5.688,4.361,2.275,0
		c-3.413-4.36-7.015-42.279-7.015-42.279s-3.603,37.919-7.015,42.279c-3.413,4.361,2.275,0,2.275,0s-1.707,21.425-4.74,25.785
		c-3.033,4.361,2.844-0.948,2.844-0.948s-1.896,20.098-5.688,26.354s2.844,1.138,3.792-1.138c0.948-2.275-2.509,21.045-4.952,23.131
		c-2.442,2.085,13.483,0,13.483,0S69.642,433.238,67.199,431.153z"/>
	<path fill="#2B6878" d="M107.731,437.204c-1.494-1.276-3.609-15.543-3.029-14.15c0.58,1.392,4.64,4.523,2.32,0.695
		c-2.32-3.827-3.48-16.122-3.48-16.122s3.596,3.248,1.74,0.58c-1.855-2.668-2.899-15.775-2.899-15.775s3.479,2.668,1.392,0
		c-2.087-2.667-4.292-25.865-4.292-25.865s-2.204,23.198-4.292,25.865c-2.088,2.668,1.392,0,1.392,0s-1.044,13.107-2.899,15.775
		c-1.856,2.668,1.74-0.58,1.74-0.58s-1.16,12.295-3.48,16.122c-2.319,3.828,1.74,0.696,2.32-0.695
		c0.58-1.393-1.535,12.874-3.029,14.15c-1.495,1.275,8.249,0,8.249,0S109.226,438.479,107.731,437.204z"/>
</g>
<path fill="#407A87" d="M251.27,499.624c-1.065-0.909-2.573-11.079-2.16-10.085c0.414,0.991,3.307,3.224,1.653,0.494
	c-1.653-2.728-2.48-11.491-2.48-11.491s2.563,2.314,1.24,0.413c-1.323-1.901-2.067-11.244-2.067-11.244s2.48,1.9,0.992,0
	c-1.488-1.901-3.059-18.438-3.059-18.438s-1.571,16.536-3.059,18.438c-1.488,1.9,0.992,0,0.992,0s-0.744,9.343-2.066,11.244
	c-1.323,1.901,1.24-0.413,1.24-0.413s-0.827,8.764-2.48,11.491c-1.653,2.729,1.24,0.497,1.653-0.494
	c0.414-0.994-1.094,9.176-2.159,10.085c-1.065,0.91,5.88,0,5.88,0S252.335,500.534,251.27,499.624z"/>
<path fill="#2B6878" d="M243.931,501.312c-1.095-0.936-2.645-11.395-2.22-10.373c0.425,1.021,3.401,3.316,1.701,0.511
	c-1.701-2.807-2.551-11.819-2.551-11.819s2.636,2.382,1.275,0.425c-1.36-1.955-2.125-11.563-2.125-11.563s2.551,1.956,1.021,0
	c-1.531-1.955-3.146-18.961-3.146-18.961s-1.616,17.006-3.146,18.961c-1.53,1.956,1.021,0,1.021,0s-0.766,9.608-2.125,11.563
	c-1.361,1.957,1.275-0.425,1.275-0.425s-0.851,9.013-2.551,11.819c-1.7,2.806,1.276,0.511,1.701-0.511
	c0.425-1.021-1.125,9.438-2.221,10.373c-1.095,0.936,6.047,0,6.047,0S245.027,502.247,243.931,501.312z"/>
<path fill="#2B6878" d="M298.36,485.802c-0.65-0.556-1.571-6.771-1.319-6.163c0.253,0.606,2.021,1.97,1.011,0.303
	c-1.011-1.668-1.516-7.023-1.516-7.023s1.566,1.416,0.758,0.253c-0.809-1.162-1.263-6.871-1.263-6.871s1.516,1.162,0.606,0
	c-0.91-1.162-1.87-11.267-1.87-11.267s-0.96,10.104-1.87,11.267c-0.909,1.162,0.606,0,0.606,0s-0.455,5.709-1.263,6.871
	c-0.809,1.163,0.758-0.253,0.758-0.253s-0.505,5.355-1.516,7.023c-1.01,1.667,0.758,0.304,1.011-0.303
	c0.252-0.607-0.669,5.607-1.32,6.163s3.593,0,3.593,0S299.011,486.357,298.36,485.802z"/>
<path fill="#2B6878" d="M304.715,484.516c-0.429-0.365-1.035-4.459-0.869-4.059c0.167,0.399,1.332,1.297,0.666,0.199
	c-0.666-1.099-0.999-4.625-0.999-4.625s1.031,0.933,0.499,0.166c-0.532-0.765-0.832-4.524-0.832-4.524s0.998,0.765,0.399,0
	c-0.599-0.766-1.231-7.42-1.231-7.42s-0.632,6.654-1.231,7.42c-0.599,0.765,0.399,0,0.399,0s-0.299,3.76-0.832,4.524
	c-0.533,0.767,0.499-0.166,0.499-0.166s-0.333,3.526-0.999,4.625c-0.665,1.098,0.5,0.2,0.666-0.199
	c0.166-0.4-0.44,3.693-0.869,4.059c-0.429,0.366,2.366,0,2.366,0S305.144,484.882,304.715,484.516z"/>
<path fill="#2B6878" d="M320.654,480.591c-0.429-0.365-1.035-4.459-0.869-4.059c0.167,0.399,1.332,1.297,0.666,0.199
	c-0.666-1.099-0.999-4.625-0.999-4.625s1.031,0.933,0.499,0.166c-0.532-0.765-0.832-4.524-0.832-4.524s0.998,0.765,0.399,0
	c-0.599-0.766-1.231-7.42-1.231-7.42s-0.632,6.654-1.231,7.42c-0.599,0.765,0.399,0,0.399,0s-0.299,3.76-0.832,4.524
	c-0.533,0.767,0.499-0.166,0.499-0.166s-0.333,3.526-0.999,4.625c-0.665,1.098,0.5,0.2,0.666-0.199
	c0.166-0.4-0.44,3.693-0.869,4.059c-0.429,0.366,2.366,0,2.366,0S321.083,480.957,320.654,480.591z"/>
<path fill="#2B6878" d="M331.562,473.693c-0.309-0.264-0.746-3.216-0.626-2.927c0.12,0.288,0.96,0.935,0.48,0.144
	c-0.48-0.792-0.72-3.335-0.72-3.335s0.744,0.673,0.36,0.119c-0.384-0.551-0.6-3.262-0.6-3.262s0.72,0.551,0.288,0
	c-0.432-0.553-0.888-5.351-0.888-5.351s-0.456,4.798-0.888,5.351c-0.432,0.551,0.288,0,0.288,0s-0.216,2.711-0.6,3.262
	c-0.384,0.554,0.36-0.119,0.36-0.119s-0.24,2.543-0.72,3.335c-0.479,0.791,0.36,0.145,0.48-0.144
	c0.12-0.289-0.317,2.663-0.626,2.927s1.706,0,1.706,0S331.871,473.957,331.562,473.693z"/>
<path fill="#2B6878" d="M203.365,473.693c-0.309-0.264-0.746-3.216-0.626-2.927c0.12,0.288,0.96,0.935,0.48,0.144
	c-0.48-0.792-0.72-3.335-0.72-3.335s0.744,0.673,0.36,0.119c-0.384-0.551-0.6-3.262-0.6-3.262s0.72,0.551,0.288,0
	c-0.432-0.553-0.888-5.351-0.888-5.351s-0.456,4.798-0.888,5.351c-0.432,0.551,0.288,0,0.288,0s-0.216,2.711-0.6,3.262
	c-0.384,0.554,0.36-0.119,0.36-0.119s-0.24,2.543-0.72,3.335c-0.479,0.791,0.36,0.145,0.48-0.144
	c0.12-0.289-0.317,2.663-0.626,2.927s1.706,0,1.706,0S203.675,473.957,203.365,473.693z"/>
<path fill="#2B6878" d="M209.547,476.719c-0.309-0.264-0.746-3.216-0.626-2.927c0.12,0.288,0.96,0.935,0.48,0.144
	c-0.48-0.792-0.72-3.335-0.72-3.335s0.744,0.673,0.36,0.119c-0.384-0.551-0.6-3.262-0.6-3.262s0.72,0.551,0.288,0
	c-0.432-0.553-0.888-5.351-0.888-5.351s-0.456,4.798-0.888,5.351c-0.432,0.551,0.288,0,0.288,0s-0.216,2.711-0.6,3.262
	c-0.384,0.554,0.36-0.119,0.36-0.119s-0.24,2.543-0.72,3.335c-0.479,0.791,0.36,0.145,0.48-0.144
	c0.12-0.289-0.317,2.663-0.626,2.927s1.706,0,1.706,0S209.857,476.982,209.547,476.719z"/>
<path fill="#2B6878" d="M213.107,477.174c-0.383-0.326-0.924-3.981-0.776-3.624c0.149,0.356,1.189,1.158,0.595,0.178
	c-0.595-0.98-0.892-4.129-0.892-4.129s0.921,0.832,0.446,0.148s-0.743-4.04-0.743-4.04s0.891,0.683,0.357,0
	c-0.535-0.684-1.1-6.625-1.1-6.625s-0.564,5.941-1.1,6.625c-0.535,0.683,0.357,0,0.357,0s-0.268,3.356-0.743,4.04
	c-0.476,0.684,0.446-0.148,0.446-0.148s-0.297,3.148-0.892,4.129c-0.594,0.98,0.446,0.179,0.594-0.178
	c0.148-0.357-0.393,3.298-0.776,3.624c-0.383,0.327,2.113,0,2.113,0S213.49,477.501,213.107,477.174z"/>
<path fill="#2B6878" d="M381.421,458.618c-0.43-0.365-1.035-4.459-0.869-4.059c0.166,0.399,1.331,1.297,0.666,0.199
	c-0.666-1.099-0.999-4.625-0.999-4.625s1.031,0.933,0.499,0.166c-0.532-0.765-0.832-4.524-0.832-4.524s0.998,0.765,0.4,0
	c-0.6-0.766-1.232-7.42-1.232-7.42s-0.632,6.654-1.23,7.42c-0.6,0.765,0.398,0,0.398,0s-0.299,3.76-0.831,4.524
	c-0.532,0.767,0.499-0.166,0.499-0.166s-0.332,3.526-0.998,4.625c-0.666,1.098,0.499,0.2,0.666-0.199
	c0.166-0.4-0.441,3.693-0.869,4.059c-0.43,0.366,2.365,0,2.365,0S381.849,458.984,381.421,458.618z"/>
<path fill="#2B6878" d="M228.445,487.699c-0.65-0.556-1.571-6.771-1.319-6.163c0.253,0.606,2.021,1.97,1.011,0.303
	c-1.011-1.668-1.516-7.023-1.516-7.023s1.566,1.416,0.758,0.253c-0.809-1.162-1.263-6.871-1.263-6.871s1.516,1.162,0.606,0
	c-0.91-1.162-1.87-11.267-1.87-11.267s-0.96,10.104-1.87,11.267c-0.909,1.162,0.606,0,0.606,0s-0.455,5.709-1.263,6.871
	c-0.809,1.163,0.758-0.253,0.758-0.253s-0.505,5.355-1.516,7.023c-1.01,1.667,0.758,0.304,1.011-0.303
	c0.252-0.607-0.669,5.607-1.32,6.163s3.593,0,3.593,0S229.096,488.255,228.445,487.699z"/>
<path fill="#407A87" d="M281.084,489.171c-2.458-0.869-4.994-8.381-4.994-8.381s3.945,1.338,3.007,0.681
	c-1.242-0.869-4.877-7.947-4.877-7.947s3.759,1.613,2.203,0c-1.556-1.615-2.594-9.072-2.594-9.072s3.654,1.496,2.163-0.491
	c-0.532-0.709-1.981-3.791-2.608-7.866c-1.13-7.349-1.366-17.222-1.366-17.222s-0.305,9.845-1.449,17.222
	c-0.616,3.972-2.003,7.171-2.525,7.866c-1.49,1.987,2.194,0.745,2.194,0.745s-1.068,7.203-2.625,8.818c-1.557,1.613,2.202,0,2.202,0
	s-3.634,7.078-4.876,7.947c-0.938,0.657,3.006-0.681,3.006-0.681s-2.536,7.512-4.994,8.381c-2.457,0.87,9.066,0.249,9.066,0.249
	S283.541,490.041,281.084,489.171z"/>
<path fill="#407A87" d="M293.191,489.247c-0.918-0.784-2.218-9.552-1.861-8.695c0.356,0.854,2.851,2.779,1.426,0.427
	c-1.426-2.352-2.139-9.907-2.139-9.907s2.209,1.996,1.069,0.356c-1.14-1.64-1.781-9.694-1.781-9.694s2.138,1.64,0.855,0
	c-1.283-1.639-2.637-15.895-2.637-15.895s-1.354,14.256-2.637,15.895c-1.283,1.64,0.855,0,0.855,0s-0.642,8.055-1.782,9.694
	s1.069-0.356,1.069-0.356s-0.713,7.556-2.139,9.907c-1.425,2.353,1.069,0.428,1.426-0.427c0.356-0.856-0.943,7.911-1.861,8.695
	c-0.918,0.783,5.069,0,5.069,0S294.11,490.03,293.191,489.247z"/>
<path fill="#407A87" d="M235.335,494.038c-0.792-0.677-1.912-8.235-1.604-7.497c0.307,0.737,2.458,2.396,1.229,0.368
	c-1.229-2.027-1.844-8.541-1.844-8.541s1.905,1.721,0.921,0.308c-0.983-1.414-1.536-8.358-1.536-8.358s1.843,1.414,0.737,0
	c-1.106-1.413-2.274-13.703-2.274-13.703s-1.167,12.29-2.273,13.703c-1.106,1.414,0.737,0,0.737,0s-0.553,6.944-1.536,8.358
	c-0.983,1.413,0.922-0.308,0.922-0.308s-0.615,6.514-1.844,8.541c-1.229,2.028,0.922,0.369,1.229-0.368
	c0.307-0.738-0.813,6.82-1.605,7.497c-0.792,0.675,4.37,0,4.37,0S236.127,494.713,235.335,494.038z"/>
<path fill="#407A87" d="M301.581,485.833c-0.571-0.488-1.38-5.943-1.158-5.41c0.221,0.532,1.773,1.729,0.887,0.266
	c-0.887-1.463-1.331-6.163-1.331-6.163s1.375,1.242,0.665,0.222c-0.709-1.02-1.108-6.03-1.108-6.03s1.33,1.02,0.532,0
	c-0.798-1.021-1.641-9.888-1.641-9.888s-0.842,8.867-1.641,9.888c-0.798,1.02,0.532,0,0.532,0s-0.399,5.011-1.108,6.03
	c-0.709,1.021,0.666-0.222,0.666-0.222s-0.443,4.7-1.331,6.163c-0.887,1.464,0.665,0.267,0.887-0.266
	c0.222-0.533-0.587,4.922-1.158,5.41c-0.571,0.486,3.153,0,3.153,0S302.152,486.319,301.581,485.833z"/>
<path fill="#407A87" d="M313.248,483.935c-0.571-0.488-1.38-5.943-1.158-5.41c0.221,0.532,1.773,1.729,0.887,0.266
	c-0.887-1.463-1.331-6.163-1.331-6.163s1.375,1.242,0.665,0.222c-0.709-1.02-1.108-6.03-1.108-6.03s1.33,1.02,0.532,0
	c-0.798-1.021-1.641-9.888-1.641-9.888s-0.842,8.867-1.641,9.888c-0.798,1.02,0.532,0,0.532,0s-0.399,5.011-1.108,6.03
	c-0.709,1.021,0.666-0.222,0.666-0.222s-0.443,4.7-1.331,6.163c-0.887,1.464,0.665,0.267,0.887-0.266
	c0.222-0.533-0.587,4.922-1.158,5.41c-0.571,0.486,3.153,0,3.153,0S313.819,484.421,313.248,483.935z"/>
<path fill="#407A87" d="M224.344,488.87c-0.571-0.488-1.38-5.943-1.158-5.41c0.221,0.532,1.773,1.729,0.887,0.266
	c-0.887-1.463-1.331-6.163-1.331-6.163s1.375,1.242,0.665,0.222c-0.709-1.02-1.108-6.03-1.108-6.03s1.33,1.02,0.532,0
	c-0.798-1.021-1.641-9.888-1.641-9.888s-0.842,8.867-1.641,9.888c-0.798,1.02,0.532,0,0.532,0s-0.399,5.011-1.108,6.03
	c-0.709,1.021,0.666-0.222,0.666-0.222s-0.443,4.7-1.331,6.163c-0.887,1.464,0.665,0.267,0.887-0.266
	c0.222-0.533-0.587,4.922-1.158,5.41c-0.571,0.486,3.153,0,3.153,0S224.916,489.356,224.344,488.87z"/>
<path fill="#407A87" d="M422.736,436.588c-0.185-0.158-0.447-1.931-0.376-1.758c0.072,0.173,0.576,0.562,0.288,0.087
	s-0.433-2.003-0.433-2.003s0.447,0.403,0.217,0.072s-0.36-1.96-0.36-1.96s0.433,0.332,0.173,0c-0.259-0.331-0.533-3.213-0.533-3.213
	s-0.273,2.882-0.532,3.213c-0.26,0.332,0.172,0,0.172,0s-0.129,1.629-0.36,1.96c-0.229,0.331,0.217-0.072,0.217-0.072
	s-0.145,1.527-0.433,2.003s0.216,0.086,0.288-0.087s-0.19,1.6-0.376,1.758s1.024,0,1.024,0S422.923,436.746,422.736,436.588z"/>
<path fill="#2B6878" d="M392.87,450.231c-0.393-0.334-0.948-4.084-0.797-3.717c0.154,0.365,1.22,1.188,0.61,0.181
	c-0.61-1.005-0.914-4.237-0.914-4.237s0.944,0.855,0.458,0.153c-0.488-0.702-0.762-4.145-0.762-4.145s0.913,0.699,0.363,0
	c-0.548-0.703-1.126-6.799-1.126-6.799s-0.58,6.096-1.13,6.799c-0.547,0.699,0.367,0,0.367,0s-0.273,3.442-0.763,4.145
	c-0.488,0.702,0.457-0.153,0.457-0.153s-0.305,3.232-0.915,4.237c-0.608,1.007,0.458,0.185,0.61-0.181
	c0.152-0.367-0.401,3.383-0.796,3.717c-0.393,0.337,2.169,0,2.169,0S393.264,450.568,392.87,450.231z"/>
<path fill="#407A87" d="M385.842,453.811c-0.393-0.335-0.948-4.086-0.797-3.719c0.154,0.365,1.221,1.188,0.609,0.182
	c-0.609-1.006-0.913-4.236-0.913-4.236s0.945,0.854,0.458,0.152c-0.489-0.701-0.762-4.146-0.762-4.146s0.914,0.7,0.363,0
	c-0.548-0.702-1.126-6.798-1.126-6.798s-0.579,6.096-1.129,6.798c-0.547,0.7,0.366,0,0.366,0s-0.274,3.444-0.763,4.146
	c-0.487,0.702,0.458-0.152,0.458-0.152s-0.305,3.23-0.915,4.236c-0.608,1.007,0.457,0.184,0.61-0.182
	c0.151-0.367-0.402,3.384-0.796,3.719c-0.393,0.335,2.168,0,2.168,0S386.236,454.146,385.842,453.811z"/>
<path fill="#407A87" d="M326.753,473.461c-0.393-0.335-0.948-4.086-0.797-3.719c0.154,0.365,1.221,1.188,0.609,0.182
	c-0.609-1.006-0.913-4.236-0.913-4.236s0.945,0.854,0.458,0.152c-0.489-0.701-0.762-4.146-0.762-4.146s0.914,0.7,0.363,0
	c-0.548-0.702-1.126-6.798-1.126-6.798s-0.579,6.096-1.129,6.798c-0.547,0.7,0.366,0,0.366,0s-0.274,3.444-0.763,4.146
	c-0.487,0.702,0.458-0.152,0.458-0.152s-0.305,3.23-0.915,4.236c-0.608,1.007,0.457,0.184,0.61-0.182
	c0.151-0.367-0.402,3.384-0.796,3.719c-0.393,0.335,2.168,0,2.168,0S327.147,473.796,326.753,473.461z"/>
<path fill="#407A87" d="M207.695,474.965c-0.289-0.245-0.697-3.002-0.585-2.731c0.113,0.269,0.897,0.873,0.448,0.133
	c-0.448-0.738-0.671-3.112-0.671-3.112s0.695,0.628,0.336,0.112c-0.359-0.515-0.56-3.046-0.56-3.046s0.672,0.515,0.267,0
	c-0.402-0.516-0.827-4.994-0.827-4.994s-0.426,4.479-0.83,4.994c-0.402,0.515,0.27,0,0.27,0s-0.202,2.531-0.561,3.046
	c-0.358,0.516,0.336-0.112,0.336-0.112s-0.224,2.374-0.672,3.112c-0.447,0.74,0.336,0.136,0.448-0.133
	c0.111-0.271-0.295,2.486-0.584,2.731c-0.289,0.246,1.593,0,1.593,0S207.985,475.211,207.695,474.965z"/>
<path fill="#407A87" d="M215.362,480.085c-0.289-0.245-0.697-3.002-0.585-2.731c0.113,0.269,0.897,0.873,0.448,0.133
	c-0.448-0.738-0.671-3.112-0.671-3.112s0.695,0.628,0.336,0.112c-0.359-0.515-0.56-3.046-0.56-3.046s0.672,0.515,0.267,0
	c-0.402-0.516-0.827-4.994-0.827-4.994s-0.426,4.479-0.83,4.994c-0.402,0.515,0.27,0,0.27,0s-0.202,2.531-0.561,3.046
	c-0.358,0.516,0.336-0.112,0.336-0.112s-0.224,2.374-0.672,3.112c-0.447,0.74,0.336,0.136,0.448-0.133
	c0.111-0.271-0.295,2.486-0.584,2.731c-0.289,0.246,1.593,0,1.593,0S215.652,480.331,215.362,480.085z"/>
<path fill="#407A87" d="M220.055,479.203c-0.289-0.245-0.697-3.002-0.585-2.731c0.113,0.269,0.897,0.873,0.448,0.133
	c-0.448-0.738-0.671-3.112-0.671-3.112s0.695,0.628,0.336,0.112c-0.359-0.515-0.56-3.046-0.56-3.046s0.672,0.515,0.267,0
	c-0.402-0.516-0.827-4.994-0.827-4.994s-0.426,4.479-0.83,4.994c-0.402,0.515,0.27,0,0.27,0s-0.202,2.531-0.561,3.046
	c-0.358,0.516,0.336-0.112,0.336-0.112s-0.224,2.374-0.672,3.112c-0.447,0.74,0.336,0.136,0.448-0.133
	c0.111-0.271-0.295,2.486-0.584,2.731c-0.289,0.246,1.593,0,1.593,0S220.345,479.449,220.055,479.203z"/>
<path fill="#407A87" d="M198.501,472.329c-0.289-0.245-0.697-3.002-0.585-2.731c0.113,0.269,0.897,0.873,0.448,0.133
	c-0.448-0.738-0.671-3.112-0.671-3.112s0.695,0.628,0.336,0.112c-0.359-0.515-0.56-3.046-0.56-3.046s0.672,0.515,0.267,0
	c-0.402-0.516-0.827-4.994-0.827-4.994s-0.426,4.479-0.83,4.994c-0.402,0.515,0.27,0,0.27,0s-0.202,2.531-0.561,3.046
	c-0.358,0.516,0.336-0.112,0.336-0.112s-0.224,2.374-0.672,3.112c-0.447,0.74,0.336,0.136,0.448-0.133
	c0.111-0.271-0.295,2.486-0.584,2.731c-0.289,0.246,1.593,0,1.593,0S198.791,472.575,198.501,472.329z"/>
<g>
	<path fill="#2B6878" d="M434.108,438.786c-0.523-0.446-1.265-5.448-1.062-4.959c0.203,0.488,1.628,1.584,0.814,0.244
		c-0.814-1.342-1.221-5.651-1.221-5.651s1.261,1.14,0.609,0.203c-0.65-0.936-1.016-5.527-1.016-5.527s1.22,0.934,0.489,0
		c-0.733-0.936-1.506-9.065-1.506-9.065s-0.771,8.13-1.504,9.065c-0.731,0.934,0.488,0,0.488,0s-0.367,4.592-1.017,5.527
		c-0.649,0.937,0.61-0.203,0.61-0.203s-0.407,4.31-1.222,5.651c-0.812,1.34,0.611,0.244,0.814-0.244
		c0.204-0.489-0.537,4.513-1.062,4.959c-0.523,0.447,2.892,0,2.892,0S434.632,439.233,434.108,438.786z"/>
	<path fill="#2B6878" d="M449.106,432.328c-0.446-0.381-1.078-4.649-0.906-4.232c0.176,0.415,1.39,1.352,0.697,0.209
		c-0.697-1.146-1.041-4.825-1.041-4.825s1.074,0.976,0.52,0.175c-0.556-0.797-0.871-4.715-0.871-4.715s1.043,0.797,0.418,0
		c-0.625-0.799-1.282-7.738-1.282-7.738s-0.659,6.939-1.285,7.738c-0.623,0.797,0.42,0,0.42,0s-0.316,3.918-0.868,4.715
		c-0.558,0.801,0.521-0.175,0.521-0.175s-0.349,3.679-1.043,4.825c-0.693,1.143,0.522,0.206,0.694-0.209
		c0.174-0.417-0.459,3.852-0.906,4.232c-0.449,0.382,2.468,0,2.468,0S449.555,432.71,449.106,432.328z"/>
	<path fill="#2B6878" d="M428.225,438.087c-0.445-0.381-1.077-4.649-0.905-4.232c0.175,0.415,1.391,1.353,0.695,0.209
		c-0.695-1.146-1.039-4.825-1.039-4.825s1.073,0.976,0.519,0.175c-0.555-0.797-0.869-4.716-0.869-4.716s1.043,0.797,0.416,0
		c-0.625-0.798-1.282-7.736-1.282-7.736s-0.658,6.938-1.284,7.736c-0.624,0.797,0.419,0,0.419,0s-0.316,3.919-0.868,4.716
		c-0.558,0.801,0.521-0.175,0.521-0.175s-0.348,3.68-1.043,4.825c-0.692,1.144,0.522,0.206,0.695-0.209
		c0.173-0.417-0.459,3.852-0.907,4.232c-0.449,0.382,2.468,0,2.468,0S428.674,438.469,428.225,438.087z"/>
	<path fill="#2B6878" d="M455.835,433.935c-0.418-0.358-1.015-4.38-0.853-3.987c0.165,0.391,1.31,1.273,0.655,0.196
		c-0.655-1.079-0.98-4.545-0.98-4.545s1.014,0.918,0.49,0.164c-0.522-0.75-0.819-4.442-0.819-4.442s0.983,0.75,0.393,0
		c-0.588-0.753-1.209-7.29-1.209-7.29s-0.619,6.537-1.208,7.29c-0.589,0.75,0.394,0,0.394,0s-0.297,3.692-0.817,4.442
		c-0.525,0.754,0.488-0.164,0.488-0.164s-0.326,3.466-0.98,4.545c-0.651,1.077,0.492,0.194,0.654-0.196
		c0.162-0.393-0.433,3.629-0.854,3.987c-0.423,0.36,2.324,0,2.324,0S456.258,434.295,455.835,433.935z"/>
	<path fill="#2B6878" d="M442.47,433.91c-0.706-0.604-1.709-7.364-1.436-6.703c0.277,0.66,2.199,2.144,1.102,0.331
		c-1.102-1.816-1.648-7.64-1.648-7.64s1.702,1.54,0.824,0.275c-0.88-1.266-1.375-7.475-1.375-7.475s1.647,1.264,0.659,0
		c-0.988-1.263-2.032-12.254-2.032-12.254s-1.044,10.991-2.034,12.254c-0.989,1.264,0.66,0,0.66,0s-0.497,6.209-1.373,7.475
		c-0.882,1.265,0.824-0.275,0.824-0.275s-0.551,5.823-1.649,7.64c-1.1,1.812,0.825,0.329,1.099-0.331
		c0.274-0.661-0.727,6.099-1.437,6.703c-0.705,0.605,3.91,0,3.91,0S443.179,434.516,442.47,433.91z"/>
	<path fill="#407A87" d="M444.949,430.516c-0.37-0.315-0.892-3.845-0.748-3.5c0.143,0.343,1.146,1.119,0.572,0.172
		c-0.572-0.947-0.861-3.987-0.861-3.987s0.892,0.802,0.432,0.144c-0.459-0.66-0.718-3.903-0.718-3.903s0.861,0.661,0.345,0
		c-0.517-0.658-1.062-6.396-1.062-6.396s-0.544,5.738-1.06,6.396c-0.516,0.661,0.342,0,0.342,0s-0.256,3.243-0.717,3.903
		c-0.457,0.658,0.432-0.144,0.432-0.144s-0.287,3.04-0.861,3.987c-0.573,0.947,0.43,0.171,0.574-0.172
		c0.145-0.345-0.38,3.185-0.749,3.5c-0.369,0.313,2.039,0,2.039,0S445.318,430.829,444.949,430.516z"/>
	<path fill="#407A87" d="M457.403,427.595c-0.242-0.211-0.591-2.55-0.497-2.321c0.097,0.227,0.761,0.742,0.381,0.114
		c-0.381-0.627-0.571-2.645-0.571-2.645s0.593,0.532,0.287,0.098c-0.303-0.437-0.473-2.585-0.473-2.585s0.567,0.437,0.225,0
		c-0.341-0.438-0.704-4.242-0.704-4.242s-0.359,3.804-0.702,4.242c-0.34,0.437,0.229,0,0.229,0s-0.17,2.148-0.477,2.585
		c-0.303,0.435,0.288-0.098,0.288-0.098s-0.192,2.018-0.573,2.645c-0.378,0.628,0.285,0.112,0.381-0.114
		c0.095-0.229-0.251,2.11-0.497,2.321c-0.242,0.206,1.352,0,1.352,0S457.647,427.801,457.403,427.595z"/>
	<path fill="#407A87" d="M424.457,438.067c-0.286-0.246-0.697-3.012-0.588-2.742c0.113,0.268,0.9,0.876,0.451,0.135
		c-0.451-0.741-0.676-3.127-0.676-3.127s0.7,0.63,0.338,0.114c-0.358-0.517-0.56-3.058-0.56-3.058s0.674,0.516,0.269,0
		c-0.405-0.519-0.835-5.016-0.835-5.016s-0.424,4.497-0.828,5.016c-0.404,0.516,0.27,0,0.27,0s-0.202,2.541-0.562,3.058
		c-0.359,0.516,0.338-0.114,0.338-0.114s-0.228,2.386-0.677,3.127c-0.446,0.741,0.339,0.133,0.449-0.135
		c0.113-0.27-0.295,2.496-0.585,2.742c-0.289,0.246,1.596,0,1.596,0S424.748,438.313,424.457,438.067z"/>
	<path fill="#407A87" d="M453.052,432.656c-0.523-0.448-1.267-5.46-1.064-4.971c0.203,0.487,1.629,1.591,0.813,0.245
		c-0.813-1.345-1.224-5.666-1.224-5.666s1.267,1.14,0.613,0.204c-0.651-0.936-1.017-5.541-1.017-5.541s1.222,0.935,0.488,0
		c-0.733-0.937-1.509-9.088-1.509-9.088s-0.773,8.151-1.508,9.088c-0.734,0.935,0.487,0,0.487,0s-0.364,4.605-1.02,5.541
		c-0.647,0.936,0.616-0.204,0.616-0.204s-0.41,4.321-1.226,5.666c-0.813,1.346,0.609,0.242,0.815-0.245
		c0.205-0.489-0.54,4.522-1.064,4.971c-0.522,0.444,2.898,0,2.898,0S453.578,433.101,453.052,432.656z"/>
	<path fill="#407A87" d="M437.884,434.373c-0.6-0.512-1.445-6.224-1.213-5.667c0.231,0.559,1.857,1.812,0.929,0.279
		c-0.929-1.532-1.394-6.454-1.394-6.454s1.44,1.301,0.696,0.232c-0.743-1.068-1.159-6.316-1.159-6.316s1.392,1.068,0.557,0
		c-0.836-1.067-1.718-10.354-1.718-10.354s-0.884,9.286-1.719,10.354c-0.836,1.068,0.558,0,0.558,0s-0.418,5.248-1.162,6.316
		c-0.742,1.068,0.697-0.232,0.697-0.232s-0.465,4.922-1.393,6.454c-0.929,1.533,0.695,0.279,0.928-0.279
		c0.232-0.557-0.613,5.155-1.213,5.667c-0.598,0.509,3.304,0,3.304,0S438.481,434.882,437.884,434.373z"/>
</g>
<g>
	<path fill="#2B6878" d="M406.615,446.487c-0.522-0.447-1.264-5.448-1.062-4.959c0.202,0.488,1.627,1.583,0.814,0.244
		c-0.814-1.342-1.221-5.652-1.221-5.652s1.261,1.141,0.608,0.203c-0.65-0.935-1.016-5.527-1.016-5.527s1.221,0.935,0.49,0
		c-0.733-0.935-1.506-9.064-1.506-9.064s-0.771,8.13-1.504,9.064c-0.73,0.935,0.488,0,0.488,0s-0.367,4.593-1.016,5.527
		c-0.651,0.938,0.608-0.203,0.608-0.203s-0.407,4.311-1.221,5.652c-0.812,1.339,0.612,0.244,0.813-0.244
		c0.204-0.489-0.537,4.512-1.062,4.959c-0.524,0.446,2.892,0,2.892,0S407.14,446.934,406.615,446.487z"/>
	<path fill="#2B6878" d="M421.613,440.028c-0.445-0.38-1.077-4.648-0.904-4.231c0.174,0.415,1.389,1.351,0.695,0.208
		c-0.695-1.146-1.04-4.824-1.04-4.824s1.073,0.975,0.519,0.175c-0.555-0.797-0.87-4.716-0.87-4.716s1.044,0.797,0.417,0
		c-0.624-0.798-1.282-7.737-1.282-7.737s-0.658,6.939-1.284,7.737c-0.623,0.797,0.42,0,0.42,0s-0.316,3.919-0.869,4.716
		c-0.558,0.8,0.521-0.175,0.521-0.175s-0.348,3.679-1.043,4.824c-0.692,1.143,0.522,0.207,0.695-0.208
		c0.173-0.417-0.459,3.852-0.907,4.231c-0.449,0.383,2.468,0,2.468,0S422.062,440.411,421.613,440.028z"/>
	<path fill="#2B6878" d="M400.732,445.787c-0.446-0.38-1.077-4.648-0.905-4.231c0.175,0.415,1.39,1.352,0.695,0.208
		c-0.695-1.145-1.04-4.824-1.04-4.824s1.074,0.974,0.52,0.175c-0.556-0.797-0.87-4.716-0.87-4.716s1.043,0.797,0.417,0
		c-0.625-0.798-1.282-7.736-1.282-7.736s-0.659,6.938-1.284,7.736c-0.624,0.797,0.419,0,0.419,0s-0.316,3.919-0.868,4.716
		c-0.557,0.799,0.521-0.175,0.521-0.175s-0.349,3.68-1.043,4.824c-0.693,1.144,0.522,0.207,0.694-0.208
		c0.174-0.417-0.459,3.852-0.906,4.231c-0.449,0.383,2.468,0,2.468,0S401.181,446.17,400.732,445.787z"/>
	<path fill="#2B6878" d="M428.343,441.634c-0.418-0.356-1.015-4.378-0.853-3.985c0.164,0.391,1.311,1.272,0.655,0.195
		c-0.655-1.078-0.98-4.545-0.98-4.545s1.013,0.919,0.489,0.165c-0.522-0.75-0.818-4.442-0.818-4.442s0.983,0.75,0.393,0
		c-0.589-0.753-1.21-7.29-1.21-7.29s-0.619,6.537-1.207,7.29c-0.59,0.75,0.394,0,0.394,0s-0.297,3.692-0.817,4.442
		c-0.526,0.754,0.489-0.165,0.489-0.165s-0.327,3.467-0.981,4.545c-0.652,1.077,0.492,0.195,0.654-0.195
		c0.162-0.393-0.434,3.629-0.855,3.985c-0.423,0.361,2.324,0,2.324,0S428.766,441.995,428.343,441.634z"/>
	<path fill="#2B6878" d="M414.979,441.611c-0.708-0.604-1.711-7.364-1.437-6.703c0.276,0.66,2.199,2.144,1.101,0.33
		c-1.101-1.815-1.648-7.639-1.648-7.639s1.703,1.54,0.824,0.275c-0.88-1.266-1.375-7.475-1.375-7.475s1.648,1.263,0.66,0
		c-0.989-1.264-2.033-12.255-2.033-12.255s-1.044,10.991-2.033,12.255c-0.99,1.263,0.659,0,0.659,0s-0.496,6.209-1.372,7.475
		c-0.882,1.265,0.823-0.275,0.823-0.275s-0.551,5.823-1.648,7.639c-1.1,1.813,0.825,0.33,1.098-0.33
		c0.274-0.661-0.727,6.099-1.435,6.703c-0.706,0.605,3.908,0,3.908,0S415.686,442.217,414.979,441.611z"/>
	<path fill="#407A87" d="M417.456,438.216c-0.369-0.315-0.891-3.845-0.748-3.5c0.143,0.343,1.146,1.12,0.572,0.173
		c-0.572-0.947-0.861-3.987-0.861-3.987s0.893,0.802,0.432,0.144c-0.459-0.66-0.717-3.903-0.717-3.903s0.861,0.661,0.345,0
		c-0.518-0.659-1.062-6.396-1.062-6.396s-0.544,5.737-1.061,6.396c-0.516,0.661,0.343,0,0.343,0s-0.255,3.243-0.718,3.903
		c-0.457,0.658,0.434-0.144,0.434-0.144s-0.288,3.04-0.863,3.987c-0.572,0.947,0.43,0.17,0.575-0.173
		c0.144-0.345-0.38,3.185-0.75,3.5c-0.369,0.314,2.04,0,2.04,0S417.826,438.53,417.456,438.216z"/>
	<path fill="#407A87" d="M429.91,435.295c-0.241-0.21-0.589-2.549-0.496-2.32c0.096,0.227,0.762,0.741,0.381,0.114
		c-0.381-0.628-0.571-2.645-0.571-2.645s0.593,0.532,0.286,0.098c-0.302-0.437-0.472-2.586-0.472-2.586s0.567,0.437,0.224,0
		c-0.34-0.438-0.704-4.241-0.704-4.241s-0.359,3.804-0.701,4.241c-0.34,0.437,0.228,0,0.228,0s-0.17,2.149-0.476,2.586
		c-0.303,0.435,0.288-0.098,0.288-0.098s-0.193,2.017-0.574,2.645c-0.377,0.627,0.286,0.112,0.381-0.114
		c0.096-0.229-0.249,2.11-0.495,2.32c-0.244,0.207,1.35,0,1.35,0S430.155,435.502,429.91,435.295z"/>
	<path fill="#407A87" d="M396.965,445.769c-0.287-0.246-0.697-3.012-0.588-2.743c0.113,0.269,0.9,0.877,0.451,0.136
		c-0.451-0.741-0.676-3.127-0.676-3.127s0.7,0.629,0.338,0.112c-0.358-0.515-0.561-3.057-0.561-3.057s0.675,0.517,0.269,0
		c-0.404-0.518-0.834-5.015-0.834-5.015s-0.424,4.497-0.829,5.015c-0.403,0.517,0.271,0,0.271,0s-0.202,2.542-0.562,3.057
		c-0.359,0.517,0.338-0.112,0.338-0.112s-0.227,2.386-0.677,3.127c-0.447,0.741,0.339,0.133,0.45-0.136
		c0.112-0.269-0.296,2.497-0.587,2.743c-0.289,0.246,1.597,0,1.597,0S397.255,446.015,396.965,445.769z"/>
	<path fill="#407A87" d="M425.56,440.357c-0.522-0.448-1.268-5.461-1.064-4.971c0.203,0.486,1.629,1.59,0.812,0.244
		c-0.812-1.344-1.223-5.665-1.223-5.665s1.267,1.139,0.613,0.204c-0.652-0.936-1.018-5.542-1.018-5.542s1.223,0.936,0.489,0
		s-1.509-9.088-1.509-9.088s-0.773,8.152-1.508,9.088c-0.733,0.936,0.487,0,0.487,0s-0.365,4.606-1.021,5.542
		c-0.647,0.935,0.617-0.204,0.617-0.204s-0.411,4.321-1.226,5.665c-0.814,1.346,0.608,0.242,0.814-0.244
		c0.206-0.49-0.539,4.522-1.064,4.971c-0.522,0.444,2.899,0,2.899,0S426.086,440.802,425.56,440.357z"/>
	<path fill="#407A87" d="M410.392,442.074c-0.6-0.513-1.445-6.224-1.213-5.667c0.231,0.559,1.856,1.812,0.929,0.278
		c-0.929-1.531-1.394-6.454-1.394-6.454s1.439,1.301,0.696,0.233c-0.744-1.068-1.16-6.317-1.16-6.317s1.393,1.069,0.557,0
		c-0.834-1.067-1.716-10.354-1.716-10.354s-0.886,9.286-1.72,10.354c-0.836,1.069,0.558,0,0.558,0s-0.418,5.249-1.162,6.317
		c-0.742,1.067,0.697-0.233,0.697-0.233s-0.465,4.923-1.394,6.454c-0.929,1.533,0.696,0.28,0.929-0.278
		c0.232-0.557-0.613,5.154-1.213,5.667c-0.598,0.509,3.305,0,3.305,0S410.989,442.583,410.392,442.074z"/>
</g>
<g>
	<path fill="#2B6878" d="M670.019,455.88c0.446-0.381,1.079-4.647,0.907-4.23c-0.175,0.416-1.389,1.352-0.694,0.207
		s1.04-4.82,1.04-4.82s-1.075,0.973-0.521,0.174c0.555-0.798,0.866-4.715,0.866-4.715s-1.04,0.796-0.415,0
		c0.624-0.799,1.282-7.733,1.282-7.733s0.659,6.935,1.284,7.733c0.623,0.796-0.417,0-0.417,0s0.312,3.917,0.867,4.715
		c0.556,0.799-0.52-0.174-0.52-0.174s0.347,3.676,1.041,4.82c0.692,1.145-0.521,0.209-0.694-0.207
		c-0.174-0.417,0.457,3.85,0.905,4.23c0.446,0.382-2.467,0-2.467,0S669.571,456.262,670.019,455.88z"/>
	<path fill="#407A87" d="M678.014,459.95c0.446-0.381,1.079-4.647,0.907-4.23c-0.175,0.416-1.389,1.352-0.694,0.207
		s1.039-4.82,1.039-4.82s-1.074,0.973-0.52,0.174c0.555-0.798,0.865-4.715,0.865-4.715s-1.039,0.796-0.414,0
		c0.624-0.799,1.282-7.733,1.282-7.733s0.659,6.935,1.284,7.733c0.623,0.796-0.417,0-0.417,0s0.312,3.917,0.867,4.715
		c0.556,0.799-0.521-0.174-0.521-0.174s0.348,3.676,1.041,4.82s-0.521,0.209-0.693-0.207c-0.174-0.417,0.457,3.85,0.905,4.23
		c0.446,0.382-2.467,0-2.467,0S677.566,460.332,678.014,459.95z"/>
	<g>
		<path fill="#2B6878" d="M625.227,440.13c0.595-0.508,1.437-6.197,1.207-5.64c-0.23,0.554-1.851,1.801-0.926,0.276
			c0.926-1.526,1.388-6.429,1.388-6.429s-1.435,1.297-0.692,0.23c0.74-1.063,1.155-6.288,1.155-6.288s-1.388,1.063-0.557,0
			c0.834-1.063,1.713-10.312,1.713-10.312s0.877,9.248,1.711,10.312c0.831,1.063-0.556,0-0.556,0s0.417,5.225,1.156,6.288
			c0.74,1.066-0.693-0.23-0.693-0.23s0.464,4.902,1.389,6.429c0.924,1.524-0.695,0.277-0.925-0.276
			c-0.232-0.558,0.61,5.132,1.207,5.64c0.597,0.51-3.289,0-3.289,0S624.631,440.64,625.227,440.13z"/>
		<path fill="#2B6878" d="M608.164,432.783c0.507-0.433,1.227-5.288,1.03-4.813c-0.198,0.472-1.581,1.536-0.792,0.236
			c0.792-1.303,1.184-5.487,1.184-5.487s-1.222,1.108-0.59,0.198c0.631-0.906,0.989-5.364,0.989-5.364s-1.187,0.906-0.475,0
			c0.711-0.908,1.459-8.803,1.459-8.803s0.749,7.895,1.461,8.803c0.71,0.906-0.478,0-0.478,0s0.36,4.458,0.988,5.364
			c0.634,0.91-0.592-0.198-0.592-0.198s0.396,4.185,1.187,5.487c0.788,1.3-0.595,0.235-0.79-0.236
			c-0.198-0.475,0.521,4.381,1.03,4.813c0.511,0.435-2.807,0-2.807,0S607.654,433.218,608.164,432.783z"/>
		<path fill="#2B6878" d="M631.919,439.334c0.507-0.433,1.226-5.287,1.029-4.813c-0.198,0.472-1.581,1.538-0.79,0.236
			c0.79-1.301,1.182-5.487,1.182-5.487s-1.221,1.108-0.59,0.199c0.631-0.907,0.989-5.365,0.989-5.365s-1.187,0.907-0.475,0
			c0.711-0.908,1.46-8.801,1.46-8.801s0.748,7.893,1.46,8.801c0.71,0.907-0.477,0-0.477,0s0.359,4.458,0.987,5.365
			c0.634,0.909-0.592-0.199-0.592-0.199s0.396,4.187,1.187,5.487c0.788,1.302-0.595,0.235-0.79-0.236
			c-0.197-0.474,0.521,4.381,1.031,4.813c0.511,0.436-2.807,0-2.807,0S631.408,439.77,631.919,439.334z"/>
		<path fill="#2B6878" d="M600.51,434.61c0.476-0.407,1.154-4.981,0.97-4.535c-0.188,0.445-1.49,1.448-0.746,0.223
			c0.746-1.227,1.116-5.17,1.116-5.17s-1.152,1.045-0.558,0.188c0.595-0.854,0.932-5.054,0.932-5.054s-1.118,0.854-0.446,0
			c0.669-0.856,1.375-8.293,1.375-8.293s0.705,7.437,1.374,8.293c0.671,0.854-0.447,0-0.447,0s0.339,4.2,0.931,5.054
			c0.597,0.857-0.558-0.188-0.558-0.188s0.372,3.943,1.117,5.17c0.741,1.226-0.56,0.223-0.745-0.223
			c-0.185-0.446,0.493,4.128,0.973,4.535c0.481,0.41-2.645,0-2.645,0S600.028,435.021,600.51,434.61z"/>
		<path fill="#2B6878" d="M615.713,434.584c0.805-0.688,1.945-8.377,1.633-7.626c-0.314,0.752-2.501,2.438-1.252,0.377
			c1.252-2.065,1.875-8.69,1.875-8.69s-1.937,1.751-0.938,0.313c1.002-1.44,1.564-8.503,1.564-8.503s-1.875,1.437-0.75,0
			c1.125-1.438,2.312-13.94,2.312-13.94s1.187,12.503,2.313,13.94c1.126,1.437-0.75,0-0.75,0s0.563,7.062,1.562,8.503
			c1.003,1.438-0.938-0.313-0.938-0.313s0.627,6.625,1.876,8.69c1.251,2.062-0.938,0.375-1.249-0.377
			c-0.312-0.751,0.825,6.938,1.633,7.626c0.803,0.688-4.447,0-4.447,0S614.907,435.272,615.713,434.584z"/>
		<path fill="#407A87" d="M612.894,430.722c0.42-0.359,1.014-4.374,0.851-3.981c-0.162,0.39-1.304,1.272-0.65,0.197
			c0.65-1.079,0.979-4.538,0.979-4.538s-1.015,0.914-0.491,0.164c0.522-0.75,0.816-4.439,0.816-4.439s-0.979,0.751-0.393,0
			c0.588-0.75,1.209-7.277,1.209-7.277s0.619,6.527,1.206,7.277c0.587,0.751-0.39,0-0.39,0s0.291,3.689,0.816,4.439
			c0.52,0.75-0.492-0.164-0.492-0.164s0.327,3.459,0.98,4.538c0.651,1.075-0.488,0.192-0.653-0.197
			c-0.163-0.393,0.432,3.622,0.853,3.981c0.42,0.357-2.32,0-2.32,0S612.473,431.079,612.894,430.722z"/>
		<path fill="#407A87" d="M598.726,427.398c0.275-0.239,0.672-2.898,0.565-2.64c-0.109,0.257-0.866,0.844-0.434,0.13
			c0.434-0.714,0.65-3.008,0.65-3.008s-0.675,0.605-0.326,0.11c0.345-0.497,0.537-2.941,0.537-2.941s-0.646,0.497-0.256,0
			c0.388-0.498,0.802-4.824,0.802-4.824s0.409,4.326,0.798,4.824c0.388,0.497-0.259,0-0.259,0s0.192,2.444,0.541,2.941
			c0.345,0.495-0.327-0.11-0.327-0.11s0.22,2.294,0.652,3.008c0.43,0.714-0.325,0.127-0.433-0.13c-0.109-0.259,0.284,2.4,0.563,2.64
			c0.277,0.235-1.536,0-1.536,0S598.447,427.634,598.726,427.398z"/>
		<path fill="#407A87" d="M636.204,439.313c0.326-0.28,0.794-3.427,0.669-3.121c-0.129,0.306-1.023,0.998-0.514,0.154
			c0.514-0.844,0.77-3.557,0.77-3.557s-0.797,0.715-0.385,0.129c0.407-0.587,0.637-3.479,0.637-3.479s-0.767,0.588-0.305,0
			c0.46-0.589,0.948-5.705,0.948-5.705s0.483,5.116,0.943,5.705c0.459,0.588-0.307,0-0.307,0s0.229,2.892,0.64,3.479
			c0.408,0.586-0.385-0.129-0.385-0.129s0.259,2.713,0.77,3.557c0.51,0.844-0.385,0.151-0.511-0.154
			c-0.129-0.306,0.336,2.841,0.666,3.121c0.329,0.279-1.816,0-1.816,0S635.874,439.593,636.204,439.313z"/>
		<path fill="#407A87" d="M603.676,433.158c0.595-0.511,1.441-6.213,1.211-5.655c-0.231,0.554-1.854,1.809-0.926,0.278
			c0.926-1.529,1.393-6.445,1.393-6.445s-1.441,1.296-0.698,0.232c0.741-1.064,1.157-6.305,1.157-6.305s-1.391,1.064-0.556,0
			c0.834-1.064,1.716-10.337,1.716-10.337s0.88,9.272,1.715,10.337c0.836,1.064-0.554,0-0.554,0s0.415,5.24,1.16,6.305
			c0.737,1.063-0.701-0.232-0.701-0.232s0.468,4.916,1.394,6.445c0.926,1.53-0.692,0.275-0.926-0.278
			c-0.234-0.558,0.612,5.145,1.21,5.655c0.595,0.505-3.298,0-3.298,0S603.077,433.663,603.676,433.158z"/>
		<path fill="#407A87" d="M620.931,435.11c0.682-0.583,1.645-7.08,1.38-6.446c-0.264,0.635-2.113,2.061-1.057,0.317
			s1.586-7.343,1.586-7.343s-1.639,1.48-0.793,0.265c0.846-1.215,1.32-7.186,1.32-7.186s-1.584,1.216-0.634,0
			c0.95-1.214,1.953-11.778,1.953-11.778s1.006,10.564,1.956,11.778c0.95,1.216-0.636,0-0.636,0s0.476,5.971,1.322,7.186
			c0.846,1.216-0.793-0.265-0.793-0.265s0.528,5.6,1.585,7.343s-0.792,0.317-1.057-0.317c-0.264-0.634,0.698,5.863,1.38,6.446
			c0.681,0.579-3.758,0-3.758,0S620.251,435.689,620.931,435.11z"/>
	</g>
	<g>
		<path fill="#2B6878" d="M654.383,450.168c0.595-0.508,1.438-6.197,1.207-5.64c-0.23,0.554-1.851,1.801-0.926,0.276
			c0.926-1.526,1.388-6.429,1.388-6.429s-1.434,1.297-0.692,0.23c0.74-1.063,1.156-6.288,1.156-6.288s-1.389,1.063-0.558,0
			c0.834-1.063,1.713-10.312,1.713-10.312s0.877,9.248,1.711,10.312c0.831,1.063-0.556,0-0.556,0s0.418,5.225,1.156,6.288
			c0.74,1.066-0.692-0.23-0.692-0.23s0.463,4.902,1.388,6.429c0.924,1.524-0.695,0.277-0.925-0.276
			c-0.232-0.558,0.61,5.132,1.208,5.64c0.596,0.51-3.29,0-3.29,0S653.787,450.678,654.383,450.168z"/>
		<path fill="#2B6878" d="M637.321,442.821c0.506-0.433,1.226-5.288,1.029-4.813c-0.198,0.472-1.581,1.536-0.792,0.236
			c0.792-1.303,1.184-5.487,1.184-5.487s-1.221,1.107-0.59,0.198c0.631-0.906,0.989-5.364,0.989-5.364s-1.187,0.906-0.475,0
			c0.711-0.908,1.46-8.803,1.46-8.803s0.748,7.895,1.46,8.803c0.71,0.906-0.477,0-0.477,0s0.359,4.458,0.987,5.364
			c0.634,0.909-0.592-0.198-0.592-0.198s0.396,4.185,1.187,5.487c0.788,1.3-0.595,0.235-0.79-0.236
			c-0.197-0.475,0.521,4.381,1.031,4.813c0.51,0.435-2.807,0-2.807,0S636.811,443.256,637.321,442.821z"/>
		<path fill="#2B6878" d="M661.075,449.372c0.507-0.433,1.226-5.288,1.03-4.813c-0.199,0.472-1.582,1.538-0.791,0.236
			c0.791-1.301,1.183-5.487,1.183-5.487s-1.222,1.108-0.591,0.198c0.631-0.906,0.989-5.364,0.989-5.364s-1.187,0.906-0.475,0
			c0.711-0.908,1.46-8.801,1.46-8.801s0.748,7.893,1.461,8.801c0.709,0.906-0.478,0-0.478,0s0.359,4.458,0.987,5.364
			c0.635,0.91-0.592-0.198-0.592-0.198s0.396,4.187,1.187,5.487c0.788,1.302-0.595,0.235-0.79-0.236
			c-0.197-0.475,0.521,4.381,1.031,4.813c0.511,0.435-2.807,0-2.807,0S660.564,449.807,661.075,449.372z"/>
		<path fill="#2B6878" d="M629.666,444.648c0.476-0.407,1.154-4.981,0.97-4.535c-0.188,0.445-1.49,1.448-0.746,0.223
			c0.746-1.228,1.117-5.17,1.117-5.17s-1.153,1.045-0.559,0.188c0.595-0.854,0.932-5.054,0.932-5.054s-1.118,0.854-0.446,0
			c0.669-0.856,1.375-8.293,1.375-8.293s0.706,7.437,1.375,8.293c0.67,0.854-0.448,0-0.448,0s0.339,4.2,0.931,5.054
			c0.598,0.857-0.557-0.188-0.557-0.188s0.372,3.942,1.116,5.17c0.741,1.226-0.56,0.223-0.744-0.223
			c-0.185-0.446,0.492,4.128,0.972,4.535c0.481,0.409-2.645,0-2.645,0S629.185,445.058,629.666,444.648z"/>
		<path fill="#2B6878" d="M644.869,444.622c0.805-0.688,1.945-8.378,1.634-7.626c-0.315,0.751-2.502,2.438-1.253,0.376
			c1.253-2.064,1.875-8.69,1.875-8.69s-1.937,1.752-0.938,0.313c1.002-1.439,1.564-8.503,1.564-8.503s-1.875,1.438-0.75,0
			c1.125-1.437,2.312-13.939,2.312-13.939s1.188,12.503,2.313,13.939c1.126,1.438-0.75,0-0.75,0s0.563,7.063,1.562,8.503
			c1.003,1.438-0.938-0.313-0.938-0.313s0.627,6.626,1.876,8.69c1.251,2.062-0.938,0.375-1.249-0.376
			c-0.312-0.752,0.825,6.938,1.633,7.626c0.803,0.688-4.447,0-4.447,0S644.063,445.31,644.869,444.622z"/>
		<path fill="#407A87" d="M642.051,440.76c0.419-0.359,1.013-4.374,0.851-3.982c-0.163,0.391-1.305,1.273-0.651,0.197
			c0.651-1.078,0.979-4.537,0.979-4.537s-1.014,0.913-0.491,0.163c0.522-0.749,0.816-4.439,0.816-4.439s-0.979,0.752-0.393,0
			c0.588-0.75,1.209-7.277,1.209-7.277s0.619,6.527,1.207,7.277c0.586,0.752-0.391,0-0.391,0s0.291,3.69,0.816,4.439
			c0.52,0.75-0.492-0.163-0.492-0.163s0.328,3.459,0.981,4.537c0.65,1.076-0.489,0.193-0.653-0.197
			c-0.164-0.392,0.431,3.623,0.852,3.982c0.42,0.356-2.32,0-2.32,0S641.629,441.116,642.051,440.76z"/>
		<path fill="#407A87" d="M627.882,437.437c0.276-0.239,0.672-2.898,0.565-2.64c-0.109,0.257-0.866,0.843-0.434,0.13
			c0.434-0.714,0.65-3.009,0.65-3.009s-0.674,0.606-0.326,0.11c0.345-0.496,0.537-2.94,0.537-2.94s-0.646,0.496-0.256,0
			c0.388-0.498,0.802-4.824,0.802-4.824s0.409,4.326,0.798,4.824c0.388,0.496-0.259,0-0.259,0s0.193,2.444,0.541,2.94
			c0.345,0.496-0.327-0.11-0.327-0.11s0.22,2.295,0.652,3.009c0.43,0.713-0.325,0.127-0.433-0.13c-0.109-0.259,0.284,2.4,0.563,2.64
			c0.277,0.235-1.536,0-1.536,0S627.604,437.672,627.882,437.437z"/>
		<path fill="#407A87" d="M665.361,449.351c0.325-0.279,0.793-3.427,0.668-3.12c-0.128,0.306-1.023,0.998-0.513,0.154
			c0.513-0.844,0.77-3.557,0.77-3.557s-0.798,0.715-0.385,0.128c0.407-0.586,0.636-3.478,0.636-3.478s-0.767,0.587-0.305,0
			c0.461-0.59,0.949-5.705,0.949-5.705s0.482,5.115,0.942,5.705c0.459,0.587-0.306,0-0.306,0s0.229,2.892,0.639,3.478
			c0.409,0.587-0.385-0.128-0.385-0.128s0.259,2.713,0.77,3.557c0.51,0.844-0.385,0.151-0.511-0.154
			c-0.128-0.307,0.336,2.841,0.666,3.12c0.329,0.28-1.815,0-1.815,0S665.03,449.631,665.361,449.351z"/>
		<path fill="#407A87" d="M632.832,443.196c0.595-0.512,1.441-6.213,1.211-5.656c-0.231,0.555-1.853,1.81-0.925,0.278
			c0.925-1.529,1.392-6.444,1.392-6.444s-1.441,1.296-0.698,0.232c0.742-1.064,1.157-6.305,1.157-6.305s-1.391,1.064-0.556,0
			c0.834-1.065,1.716-10.338,1.716-10.338s0.88,9.272,1.716,10.338c0.835,1.064-0.555,0-0.555,0s0.416,5.24,1.16,6.305
			c0.737,1.063-0.701-0.232-0.701-0.232s0.468,4.915,1.394,6.444c0.927,1.531-0.692,0.276-0.926-0.278
			c-0.234-0.557,0.612,5.145,1.21,5.656c0.595,0.505-3.298,0-3.298,0S632.233,443.701,632.832,443.196z"/>
		<path fill="#407A87" d="M650.087,445.147c0.682-0.582,1.645-7.08,1.38-6.446c-0.263,0.636-2.112,2.062-1.057,0.318
			c1.057-1.744,1.586-7.344,1.586-7.344s-1.639,1.48-0.792,0.265c0.845-1.214,1.319-7.185,1.319-7.185s-1.584,1.216-0.634,0
			c0.95-1.215,1.953-11.778,1.953-11.778s1.006,10.563,1.956,11.778c0.95,1.216-0.635,0-0.635,0s0.476,5.971,1.322,7.185
			c0.845,1.216-0.794-0.265-0.794-0.265s0.529,5.6,1.585,7.344c1.057,1.743-0.791,0.317-1.056-0.318
			c-0.265-0.634,0.698,5.864,1.379,6.446c0.681,0.579-3.758,0-3.758,0S649.407,445.727,650.087,445.147z"/>
	</g>
</g>
<g>
	<g>
		<path fill="#2B6878" d="M684.747,456.203c0.595-0.508,1.437-6.197,1.207-5.64c-0.23,0.554-1.851,1.801-0.926,0.276
			c0.926-1.526,1.388-6.429,1.388-6.429s-1.435,1.297-0.692,0.23c0.74-1.063,1.155-6.288,1.155-6.288s-1.388,1.063-0.557,0
			c0.834-1.063,1.713-10.312,1.713-10.312s0.877,9.248,1.711,10.312c0.831,1.063-0.556,0-0.556,0s0.417,5.225,1.156,6.288
			c0.74,1.066-0.693-0.23-0.693-0.23s0.464,4.902,1.389,6.429c0.924,1.524-0.695,0.277-0.925-0.276
			c-0.232-0.558,0.61,5.132,1.207,5.64c0.597,0.51-3.289,0-3.289,0S684.151,456.713,684.747,456.203z"/>
		<path fill="#2B6878" d="M667.685,448.856c0.507-0.433,1.227-5.288,1.03-4.813c-0.198,0.472-1.581,1.536-0.792,0.236
			c0.792-1.303,1.184-5.487,1.184-5.487s-1.222,1.108-0.59,0.198c0.631-0.906,0.989-5.364,0.989-5.364s-1.187,0.906-0.475,0
			c0.711-0.908,1.459-8.803,1.459-8.803s0.749,7.895,1.461,8.803c0.71,0.906-0.478,0-0.478,0s0.36,4.458,0.988,5.364
			c0.634,0.91-0.592-0.198-0.592-0.198s0.396,4.185,1.187,5.487c0.788,1.3-0.595,0.235-0.79-0.236
			c-0.198-0.475,0.521,4.381,1.03,4.813c0.511,0.435-2.807,0-2.807,0S667.175,449.291,667.685,448.856z"/>
		<path fill="#2B6878" d="M691.439,455.407c0.507-0.433,1.226-5.287,1.029-4.813c-0.198,0.472-1.581,1.538-0.79,0.236
			c0.79-1.301,1.182-5.487,1.182-5.487s-1.221,1.108-0.59,0.199c0.631-0.907,0.989-5.365,0.989-5.365s-1.187,0.907-0.475,0
			c0.711-0.908,1.46-8.801,1.46-8.801s0.748,7.893,1.46,8.801c0.71,0.907-0.477,0-0.477,0s0.359,4.458,0.987,5.365
			c0.634,0.909-0.592-0.199-0.592-0.199s0.396,4.187,1.187,5.487c0.788,1.302-0.595,0.235-0.79-0.236
			c-0.197-0.474,0.521,4.381,1.031,4.813c0.511,0.436-2.807,0-2.807,0S690.929,455.843,691.439,455.407z"/>
		<path fill="#2B6878" d="M660.03,450.684c0.476-0.407,1.154-4.981,0.97-4.535c-0.188,0.445-1.49,1.448-0.746,0.223
			c0.746-1.227,1.116-5.17,1.116-5.17s-1.152,1.045-0.558,0.188c0.595-0.854,0.932-5.054,0.932-5.054s-1.118,0.854-0.446,0
			c0.669-0.856,1.375-8.293,1.375-8.293s0.705,7.437,1.374,8.293c0.671,0.854-0.447,0-0.447,0s0.339,4.2,0.931,5.054
			c0.597,0.857-0.558-0.188-0.558-0.188s0.372,3.943,1.117,5.17c0.741,1.226-0.56,0.223-0.745-0.223
			c-0.185-0.446,0.493,4.128,0.973,4.535c0.481,0.41-2.645,0-2.645,0S659.549,451.094,660.03,450.684z"/>
		<path fill="#2B6878" d="M675.233,450.657c0.805-0.688,1.945-8.377,1.633-7.626c-0.314,0.752-2.501,2.438-1.252,0.377
			c1.252-2.065,1.875-8.69,1.875-8.69s-1.937,1.751-0.938,0.313c1.002-1.44,1.564-8.503,1.564-8.503s-1.875,1.437-0.75,0
			c1.125-1.438,2.312-13.94,2.312-13.94s1.187,12.503,2.313,13.94c1.126,1.437-0.75,0-0.75,0s0.563,7.062,1.562,8.503
			c1.003,1.438-0.938-0.313-0.938-0.313s0.627,6.625,1.876,8.69c1.251,2.062-0.938,0.375-1.249-0.377
			c-0.312-0.751,0.825,6.938,1.633,7.626c0.803,0.688-4.447,0-4.447,0S674.428,451.346,675.233,450.657z"/>
		<path fill="#407A87" d="M672.414,446.795c0.42-0.359,1.014-4.374,0.851-3.981c-0.162,0.39-1.304,1.272-0.65,0.197
			c0.65-1.079,0.979-4.538,0.979-4.538s-1.015,0.914-0.491,0.164c0.522-0.75,0.816-4.439,0.816-4.439s-0.979,0.751-0.393,0
			c0.588-0.75,1.209-7.277,1.209-7.277s0.619,6.527,1.206,7.277c0.587,0.751-0.39,0-0.39,0s0.291,3.689,0.816,4.439
			c0.52,0.75-0.492-0.164-0.492-0.164s0.327,3.459,0.98,4.538c0.651,1.075-0.488,0.192-0.653-0.197
			c-0.163-0.393,0.432,3.622,0.853,3.981c0.42,0.357-2.32,0-2.32,0S671.993,447.152,672.414,446.795z"/>
		<path fill="#407A87" d="M658.246,443.472c0.275-0.239,0.672-2.898,0.565-2.64c-0.109,0.257-0.866,0.844-0.434,0.13
			c0.434-0.714,0.65-3.008,0.65-3.008s-0.675,0.605-0.326,0.11c0.345-0.497,0.537-2.941,0.537-2.941s-0.646,0.497-0.256,0
			c0.388-0.498,0.802-4.824,0.802-4.824s0.409,4.326,0.798,4.824c0.388,0.497-0.259,0-0.259,0s0.192,2.444,0.541,2.941
			c0.345,0.495-0.327-0.11-0.327-0.11s0.22,2.294,0.652,3.008c0.43,0.714-0.325,0.127-0.433-0.13c-0.109-0.259,0.284,2.4,0.563,2.64
			c0.277,0.235-1.536,0-1.536,0S657.968,443.707,658.246,443.472z"/>
		<path fill="#407A87" d="M695.725,455.387c0.326-0.28,0.794-3.427,0.669-3.121c-0.129,0.306-1.023,0.998-0.514,0.154
			c0.514-0.844,0.77-3.557,0.77-3.557s-0.797,0.715-0.385,0.129c0.407-0.587,0.637-3.479,0.637-3.479s-0.767,0.588-0.305,0
			c0.46-0.589,0.948-5.705,0.948-5.705s0.483,5.116,0.943,5.705c0.459,0.588-0.307,0-0.307,0s0.229,2.892,0.64,3.479
			c0.408,0.586-0.385-0.129-0.385-0.129s0.259,2.713,0.77,3.557c0.51,0.844-0.385,0.151-0.511-0.154
			c-0.129-0.306,0.336,2.841,0.666,3.121c0.329,0.279-1.816,0-1.816,0S695.395,455.666,695.725,455.387z"/>
		<path fill="#407A87" d="M663.196,449.231c0.595-0.511,1.441-6.213,1.211-5.655c-0.231,0.554-1.854,1.809-0.926,0.278
			c0.926-1.529,1.393-6.445,1.393-6.445s-1.441,1.296-0.698,0.232c0.741-1.064,1.157-6.305,1.157-6.305s-1.391,1.064-0.556,0
			c0.834-1.064,1.716-10.337,1.716-10.337s0.88,9.272,1.715,10.337c0.836,1.064-0.554,0-0.554,0s0.415,5.24,1.16,6.305
			c0.737,1.063-0.701-0.232-0.701-0.232s0.468,4.916,1.394,6.445c0.926,1.53-0.692,0.275-0.926-0.278
			c-0.234-0.558,0.612,5.145,1.21,5.655c0.595,0.505-3.298,0-3.298,0S662.598,449.736,663.196,449.231z"/>
		<path fill="#407A87" d="M680.451,451.184c0.682-0.583,1.645-7.08,1.38-6.446c-0.264,0.635-2.113,2.061-1.057,0.317
			s1.586-7.343,1.586-7.343s-1.639,1.48-0.793,0.265c0.846-1.215,1.32-7.186,1.32-7.186s-1.584,1.216-0.634,0
			c0.95-1.214,1.953-11.778,1.953-11.778s1.006,10.564,1.956,11.778c0.95,1.216-0.636,0-0.636,0s0.476,5.971,1.322,7.186
			c0.846,1.216-0.793-0.265-0.793-0.265s0.528,5.6,1.585,7.343s-0.792,0.317-1.057-0.317c-0.264-0.634,0.698,5.863,1.38,6.446
			c0.681,0.579-3.758,0-3.758,0S679.771,451.763,680.451,451.184z"/>
	</g>
	<g>
		<path fill="#2B6878" d="M713.903,466.241c0.595-0.508,1.438-6.197,1.207-5.64c-0.23,0.554-1.851,1.801-0.926,0.276
			c0.926-1.526,1.388-6.429,1.388-6.429s-1.434,1.297-0.692,0.23c0.74-1.063,1.156-6.288,1.156-6.288s-1.389,1.063-0.558,0
			c0.834-1.063,1.713-10.312,1.713-10.312s0.877,9.248,1.711,10.312c0.831,1.063-0.556,0-0.556,0s0.418,5.225,1.156,6.288
			c0.74,1.066-0.692-0.23-0.692-0.23s0.463,4.902,1.388,6.429c0.924,1.524-0.695,0.277-0.925-0.276
			c-0.232-0.558,0.61,5.132,1.208,5.64c0.596,0.51-3.29,0-3.29,0S713.308,466.751,713.903,466.241z"/>
		<path fill="#2B6878" d="M696.842,458.895c0.506-0.433,1.226-5.288,1.029-4.813c-0.198,0.472-1.581,1.536-0.792,0.236
			c0.792-1.303,1.184-5.487,1.184-5.487s-1.221,1.107-0.59,0.198c0.631-0.906,0.989-5.364,0.989-5.364s-1.187,0.906-0.475,0
			c0.711-0.908,1.46-8.803,1.46-8.803s0.748,7.895,1.46,8.803c0.71,0.906-0.477,0-0.477,0s0.359,4.458,0.987,5.364
			c0.634,0.909-0.592-0.198-0.592-0.198s0.396,4.185,1.187,5.487c0.788,1.3-0.595,0.235-0.79-0.236
			c-0.197-0.475,0.521,4.381,1.031,4.813c0.51,0.435-2.807,0-2.807,0S696.331,459.329,696.842,458.895z"/>
		<path fill="#2B6878" d="M689.187,460.722c0.476-0.407,1.154-4.981,0.97-4.535c-0.188,0.445-1.49,1.448-0.746,0.223
			c0.746-1.228,1.117-5.17,1.117-5.17s-1.153,1.045-0.559,0.188c0.595-0.854,0.932-5.054,0.932-5.054s-1.118,0.854-0.446,0
			c0.669-0.856,1.375-8.293,1.375-8.293s0.706,7.437,1.375,8.293c0.67,0.854-0.448,0-0.448,0s0.339,4.2,0.931,5.054
			c0.598,0.857-0.557-0.188-0.557-0.188s0.372,3.942,1.116,5.17c0.741,1.226-0.56,0.223-0.744-0.223
			c-0.185-0.446,0.492,4.128,0.972,4.535c0.481,0.409-2.645,0-2.645,0S688.705,461.131,689.187,460.722z"/>
		<path fill="#2B6878" d="M704.39,460.695c0.805-0.688,1.945-8.378,1.634-7.626c-0.315,0.751-2.502,2.438-1.253,0.376
			c1.253-2.064,1.875-8.69,1.875-8.69s-1.937,1.752-0.938,0.313c1.002-1.439,1.564-8.503,1.564-8.503s-1.875,1.438-0.75,0
			c1.125-1.437,2.312-13.939,2.312-13.939s1.188,12.503,2.313,13.939c1.126,1.438-0.75,0-0.75,0s0.563,7.063,1.562,8.503
			c1.003,1.438-0.938-0.313-0.938-0.313s0.627,6.626,1.876,8.69c1.251,2.062-0.938,0.375-1.249-0.376
			c-0.312-0.752,0.825,6.938,1.633,7.626c0.803,0.688-4.447,0-4.447,0S703.584,461.383,704.39,460.695z"/>
		<path fill="#407A87" d="M701.571,456.833c0.419-0.359,1.013-4.374,0.851-3.982c-0.163,0.391-1.305,1.273-0.651,0.197
			c0.651-1.078,0.979-4.537,0.979-4.537s-1.014,0.913-0.491,0.163c0.522-0.749,0.816-4.439,0.816-4.439s-0.979,0.752-0.393,0
			c0.588-0.75,1.209-7.277,1.209-7.277s0.619,6.527,1.207,7.277c0.586,0.752-0.391,0-0.391,0s0.291,3.69,0.816,4.439
			c0.52,0.75-0.492-0.163-0.492-0.163s0.328,3.459,0.981,4.537c0.65,1.076-0.489,0.193-0.653-0.197
			c-0.164-0.392,0.431,3.623,0.852,3.982c0.42,0.356-2.32,0-2.32,0S701.149,457.189,701.571,456.833z"/>
		<path fill="#407A87" d="M687.402,453.51c0.276-0.239,0.672-2.898,0.565-2.64c-0.109,0.257-0.866,0.843-0.434,0.13
			c0.434-0.714,0.65-3.009,0.65-3.009s-0.674,0.606-0.326,0.11c0.345-0.496,0.537-2.94,0.537-2.94s-0.646,0.496-0.256,0
			c0.388-0.498,0.802-4.824,0.802-4.824s0.409,4.326,0.798,4.824c0.388,0.496-0.259,0-0.259,0s0.193,2.444,0.541,2.94
			c0.345,0.496-0.327-0.11-0.327-0.11s0.22,2.295,0.652,3.009c0.43,0.713-0.325,0.127-0.433-0.13c-0.109-0.259,0.284,2.4,0.563,2.64
			c0.277,0.235-1.536,0-1.536,0S687.124,453.745,687.402,453.51z"/>
		<path fill="#407A87" d="M692.353,459.27c0.595-0.512,1.441-6.213,1.211-5.656c-0.231,0.555-1.853,1.81-0.925,0.278
			c0.925-1.529,1.392-6.444,1.392-6.444s-1.441,1.296-0.698,0.232c0.742-1.064,1.157-6.305,1.157-6.305s-1.391,1.064-0.556,0
			c0.834-1.065,1.716-10.338,1.716-10.338s0.88,9.272,1.716,10.338c0.835,1.064-0.555,0-0.555,0s0.416,5.24,1.16,6.305
			c0.737,1.063-0.701-0.232-0.701-0.232s0.468,4.915,1.394,6.444c0.927,1.531-0.692,0.276-0.926-0.278
			c-0.234-0.557,0.612,5.145,1.21,5.656c0.595,0.505-3.298,0-3.298,0S691.754,459.774,692.353,459.27z"/>
		<path fill="#407A87" d="M709.607,461.221c0.682-0.582,1.645-7.08,1.38-6.446c-0.263,0.636-2.112,2.062-1.057,0.318
			c1.057-1.744,1.586-7.344,1.586-7.344s-1.639,1.48-0.792,0.265c0.845-1.214,1.319-7.185,1.319-7.185s-1.584,1.216-0.634,0
			c0.95-1.215,1.953-11.778,1.953-11.778s1.006,10.563,1.956,11.778c0.95,1.216-0.635,0-0.635,0s0.476,5.971,1.322,7.185
			c0.845,1.216-0.794-0.265-0.794-0.265s0.529,5.6,1.585,7.344c1.057,1.743-0.791,0.317-1.056-0.318
			c-0.265-0.634,0.698,5.864,1.379,6.446c0.681,0.579-3.758,0-3.758,0S708.928,461.8,709.607,461.221z"/>
	</g>
</g>
<path fill="#2B6878" d="M270.406,498.733c-1.122-0.957-2.708-11.664-2.273-10.62c0.435,1.045,3.482,3.396,1.741,0.522
	c-1.741-2.872-2.612-12.1-2.612-12.1s2.698,2.438,1.305,0.435c-1.392-2.002-2.175-11.84-2.175-11.84s2.611,2.003,1.045,0
	c-1.567-2.002-3.222-19.412-3.222-19.412s-1.654,17.41-3.221,19.412c-1.566,2.003,1.045,0,1.045,0s-0.784,9.838-2.177,11.84
	c-1.393,2.003,1.306-0.435,1.306-0.435s-0.87,9.228-2.611,12.1c-1.741,2.873,1.306,0.522,1.741-0.522
	c0.435-1.044-1.152,9.663-2.273,10.62c-1.122,0.958,6.191,0,6.191,0S271.527,499.691,270.406,498.733z"/>
<path fill="#407A87" d="M261.577,496.899c-1.299-1.108-3.137-13.51-2.633-12.3c0.504,1.21,4.033,3.933,2.017,0.605
	s-3.024-14.015-3.024-14.015s3.125,2.823,1.512,0.505c-1.613-2.319-2.521-13.712-2.521-13.712s3.025,2.319,1.21,0
	c-1.815-2.318-3.73-22.482-3.73-22.482s-1.916,20.164-3.73,22.482c-1.814,2.319,1.21,0,1.21,0s-0.907,11.393-2.521,13.712
	c-1.613,2.318,1.513-0.505,1.513-0.505s-1.009,10.688-3.025,14.015c-2.017,3.327,1.512,0.604,2.016-0.605
	c0.504-1.21-1.334,11.191-2.633,12.3c-1.299,1.109,7.17,0,7.17,0S262.875,498.009,261.577,496.899z"/>
<path fill="#2B6878" d="M286.813,493.138c-1.084-0.926-2.619-11.278-2.198-10.268c0.421,1.01,3.367,3.282,1.684,0.505
	c-1.684-2.777-2.525-11.697-2.525-11.697s2.609,2.356,1.263,0.42c-1.347-1.936-2.104-11.445-2.104-11.445s2.525,1.935,1.01,0
	c-1.515-1.936-3.114-18.768-3.114-18.768s-1.6,16.832-3.114,18.768c-1.515,1.935,1.01,0,1.01,0s-0.757,9.51-2.104,11.445
	c-1.347,1.937,1.263-0.42,1.263-0.42s-0.842,8.92-2.525,11.697c-1.683,2.777,1.263,0.505,1.684-0.505
	c0.421-1.011-1.114,9.342-2.198,10.268c-1.084,0.926,5.985,0,5.985,0S287.897,494.063,286.813,493.138z"/>
<path fill="#4E5728" d="M-65.687,804.832l0.143-1.24C-65.544,803.592-65.62,804.066-65.687,804.832z"/>
<path fill="#2B6878" d="M219.207,484.516c-0.429-0.365-1.035-4.459-0.869-4.059c0.167,0.399,1.332,1.297,0.666,0.199
	c-0.666-1.099-0.999-4.625-0.999-4.625s1.031,0.933,0.499,0.166c-0.532-0.765-0.832-4.524-0.832-4.524s0.998,0.765,0.399,0
	c-0.599-0.766-1.231-7.42-1.231-7.42s-0.632,6.654-1.231,7.42c-0.599,0.765,0.399,0,0.399,0s-0.299,3.76-0.832,4.524
	c-0.533,0.767,0.499-0.166,0.499-0.166s-0.333,3.526-0.999,4.625c-0.665,1.098,0.5,0.2,0.666-0.199
	c0.166-0.4-0.44,3.693-0.869,4.059c-0.429,0.366,2.366,0,2.366,0S219.635,484.882,219.207,484.516z"/>
<g>
	<g>
		<path fill="#BE8957" d="M0,418.856c0,0,152.852,21.569,183.446,42.025s98.08,40.045,120.959,43.159H0.139L0,418.856z"/>
		<polygon fill="#A8754C" points="174.439,476.042 178.177,476.096 250.513,504.041 220.791,502.927 157.511,504.041 
			62.274,504.041 0,504.041 0,459.649 35.635,472.042 61.566,492.542 109.239,465.054 		"/>
	</g>
	<g>
		<path fill="#DBAC53" d="M394.118,480.242c-50.872-0.893-101.744,12.54-152.616,11.887C187.663,500.778,138,504.041,138,504.041
			h310.993c8.767-11.466,15.942-24.145,21.449-37.553c-5.387,4.343-11.354,8.11-17.324,12.754
			C433.118,493.242,413.118,481.242,394.118,480.242z"/>
		<path fill="#DBAC53" d="M241.502,492.129c18.008,0.231,36.017-1.306,54.025-3.344c6.737-5.755,14.102-10.063,21.923-13.244
			C294.592,482.492,267.561,487.942,241.502,492.129z"/>
		<path fill="#DBAC53" d="M349.501,463.219c-0.531,0.252-1.034,0.495-1.501,0.724c-5.492,2.691-11.666,5.218-18.345,7.592
			c32.928-8.519,71.675-1.812,104.92-1.104c16.295,0.857,29.647-10.054,41.951-21.379c0.856-2.94,1.632-5.905,2.337-8.887
			C444.193,474.442,395.848,461.949,349.501,463.219z"/>
		<path fill="#E6BA5D" d="M349.501,463.219c46.347-1.27,94.692,11.224,129.362-23.055c1.395-5.896,2.493-11.863,3.266-17.879
			C423.396,431.963,367.766,454.519,349.501,463.219z"/>
		<path fill="#E6BA5D" d="M434.575,470.43c-33.245-0.707-71.992-7.414-104.92,1.104c-3.904,1.389-7.983,2.724-12.205,4.007
			c-7.821,3.181-15.186,7.489-21.923,13.244c32.864-3.721,65.727-9.119,98.59-8.543c19,1,39,13,59-1
			c5.971-4.644,11.938-8.411,17.324-12.754c2.337-5.691,4.357-11.519,6.084-17.438C464.223,460.376,450.87,471.287,434.575,470.43z"
			/>
		<path fill="#C67853" d="M535.88,417.8c-0.963-0.014-1.929-0.033-2.88-0.033c-16.664,0-33.897,1.722-50.871,4.519
			c-3.803,29.624-15.147,58.229-33.136,81.756h60.848c18.703-9.017,35.13-21.448,50.277-35.799
			C555.832,450.382,548.479,431.503,535.88,417.8z"/>
		<path fill="#BC6B4B" d="M605.118,490.461c-5-15-14-28-24-41c-10.598-14.673-24.518-23.365-39.052-31.495
			c-2.086-0.086-4.144-0.135-6.187-0.166c12.599,13.703,19.952,32.582,24.238,50.442c-15.147,14.351-31.574,26.782-50.277,35.799
			h98.841C607.684,499.509,606.516,494.981,605.118,490.461z"/>
		<path fill="#E6BA5D" d="M696.725,452.526c-6.978,8.801-13.563,17.903-20.149,17.903c-29.396-0.979-59.752-17.309-91.067-15.145
			c1.82,2.468,3.596,4.945,5.294,7.448c1.644-0.485,3.479-0.491,5.316-0.491c27,4,53,9,78,18
			c13.62,4.256,31.585-6.705,45.882-18.696v-0.642C720,460.904,711.141,457.463,696.725,452.526z"/>
		<path fill="#E6BA5D" d="M676.575,464.43c3.329-0.832,7.352-8.589,12.065-14.628c-36.227-12.031-97.184-29.798-146.574-31.836
			c14.534,8.13,28.454,16.822,39.052,31.495c0.314,0.409,0.614,0.819,0.927,1.229C613.344,447.261,645.695,466.146,676.575,464.43z"
			/>
		<path fill="#DBAC53" d="M688.641,449.802c-4.714,6.039-8.736,13.796-12.065,14.628c-30.88,1.716-63.231-17.169-94.53-13.739
			c1.167,1.529,2.33,3.06,3.463,4.595c31.315-2.164,61.672,14.165,91.067,15.145c6.586,0,13.172-9.103,20.149-17.903
			C694.201,451.662,691.488,450.748,688.641,449.802z"/>
		<path fill="#DBAC53" d="M674.118,480.242c-25-9-51-14-78-18c-1.838,0-3.673,0.006-5.316,0.491
			c5.942,8.754,11.008,17.802,14.316,27.728c1.397,4.521,2.565,9.048,3.563,13.58H720v-42.495
			C705.703,473.537,687.738,484.498,674.118,480.242z"/>
	</g>
</g>
<g>
	<g>
		<path fill="#327774" d="M114.448,457.604c0,0-6.135-0.287-9.542,0.723s-3.293,2.742-3.293,2.742l-1.819-1.751
			c0,0-1.476,1.318-2.158,1.751c-0.681,0.434-1.135,1.732-1.135,1.732l-0.909-0.723c0,0-4.09,3.033-4.885,4.33
			c-0.795,1.3-0.341,6.497,0.908,8.518c1.25,2.022-2.725-3.465-2.725-5.485c0-2.02-1.364,2.455,0,4.476
			c1.363,2.021,1.363,2.021,1.363,2.021l-2.84-3.321c0,0-0.568,2.021-0.795,2.598c-0.227,0.578,1.363,1.734,2.612,2.312
			c1.25,0.576-3.293-1.156-3.293-1.156s-1.591,1.445-1.932,4.331c-0.34,2.886-0.796,3.609-0.796,3.609l4.999,3.465l-4.999-2.021
			c0,0-1.021,2.166-1.021,4.763l4.316,3.753l-5.453-1.587l-0.681,1.587c0,0,2.498,0.578,2.613,1.155c0.113,0.579-2.613,0-2.613,0
			v2.165h3.522c0,0,0.454,0.865-0.342,1.154c-0.796,0.29-4.09,0-4.09,0s-0.794,5.053,0,5.197l34.989-0.129V457.604z"/>
		<path fill="#255E6B" d="M114.448,502.41V486.1c0,0-2.84-1.011-4.771,0c-1.931,1.008-3.92,2.67-3.92,2.67l0.171,3.682l-0.277,0.35
			c0,0-0.234-2.841-0.703-3.49c-0.468-0.649-1.704,0.797-1.704,0.797l0.935,3.398l-1.745-3.113c-2.002-0.108-3.165,1.94-3.278,1.95
			c-0.114,0.006,1.093,3.427,1.093,3.427s-1.633-2.36-2.045-2.894s-1.557,0.582-1.477,1.018c0.081,0.437,0.639,2.345,0.639,2.345
			l-1.434-2.345c-0.41-0.279-1.135,0.578-1.135,0.578l1.135,2.31c0,0-1.193-1.281-1.817-1.588c-0.625-0.308-2.043,0.958-1.25,1.588
			c0.794,0.63,1.818,1.442,1.818,1.442s-1.866-0.458-2.642-0.738c-0.596-0.218-1.662,1.189-0.994,1.604
			c0.75,0.468,2.385,1.588,2.385,1.588s-3.549,0-4.089,0c-0.54,0-1.25,1.732,0,1.732C90.593,502.41,114.448,502.41,114.448,502.41z"
			/>
	</g>
	<g>
		<path fill="#327774" d="M114.448,457.604c0,0,6.134-0.287,9.542,0.723s3.294,2.742,3.294,2.742l1.817-1.751
			c0,0,1.477,1.318,2.158,1.751c0.683,0.434,1.136,1.732,1.136,1.732l0.909-0.723c0,0,4.09,3.033,4.884,4.33
			c0.796,1.3,0.341,6.497-0.907,8.518c-1.251,2.022,2.726-3.465,2.726-5.485c0-2.02,1.364,2.455,0,4.476
			c-1.362,2.021-1.362,2.021-1.362,2.021l2.839-3.321c0,0,0.568,2.021,0.795,2.598c0.227,0.578-1.364,1.734-2.612,2.312
			c-1.25,0.576,3.294-1.156,3.294-1.156s1.59,1.445,1.931,4.331s0.796,3.609,0.796,3.609l-5,3.465l5-2.021
			c0,0,1.021,2.166,1.021,4.763l-4.316,3.753l5.453-1.587l0.682,1.587c0,0-2.499,0.578-2.613,1.155c-0.113,0.579,2.613,0,2.613,0
			v2.165h-3.521c0,0-0.455,0.865,0.34,1.154c0.797,0.29,4.091,0,4.091,0s0.795,5.053,0,5.197l-34.988-0.129V457.604z"/>
		<path fill="#255E6B" d="M114.448,502.41V486.1c0,0,2.839-1.011,4.77,0c1.931,1.008,3.919,2.67,3.919,2.67l-0.17,3.682l0.277,0.35
			c0,0,0.234-2.841,0.703-3.49c0.468-0.649,1.704,0.797,1.704,0.797l-0.935,3.398l1.745-3.113c2.002-0.108,3.165,1.94,3.279,1.95
			c0.113,0.006-1.093,3.427-1.093,3.427s1.632-2.36,2.046-2.894c0.411-0.533,1.557,0.582,1.476,1.018
			c-0.08,0.437-0.638,2.345-0.638,2.345l1.433-2.345c0.41-0.279,1.136,0.578,1.136,0.578l-1.136,2.31c0,0,1.194-1.281,1.818-1.588
			c0.625-0.308,2.043,0.958,1.249,1.588c-0.793,0.63-1.816,1.442-1.816,1.442s1.865-0.458,2.641-0.738
			c0.596-0.218,1.662,1.189,0.994,1.604c-0.749,0.468-2.385,1.588-2.385,1.588s3.549,0,4.089,0s1.25,1.732,0,1.732
			C138.303,502.41,114.448,502.41,114.448,502.41z"/>
	</g>
</g>
<g>
	<g>
		<path fill="#327774" d="M33.229,428.804c0,0-5.513-0.259-8.575,0.649c-3.062,0.907-2.959,2.464-2.959,2.464l-1.634-1.573
			c0,0-1.326,1.185-1.939,1.573c-0.612,0.39-1.02,1.557-1.02,1.557l-0.816-0.649c0,0-3.676,2.726-4.39,3.892
			c-0.715,1.168-0.307,5.838,0.816,7.653c1.124,1.817-2.449-3.113-2.449-4.929s-1.226,2.206,0,4.021
			c1.225,1.816,1.225,1.816,1.225,1.816l-2.552-2.984c0,0-0.51,1.816-0.714,2.334c-0.204,0.52,1.225,1.559,2.347,2.077
			c1.123,0.519-2.96-1.039-2.96-1.039s-1.429,1.299-1.735,3.893c-0.306,2.593-0.715,3.243-0.715,3.243l4.492,3.113l-4.492-1.816
			c0,0-0.917,1.946-0.917,4.28l3.878,3.372l-4.9-1.426l-0.612,1.426c0,0,2.245,0.52,2.348,1.038c0.101,0.521-2.348,0-2.348,0v1.945
			H5.77c0,0,0.408,0.778-0.307,1.038c-0.715,0.26-3.675,0-3.675,0s-0.714,4.54,0,4.67l31.441-0.116V428.804z"/>
		<path fill="#255E6B" d="M33.229,469.066v-14.657c0,0-2.552-0.908-4.287,0c-1.735,0.906-3.522,2.399-3.522,2.399l0.154,3.309
			l-0.249,0.314c0,0-0.21-2.553-0.632-3.137c-0.421-0.584-1.531,0.716-1.531,0.716l0.84,3.054l-1.568-2.797
			c-1.799-0.098-2.844,1.743-2.946,1.752c-0.102,0.006,0.982,3.079,0.982,3.079s-1.467-2.121-1.838-2.6
			c-0.371-0.479-1.399,0.522-1.327,0.914c0.073,0.393,0.574,2.107,0.574,2.107l-1.288-2.107c-0.369-0.251-1.02,0.52-1.02,0.52
			l1.02,2.075c0,0-1.072-1.151-1.633-1.427c-0.562-0.276-1.836,0.861-1.123,1.427c0.713,0.566,1.633,1.297,1.633,1.297
			s-1.676-0.412-2.374-0.664c-0.536-0.195-1.493,1.069-0.893,1.442c0.674,0.42,2.144,1.427,2.144,1.427s-3.189,0-3.675,0
			c-0.485,0-1.123,1.557,0,1.557C11.792,469.066,33.229,469.066,33.229,469.066z"/>
	</g>
	<g>
		<path fill="#327774" d="M33.229,428.804c0,0,5.512-0.259,8.574,0.649c3.062,0.907,2.96,2.464,2.96,2.464l1.633-1.573
			c0,0,1.327,1.185,1.939,1.573c0.613,0.39,1.021,1.557,1.021,1.557l0.817-0.649c0,0,3.675,2.726,4.389,3.892
			c0.715,1.168,0.307,5.838-0.815,7.653c-1.124,1.817,2.449-3.113,2.449-4.929s1.226,2.206,0,4.021
			c-1.224,1.816-1.224,1.816-1.224,1.816l2.551-2.984c0,0,0.51,1.816,0.715,2.334c0.204,0.52-1.226,1.559-2.348,2.077
			c-1.124,0.519,2.96-1.039,2.96-1.039s1.429,1.299,1.735,3.893c0.306,2.593,0.716,3.243,0.716,3.243l-4.493,3.113l4.493-1.816
			c0,0,0.917,1.946,0.917,4.28l-3.878,3.372l4.9-1.426l0.613,1.426c0,0-2.246,0.52-2.348,1.038c-0.102,0.521,2.348,0,2.348,0v1.945
			h-3.165c0,0-0.409,0.778,0.306,1.038c0.716,0.26,3.676,0,3.676,0s0.714,4.54,0,4.67l-31.441-0.116V428.804z"/>
		<path fill="#255E6B" d="M33.229,469.066v-14.657c0,0,2.551-0.908,4.287,0c1.735,0.906,3.522,2.399,3.522,2.399l-0.153,3.309
			l0.249,0.314c0,0,0.21-2.553,0.632-3.137c0.42-0.584,1.531,0.716,1.531,0.716l-0.84,3.054l1.568-2.797
			c1.799-0.098,2.844,1.743,2.947,1.752c0.102,0.006-0.982,3.079-0.982,3.079s1.467-2.121,1.838-2.6
			c0.37-0.479,1.399,0.522,1.326,0.914c-0.072,0.393-0.574,2.107-0.574,2.107l1.288-2.107c0.369-0.251,1.021,0.52,1.021,0.52
			l-1.021,2.075c0,0,1.073-1.151,1.634-1.427c0.562-0.276,1.836,0.861,1.122,1.427c-0.713,0.566-1.632,1.297-1.632,1.297
			s1.676-0.412,2.373-0.664c0.536-0.195,1.494,1.069,0.893,1.442c-0.673,0.42-2.144,1.427-2.144,1.427s3.189,0,3.674,0
			s1.124,1.557,0,1.557C54.666,469.066,33.229,469.066,33.229,469.066z"/>
	</g>
</g>
<g>
	<g>
		<path fill="#327774" d="M685.504,443.451c0,0-5.514-0.259-8.575,0.649c-3.062,0.907-2.96,2.464-2.96,2.464l-1.634-1.573
			c0,0-1.326,1.185-1.939,1.573c-0.612,0.39-1.021,1.557-1.021,1.557l-0.816-0.649c0,0-3.676,2.726-4.39,3.892
			c-0.715,1.168-0.307,5.838,0.815,7.653c1.124,1.817-2.448-3.113-2.448-4.929s-1.226,2.206,0,4.021
			c1.225,1.816,1.225,1.816,1.225,1.816l-2.552-2.984c0,0-0.511,1.816-0.715,2.334c-0.203,0.52,1.225,1.559,2.348,2.077
			s-2.961-1.039-2.961-1.039s-1.429,1.299-1.734,3.893c-0.307,2.593-0.716,3.243-0.716,3.243l4.492,3.113l-4.492-1.816
			c0,0-0.917,1.946-0.917,4.28l3.878,3.372l-4.899-1.426l-0.613,1.426c0,0,2.246,0.52,2.349,1.038c0.101,0.521-2.349,0-2.349,0
			v1.945h3.166c0,0,0.407,0.778-0.308,1.038c-0.716,0.26-3.675,0-3.675,0s-0.715,4.54,0,4.67l31.441-0.116V443.451z"/>
		<path fill="#255E6B" d="M685.504,483.714v-14.657c0,0-2.553-0.908-4.287,0c-1.735,0.906-3.523,2.399-3.523,2.399l0.154,3.309
			l-0.248,0.314c0,0-0.211-2.553-0.633-3.137c-0.42-0.584-1.531,0.716-1.531,0.716l0.84,3.054l-1.567-2.797
			c-1.8-0.098-2.845,1.743-2.946,1.752c-0.102,0.006,0.982,3.079,0.982,3.079s-1.467-2.121-1.838-2.6
			c-0.371-0.479-1.399,0.522-1.328,0.914c0.073,0.393,0.574,2.107,0.574,2.107l-1.287-2.107c-0.369-0.251-1.021,0.52-1.021,0.52
			l1.021,2.075c0,0-1.072-1.151-1.634-1.427c-0.562-0.276-1.837,0.861-1.123,1.427c0.714,0.566,1.634,1.297,1.634,1.297
			s-1.677-0.412-2.374-0.664c-0.536-0.195-1.493,1.069-0.894,1.442c0.674,0.42,2.145,1.427,2.145,1.427s-3.189,0-3.676,0
			c-0.484,0-1.123,1.557,0,1.557C664.067,483.714,685.504,483.714,685.504,483.714z"/>
	</g>
	<g>
		<path fill="#327774" d="M685.504,443.451c0,0,5.512-0.259,8.574,0.649c3.062,0.907,2.961,2.464,2.961,2.464l1.633-1.573
			c0,0,1.326,1.185,1.939,1.573c0.613,0.39,1.02,1.557,1.02,1.557l0.817-0.649c0,0,3.675,2.726,4.39,3.892
			c0.715,1.168,0.307,5.838-0.816,7.653c-1.123,1.817,2.449-3.113,2.449-4.929s1.227,2.206,0,4.021
			c-1.224,1.816-1.224,1.816-1.224,1.816l2.552-2.984c0,0,0.51,1.816,0.715,2.334c0.203,0.52-1.227,1.559-2.348,2.077
			c-1.124,0.519,2.959-1.039,2.959-1.039s1.43,1.299,1.736,3.893c0.306,2.593,0.715,3.243,0.715,3.243l-4.492,3.113l4.492-1.816
			c0,0,0.918,1.946,0.918,4.28l-3.879,3.372l4.9-1.426l0.612,1.426c0,0-2.245,0.52-2.349,1.038c-0.102,0.521,2.349,0,2.349,0v1.945
			h-3.165c0,0-0.408,0.778,0.307,1.038s3.676,0,3.676,0s0.714,4.54,0,4.67l-31.441-0.116V443.451z"/>
		<path fill="#255E6B" d="M685.504,483.714v-14.657c0,0,2.551-0.908,4.287,0c1.734,0.906,3.521,2.399,3.521,2.399l-0.153,3.309
			l0.249,0.314c0,0,0.211-2.553,0.632-3.137s1.53,0.716,1.53,0.716l-0.84,3.054l1.568-2.797c1.799-0.098,2.844,1.743,2.947,1.752
			c0.102,0.006-0.982,3.079-0.982,3.079s1.467-2.121,1.838-2.6c0.369-0.479,1.398,0.522,1.326,0.914
			c-0.072,0.393-0.574,2.107-0.574,2.107l1.289-2.107c0.368-0.251,1.021,0.52,1.021,0.52l-1.021,2.075c0,0,1.072-1.151,1.633-1.427
			c0.562-0.276,1.836,0.861,1.123,1.427c-0.713,0.566-1.633,1.297-1.633,1.297s1.676-0.412,2.373-0.664
			c0.535-0.195,1.494,1.069,0.893,1.442c-0.673,0.42-2.143,1.427-2.143,1.427s3.188,0,3.674,0s1.123,1.557,0,1.557
			C706.94,483.714,685.504,483.714,685.504,483.714z"/>
	</g>
</g>
<g>
	<g>
		<path fill="#327774" d="M617.579,451.48c0,0-6.921-0.325-10.763,0.815c-3.844,1.139-3.715,3.092-3.715,3.092l-2.051-1.975
			c0,0-1.664,1.487-2.435,1.975c-0.769,0.489-1.28,1.954-1.28,1.954l-1.025-0.815c0,0-4.613,3.421-5.509,4.885
			c-0.897,1.466-0.385,7.327,1.023,9.605c1.411,2.28-3.073-3.907-3.073-6.187c0-2.278-1.538,2.77,0,5.048
			c1.537,2.279,1.537,2.279,1.537,2.279l-3.202-3.745c0,0-0.642,2.279-0.897,2.929c-0.255,0.652,1.537,1.956,2.946,2.607
			c1.41,0.65-3.716-1.305-3.716-1.305s-1.793,1.631-2.177,4.886c-0.385,3.254-0.898,4.07-0.898,4.07l5.638,3.908l-5.638-2.28
			c0,0-1.151,2.442-1.151,5.372l4.867,4.232l-6.148-1.79l-0.771,1.79c0,0,2.819,0.652,2.948,1.303c0.126,0.653-2.948,0-2.948,0
			v2.441h3.974c0,0,0.512,0.977-0.386,1.303c-0.898,0.326-4.612,0-4.612,0s-0.897,5.698,0,5.861l39.462-0.146V451.48z"/>
		<path fill="#255E6B" d="M617.579,502.014v-18.396c0,0-3.204-1.14-5.381,0c-2.178,1.138-4.423,3.012-4.423,3.012l0.194,4.152
			l-0.312,0.395c0,0-0.265-3.204-0.794-3.937c-0.527-0.733-1.922,0.898-1.922,0.898l1.054,3.833l-1.967-3.511
			c-2.259-0.123-3.57,2.188-3.698,2.199c-0.127,0.007,1.233,3.864,1.233,3.864s-1.841-2.662-2.307-3.263
			c-0.466-0.602-1.757,0.655-1.667,1.147c0.092,0.492,0.721,2.645,0.721,2.645l-1.615-2.645c-0.464-0.315-1.281,0.651-1.281,0.651
			l1.281,2.604c0,0-1.347-1.444-2.051-1.79c-0.705-0.348-2.306,1.081-1.409,1.79c0.896,0.711,2.05,1.628,2.05,1.628
			s-2.104-0.518-2.979-0.833c-0.673-0.245-1.874,1.342-1.121,1.81c0.846,0.527,2.691,1.791,2.691,1.791s-4.003,0-4.613,0
			c-0.608,0-1.41,1.954,0,1.954S617.579,502.014,617.579,502.014z"/>
	</g>
	<g>
		<path fill="#327774" d="M617.579,451.48c0,0,6.917-0.325,10.761,0.815c3.844,1.139,3.717,3.092,3.717,3.092l2.049-1.975
			c0,0,1.664,1.487,2.435,1.975c0.77,0.489,1.279,1.954,1.279,1.954l1.026-0.815c0,0,4.611,3.421,5.509,4.885
			c0.897,1.466,0.385,7.327-1.024,9.605c-1.41,2.28,3.074-3.907,3.074-6.187c0-2.278,1.539,2.77,0,5.048
			c-1.536,2.279-1.536,2.279-1.536,2.279l3.202-3.745c0,0,0.641,2.279,0.897,2.929c0.255,0.652-1.539,1.956-2.946,2.607
			c-1.411,0.65,3.714-1.305,3.714-1.305s1.794,1.631,2.179,4.886c0.384,3.254,0.897,4.07,0.897,4.07l-5.638,3.908l5.638-2.28
			c0,0,1.152,2.442,1.152,5.372l-4.868,4.232l6.15-1.79l0.769,1.79c0,0-2.818,0.652-2.948,1.303c-0.127,0.653,2.948,0,2.948,0v2.441
			h-3.973c0,0-0.513,0.977,0.385,1.303s4.613,0,4.613,0s0.896,5.698,0,5.861l-39.461-0.146V451.48z"/>
		<path fill="#255E6B" d="M617.579,502.014v-18.396c0,0,3.201-1.14,5.38,0c2.178,1.138,4.42,3.012,4.42,3.012l-0.192,4.152
			l0.312,0.395c0,0,0.265-3.204,0.793-3.937c0.528-0.733,1.921,0.898,1.921,0.898l-1.054,3.833l1.968-3.511
			c2.258-0.123,3.569,2.188,3.699,2.199c0.128,0.007-1.232,3.864-1.232,3.864s1.841-2.662,2.307-3.263
			c0.463-0.602,1.755,0.655,1.664,1.147s-0.721,2.645-0.721,2.645l1.618-2.645c0.462-0.315,1.28,0.651,1.28,0.651l-1.28,2.604
			c0,0,1.346-1.444,2.049-1.79c0.706-0.348,2.305,1.081,1.409,1.79c-0.895,0.711-2.049,1.628-2.049,1.628s2.104-0.518,2.979-0.833
			c0.672-0.245,1.875,1.342,1.12,1.81c-0.845,0.527-2.689,1.791-2.689,1.791s4.002,0,4.611,0s1.409,1.954,0,1.954
			C644.483,502.014,617.579,502.014,617.579,502.014z"/>
	</g>
</g>
<g>
	<polygon fill="#56304B" points="129.751,0 120.815,0 120.815,503.999 138.605,503.999 141.498,503.999 141.498,0 	"/>
	<rect x="120.175" fill="#381931" width="6.996" height="503.999"/>
	<rect x="129.961" fill="#2C0F24" width="2.085" height="502.472"/>
	<rect x="135.311" fill="#9B2C40" width="1.152" height="502.472"/>
	<polygon fill="#381931" points="126.835,424.508 130.984,438.658 135.886,473.177 141.498,482.799 141.498,503.999 
		127.171,503.999 	"/>
	<polygon fill="#381931" points="123.362,44.155 112.819,36.264 58.952,0 50.551,0 73.958,18.106 112.819,48.164 123.362,79.328 	
		"/>
	<polygon fill="#381931" points="48.235,12.466 48.235,18.699 83.623,24.696 74.953,15.521 	"/>
	<polygon fill="#9B2C40" points="141.498,39.664 163.407,0 167.525,0 141.498,53.64 	"/>
</g>
<g opacity="0.9">
	<polygon fill="#56304B" points="30.409,0 30.409,470.885 46.06,470.885 48.604,470.885 48.604,0 	"/>
	<rect x="29.846" fill="#381931" width="6.155" height="470.885"/>
	<rect x="38.455" fill="#2C0F24" width="1.835" height="469.357"/>
	<rect x="43.161" fill="#9B2C40" width="1.013" height="469.357"/>
	<polygon fill="#381931" points="35.705,391.393 39.355,405.543 43.667,440.062 48.604,449.684 48.604,470.885 36.001,470.885 	"/>
	<polygon fill="#381931" points="19.26,0 6.259,0 23.375,15.048 32.649,46.212 32.649,11.04 23.375,3.149 	"/>
</g>
<g opacity="0.8">
	<polygon fill="#56304B" points="676.482,-0.062 676.482,482.793 678.456,483.233 690.592,483.233 690.592,-0.062 	"/>
	<rect x="686.256" y="-0.062" fill="#381931" width="4.772" height="483.296"/>
	<rect x="682.93" y="-0.062" fill="#2C0F24" width="1.423" height="481.769"/>
	<rect x="679.917" y="-0.062" fill="#9B2C40" width="0.786" height="481.769"/>
	<polygon fill="#381931" points="686.485,403.741 683.654,417.892 680.311,452.411 676.482,462.032 677,482.793 686.256,483.233 	
		"/>
	<polygon fill="#381931" points="711.75,0 696.047,15.497 688.854,23.388 688.854,58.561 696.047,27.396 720,0 	"/>
</g>
<g>
	<path fill="#DEB99E" d="M457.755,181c0,0,2.294,1.095,2.671,0.895c0.379-0.201-0.604-1.539,0.16-2.737
		C461.483,177.74,457.755,181,457.755,181z"/>
	<path fill="#DEB99E" d="M467.345,177.058c-1.04-0.819-4.912-0.122-7.36,2.721c-2.447,2.841,1.272-4.434,4.984-4.91
		c3.71-0.476,2.575,2.096,2.575,2.096L467.345,177.058z"/>
	<path fill="#DEB99E" d="M448.993,184.578c0,0,6-4.414,8.762-3.578c1.112,0.336,2.089-0.409,1.455-0.727
		c-1.051-0.525-3.83-1.234-5.761-0.351C451.638,180.751,449.383,183.313,448.993,184.578z"/>
</g>
<g>
	<path fill="#DEB99E" d="M481.533,185.884c0,0,2.294,1.095,2.671,0.895c0.379-0.201-0.604-1.539,0.16-2.737
		C485.262,182.624,481.533,185.884,481.533,185.884z"/>
	<path fill="#DEB99E" d="M491.123,181.941c-1.04-0.819-4.912-0.122-7.36,2.721c-2.447,2.841,1.272-4.434,4.984-4.91
		c3.71-0.476,2.575,2.096,2.575,2.096L491.123,181.941z"/>
	<path fill="#DEB99E" d="M472.771,189.461c0,0,6-4.414,8.762-3.578c1.112,0.336,2.089-0.409,1.455-0.727
		c-1.051-0.525-3.83-1.234-5.761-0.351C475.416,185.635,473.161,188.197,472.771,189.461z"/>
</g>
<g>
	<path fill="#DEB99E" d="M455.468,99.058c0,0,1.251,0.598,1.457,0.488c0.207-0.11-0.329-0.84,0.087-1.493
		C457.502,97.28,455.468,99.058,455.468,99.058z"/>
	<path fill="#DEB99E" d="M460.699,96.907c-0.567-0.447-2.68-0.066-4.016,1.484c-1.334,1.55,0.694-2.418,2.72-2.678
		c2.023-0.259,1.404,1.144,1.404,1.144L460.699,96.907z"/>
	<path fill="#DEB99E" d="M450.688,101.009c0,0,3.273-2.408,4.779-1.952c0.606,0.184,1.14-0.223,0.794-0.396
		c-0.573-0.287-2.089-0.673-3.143-0.191C452.131,98.922,450.901,100.32,450.688,101.009z"/>
</g>
<g>
	<path fill="#DEB99E" d="M107.562,174.284c0,0,1.251,0.598,1.457,0.488c0.207-0.11-0.329-0.84,0.087-1.493
		C109.597,172.506,107.562,174.284,107.562,174.284z"/>
	<path fill="#DEB99E" d="M112.794,172.134c-0.567-0.447-2.68-0.066-4.016,1.484c-1.334,1.55,0.694-2.418,2.72-2.678
		c2.023-0.259,1.404,1.144,1.404,1.144L112.794,172.134z"/>
	<path fill="#DEB99E" d="M102.783,176.236c0,0,3.273-2.408,4.779-1.952c0.606,0.184,1.14-0.223,0.794-0.396
		c-0.573-0.287-2.089-0.673-3.143-0.191C104.226,174.148,102.996,175.546,102.783,176.236z"/>
</g>
<g>
	<path fill="#DEB99E" d="M103.461,155.201c0,0,1.251,0.598,1.457,0.488c0.207-0.11-0.329-0.84,0.087-1.493
		C105.495,153.423,103.461,155.201,103.461,155.201z"/>
	<path fill="#DEB99E" d="M108.692,153.051c-0.567-0.447-2.68-0.066-4.016,1.484c-1.334,1.55,0.694-2.418,2.72-2.678
		c2.023-0.259,1.404,1.144,1.404,1.144L108.692,153.051z"/>
	<path fill="#DEB99E" d="M98.682,157.153c0,0,3.273-2.408,4.779-1.952c0.606,0.184,1.14-0.223,0.794-0.396
		c-0.573-0.287-2.089-0.673-3.143-0.191C100.124,155.065,98.895,156.463,98.682,157.153z"/>
</g>
<g>
	<path fill="#DEB99E" d="M453.205,80.04c0,0,1.251,0.598,1.457,0.488c0.207-0.11-0.329-0.84,0.087-1.493
		C455.239,78.262,453.205,80.04,453.205,80.04z"/>
	<path fill="#DEB99E" d="M458.437,77.89c-0.567-0.447-2.68-0.066-4.016,1.484c-1.334,1.55,0.694-2.418,2.72-2.678
		c2.023-0.259,1.404,1.144,1.404,1.144L458.437,77.89z"/>
	<path fill="#DEB99E" d="M448.426,81.992c0,0,3.273-2.408,4.779-1.952c0.606,0.184,1.14-0.223,0.794-0.396
		c-0.573-0.287-2.089-0.673-3.143-0.191C449.868,79.904,448.639,81.302,448.426,81.992z"/>
</g>
<path opacity="0.2" fill="#F8F9ED" d="M718.725,29.188L61.899,503.725c0,0,88.839,0.316,157.839,0.316
	c1.609,0,499.887-426.118,499.887-426.118L718.725,29.188z"/>
<polygon opacity="0.2" fill="#F8F9ED" points="563.656,-0.5 -0.02,251.5 0.125,384.746 597.125,-0.5 "/>
<path opacity="0.1" fill="#F8F9ED" d="M653.958,1.271c-0.898,0-653.697,401.75-653.697,401.75v100.722h22.864L719.074,13.606V1.271
	H653.958z"/>
<polygon opacity="0.1" fill="#F8F9ED" points="270.523,503.743 430.846,503.999 720.125,190.461 720.125,125.835 "/>
<g>
	<path fill="#9B2C40" d="M88.609,33.787c-3.57-1.15-5.265,4.295-4.838,6.838c0.285,1.698,0.6,6.096,0.667,7.073l4.459-13.788
		C88.798,33.87,88.715,33.82,88.609,33.787z"/>
	<path fill="#8E283E" d="M89.202,33.979c3.567,1.158,1.752,6.564-0.083,8.376c-1.225,1.21-4.055,4.591-4.682,5.343l4.459-13.788
		C89,33.935,89.096,33.944,89.202,33.979z"/>
</g>
<g>
	<path fill="#9B2C40" d="M63.981,22.421c-2.727-2.575-6.602,1.609-7.312,4.087c-0.474,1.655-2.084,5.76-2.444,6.671l9.963-10.523
		C64.117,22.578,64.063,22.498,63.981,22.421z"/>
	<path fill="#8E283E" d="M64.434,22.85c2.721,2.582-1.246,6.679-3.682,7.524c-1.626,0.564-5.637,2.396-6.527,2.806l9.963-10.523
		C64.27,22.723,64.353,22.773,64.434,22.85z"/>
</g>
<g>
	<path fill="#9B2C40" d="M87.155,16.322c0,0-3.253-1.335-2.73-3.761c0.522-2.426,3.607-9.509,3.607-9.509L87.155,16.322z"/>
	<path fill="#8E283E" d="M87.179,16.269c0,0,3.399-0.9,3.197-3.373C90.172,10.422,88.038,3,88.038,3L87.179,16.269z"/>
</g>
<g>
	<path fill="#9B2C40" d="M150.965,17.608c0,0-3.513,0.15-4.055-2.272c-0.542-2.421-0.707-10.146-0.707-10.146L150.965,17.608z"/>
	<path fill="#8E283E" d="M150.964,17.55c0,0,2.71-2.241,1.49-4.402c-1.221-2.162-6.267-8.008-6.267-8.008L150.964,17.55z"/>
</g>
<g>
	<path fill="#9B2C40" d="M19.545,14.685c0,0,1.169,3.316-0.989,4.542c-2.158,1.225-9.497,3.638-9.497,3.638L19.545,14.685z"/>
	<path fill="#8E283E" d="M19.49,14.703c0,0-2.935-1.938-4.645-0.14c-1.711,1.799-5.829,8.333-5.829,8.333L19.49,14.703z"/>
</g>
<g>
	<path fill="#9B2C40" d="M159.453,21.242c0,0,1.988-1.34,3.167-0.125c1.178,1.215,4.028,5.646,4.028,5.646L159.453,21.242z"/>
	<path fill="#8E283E" d="M159.474,21.276c0,0-0.776,2.268,0.704,3.089s6.499,2.419,6.499,2.419L159.474,21.276z"/>
</g>
<g>
	<path fill="#C36858" d="M86.302,29.783c-0.007-0.096-1.981-3.206-4.604-2.179c-2.625,1.028-8.77,5.483-8.77,5.483L86.302,29.783z"
		/>
	<path fill="#B25B4F" d="M86.299,29.773c0.039,0.087-0.257,3.761-3.058,4.074c-2.8,0.315-10.313-0.759-10.313-0.759L86.299,29.773z"
		/>
</g>
<g>
	<path fill="#C36858" d="M91.119,17.553c0.027,0.059,2.012,1.555,3.425,0.284c1.414-1.272,4.239-5.543,4.239-5.543L91.119,17.553z"
		/>
	<path fill="#B25B4F" d="M91.124,17.559c-0.045-0.046-0.73-2.437,0.965-3.298c1.694-0.863,6.694-1.967,6.694-1.967L91.124,17.559z"
		/>
</g>
<g>
	<path fill="#C36858" d="M13.641,10.637c0.017-0.062-0.535-2.486-2.435-2.426C9.305,8.272,4.392,9.716,4.392,9.716L13.641,10.637z"
		/>
	<path fill="#B25B4F" d="M13.641,10.63c0.005,0.064-1.013,2.333-2.864,1.899c-1.851-0.432-6.385-2.813-6.385-2.813L13.641,10.63z"/>
</g>
<g>
	<path fill="#C36858" d="M161.491,17.783c0.03,0.091,2.703,2.626,4.997,0.991c2.295-1.637,7.169-7.456,7.169-7.456L161.491,17.783z"
		/>
	<path fill="#B25B4F" d="M161.496,17.792c-0.059-0.075-0.667-3.71,1.973-4.696c2.639-0.988,10.188-1.778,10.188-1.778
		L161.496,17.792z"/>
</g>
<g>
	<g>
		<polygon fill="#56304B" points="640.557,0 648.968,0 648.968,503.999 632.223,503.999 629.5,503.999 629.5,0 		"/>
		<rect x="642.984" fill="#381931" width="6.585" height="503.999"/>
		<rect x="638.396" fill="#2C0F24" width="1.964" height="502.472"/>
		<rect x="634.239" fill="#9B2C40" width="1.085" height="502.472"/>
		<polygon fill="#381931" points="643.302,424.508 639.396,438.658 634.781,473.177 629.5,482.799 629.5,503.999 642.984,503.999 		
			"/>
		<polygon fill="#381931" points="646.571,44.155 656.495,36.264 707.198,0 715.105,0 693.072,18.106 656.495,48.164 
			646.571,79.328 		"/>
		<polygon fill="#381931" points="717.285,12.466 692.137,15.521 683.976,24.696 717.285,18.699 720,15.513 720,9.526 		"/>
		<polygon fill="#9B2C40" points="629.5,39.664 608.877,0 605.001,0 629.5,53.64 		"/>
	</g>
	<g>
		<path fill="#9B2C40" d="M682.652,14.514c0,0-2.956-1.905-2-4.195c0.954-2.291,5.278-8.693,5.278-8.693L682.652,14.514z"/>
		<path fill="#8E283E" d="M682.685,14.466c0,0,3.507-0.266,3.758-2.735c0.25-2.47-0.496-10.156-0.496-10.156L682.685,14.466z"/>
	</g>
	<g>
		<path fill="#9B2C40" d="M617.311,32.808c0,0,0.441,2.356-1.141,2.957c-1.583,0.601-6.78,1.46-6.78,1.46L617.311,32.808z"/>
		<path fill="#8E283E" d="M617.271,32.814c0,0-1.774-1.612-3.115-0.579c-1.341,1.033-4.798,5.007-4.798,5.007L617.271,32.814z"/>
	</g>
	<g>
		<path fill="#9B2C40" d="M684.934,26.092c0,0,2.122-1.116,3.161,0.22c1.041,1.335,3.392,6.05,3.392,6.05L684.934,26.092z"/>
		<path fill="#8E283E" d="M684.951,26.129c0,0-1.019,2.171,0.362,3.148c1.383,0.977,6.198,3.111,6.198,3.111L684.951,26.129z"/>
	</g>
	<g>
		<path fill="#9B2C40" d="M617.205,11.156c0,0-2.061-1.107-1.572-2.722c0.488-1.617,2.941-6.237,2.941-6.237L617.205,11.156z"/>
		<path fill="#8E283E" d="M617.226,11.121c0,0,2.29-0.402,2.306-2.094c0.014-1.693-0.949-6.865-0.949-6.865L617.226,11.121z"/>
	</g>
	<g>
		<path fill="#B25B4F" d="M609.669,14.125c0,0-1.501,1.794-2.983,0.989c-1.484-0.805-5.513-4.143-5.513-4.143L609.669,14.125z"/>
		<path fill="#C36858" d="M609.64,14.098c0,0,0.069-2.324-1.585-2.682c-1.654-0.356-6.914-0.459-6.914-0.459L609.64,14.098z"/>
	</g>
	<g>
		<path fill="#C36858" d="M615.754,29.445c0.051-0.082,0.241-3.761-2.491-4.442c-2.735-0.682-10.325-0.608-10.325-0.608
			L615.754,29.445z"/>
		<path fill="#B25B4F" d="M615.759,29.436c-0.02,0.093-2.389,2.917-4.854,1.551c-2.464-1.365-7.968-6.592-7.968-6.592
			L615.759,29.436z"/>
	</g>
	<g>
		<path fill="#C36858" d="M679.193,15.959c0.04-0.064,0.19-2.967-1.966-3.505c-2.158-0.538-8.146-0.48-8.146-0.48L679.193,15.959z"
			/>
		<path fill="#B25B4F" d="M679.197,15.952c-0.016,0.074-1.885,2.302-3.829,1.224c-1.944-1.077-6.287-5.201-6.287-5.201
			L679.197,15.952z"/>
	</g>
	<g>
		<path fill="#C36858" d="M620.865,17.658c0.07,0.029,2.959-0.291,3.142-2.506c0.182-2.217-0.842-8.117-0.842-8.117L620.865,17.658z
			"/>
		<path fill="#B25B4F" d="M620.874,17.661c-0.076-0.004-2.577-1.488-1.827-3.582c0.75-2.093,4.118-7.044,4.118-7.044L620.874,17.661
			z"/>
	</g>
	<g>
		<path fill="#C36858" d="M670.216,38.187c-0.029,0.07,0.289,2.959,2.504,3.143c2.217,0.184,8.118-0.836,8.118-0.836L670.216,38.187
			z"/>
		<path fill="#B25B4F" d="M670.213,38.195c0.005-0.076,1.49-2.576,3.583-1.825c2.093,0.751,7.042,4.123,7.042,4.123L670.213,38.195z
			"/>
	</g>
</g>
<path fill="#407A87" d="M118.361,468.307c-1.586-4.753-3.177-21.781-3.177-21.781c-1.027,7.017-1.571,11.215,2.505,23.607
	c3.652,11.104,13.273,28.523,16.147,33.617h0.017C126.102,489.662,119.691,472.29,118.361,468.307z"/>
<g>
	<path fill="#407A87" d="M166.304,468.796l-26.927,34.954h3.874c2.002-1.591,3.997-3.268,5.582-4.794
		C153.379,494.574,166.304,478.531,166.304,468.796z"/>
	<path fill="#2B6878" d="M141.595,493.372c-1.664,2.973-3.427,6.987-4.818,10.378h2.567l26.991-34.931
		C156.918,471.29,144.679,487.862,141.595,493.372z"/>
</g>
<g>
	<path fill="#407A87" d="M137.707,499.517c0.27-6.001-2.333-18.834-10.833-21.667l7.439,25.9h2.896
		C137.447,502.424,137.642,500.969,137.707,499.517z"/>
	<path fill="#2B6878" d="M127.233,477.842c-5.765,6.858-1.273,19.158,2.095,24.133c0.415,0.612,0.859,1.205,1.312,1.775h3.777
		L127.233,477.842z"/>
</g>
<path fill="#407A87" d="M139.113,502.995c-0.125,0.399,6.503-21.347,12.441-32.165c5.559-10.125,8.604-12.31,13.767-15.884
	c0,0-10.061,11.317-12.178,15.215C151.307,473.542,143.481,489.096,139.113,502.995z"/>
<path fill="#407A87" d="M131.855,503.61c0,0-1.916-3.148-2.988-4.801c-2.055-3.167-8.639-7.862-11.605-9.205
	c-1.675-0.759,8.016,5.105,10.002,8.622c2.316,4.102,3.069,5.517,3.069,5.517L131.855,503.61z"/>
<path fill="#407A87" d="M144.406,485.813c0.884-9.125,0.931-16.365,0.5-14.125c-0.625,3.25-0.625,10.793-2.375,16.918
	c-1.219,4.266-4.448,11.524-6.108,15.144h1.62C139.998,499.861,143.845,491.605,144.406,485.813z"/>
<g>
	<path fill="#407A87" d="M126.132,498.121c-2.663-2.421-7.205-3.305-8.409-1.554l8.368,7.183h4.279
		C129.118,501.736,127.501,499.365,126.132,498.121z"/>
	<path fill="#2B6878" d="M117.789,496.491c-1.372,1.309-0.248,4.904,2.008,7.259h6.577L117.789,496.491z"/>
</g>
<g>
	<path fill="#407A87" d="M29.902,468.949c-5.183,1.955,5.099,4.108,5.848,5.22s6.049,1.257,7.38,0.749
		c5.443-2.076,5.589-3.139,6.339-4.639s-9.407-3.01-10.128-2.375S32.962,467.795,29.902,468.949z"/>
	<g>
		<path fill="#407A87" d="M40.809,474.987c0,0,7.608-5.258,11.739-9.238c3.646-3.514,14.014-16.383,14.014-24.19L40.809,474.987z"/>
		<path fill="#2B6878" d="M40.784,474.969c0,0,3.157-8.693,5.958-13.699c2.474-4.419,12.291-17.711,19.843-19.692L40.784,474.969z"
			/>
	</g>
	<g>
		<path fill="#407A87" d="M36.325,473.165c0,0-1.951-6.648-3.811-10.522c-1.642-3.42-8.357-13.821-13.911-15.658L36.325,473.165z"/>
		<path fill="#2B6878" d="M36.306,473.179c0,0-5.442-4.29-8.343-7.46c-2.562-2.8-9.707-12.909-9.341-18.748L36.306,473.179z"/>
	</g>
	<g>
		<path fill="#407A87" d="M37.971,474.918c0,0,2.59-3.063,4.53-6.428c2.423-4.202,6.177-13.955,3.449-18.027L37.971,474.918z"/>
		<path fill="#2B6878" d="M37.974,474.987c0,0-0.495-3.294-0.177-6.778c0.396-4.354,3.099-14.186,8.318-17.665L37.974,474.987z"/>
	</g>
	<path fill="#407A87" d="M42.007,473.961c-0.112,0.356,5.796-19.025,11.088-28.667c4.954-9.024,7.668-10.971,12.27-14.156
		c0,0-8.967,10.087-10.854,13.561C52.874,447.711,45.9,461.574,42.007,473.961z"/>
	<path fill="#407A87" d="M35.97,472.589c0,0-2.819-2.374-4.362-3.599c-2.957-2.347-10.693-4.7-13.933-5.027
		c-1.83-0.186,9.225,2.285,12.228,4.986c3.502,3.149,4.667,4.251,4.667,4.251L35.97,472.589z"/>
	<path fill="#407A87" d="M36.167,473.2c0,0-2.192-12.522-4.212-18.26c-2.115-6.009-6.477-12.162-7.847-15.175
		c-0.944-2.076,3.205,3.857,7.762,11.812c3.903,6.812,5.521,20.755,5.521,20.755L36.167,473.2z"/>
</g>
<g>
	<g>
		<path fill="#407A87" d="M219.779,501.595c0,0,5.394-3.729,8.323-6.551c2.585-2.491,9.937-11.616,9.937-17.151L219.779,501.595z"/>
		<path fill="#2B6878" d="M219.761,501.582c0,0,2.238-6.165,4.225-9.714c1.754-3.134,8.714-12.558,14.07-13.963L219.761,501.582z"/>
	</g>
	<g>
		<path fill="#407A87" d="M216.599,500.303c0,0-1.383-4.714-2.702-7.462c-1.164-2.425-5.925-9.8-9.864-11.103L216.599,500.303z"/>
		<path fill="#2B6878" d="M216.586,500.312c0,0-3.859-3.042-5.917-5.289c-1.816-1.985-6.883-9.154-6.623-13.294L216.586,500.312z"/>
	</g>
	<g>
		<path fill="#407A87" d="M217.766,501.545c0,0,1.836-2.172,3.212-4.557c1.718-2.98,4.38-9.896,2.445-12.783L217.766,501.545z"/>
		<path fill="#2B6878" d="M217.769,501.595c0,0-0.351-2.335-0.125-4.807c0.281-3.087,2.197-10.059,5.897-12.525L217.769,501.595z"/>
	</g>
	<path fill="#407A87" d="M220.628,500.866c-0.08,0.253,4.109-13.489,7.862-20.326c3.513-6.398,5.438-7.778,8.7-10.037
		c0,0-6.358,7.152-7.696,9.615C228.333,482.254,223.388,492.084,220.628,500.866z"/>
	<path fill="#407A87" d="M216.348,499.895c0,0-1.999-1.684-3.093-2.553c-2.096-1.663-7.582-3.332-9.879-3.563
		c-1.297-0.133,6.541,1.62,8.67,3.535c2.483,2.233,3.31,3.015,3.31,3.015L216.348,499.895z"/>
	<path fill="#407A87" d="M216.487,500.328c0,0-1.555-8.88-2.986-12.948c-1.5-4.261-4.592-8.623-5.564-10.759
		c-0.669-1.473,2.273,2.734,5.504,8.375c2.767,4.831,3.915,14.717,3.915,14.717L216.487,500.328z"/>
</g>
<g>
	<g>
		<path fill="#407A87" d="M427.634,488.367c0,0,3.955-2.734,6.104-4.804c1.896-1.828,7.288-8.521,7.288-12.58L427.634,488.367z"/>
		<path fill="#2B6878" d="M427.621,488.357c0,0,1.641-4.521,3.099-7.123c1.286-2.299,6.39-9.211,10.318-10.241L427.621,488.357z"/>
	</g>
	<g>
		<path fill="#407A87" d="M425.302,487.419c0,0-1.015-3.456-1.981-5.472c-0.854-1.779-4.347-7.188-7.234-8.143L425.302,487.419z"/>
		<path fill="#2B6878" d="M425.292,487.426c0,0-2.83-2.23-4.34-3.878c-1.33-1.457-5.047-6.715-4.855-9.749L425.292,487.426z"/>
	</g>
	<g>
		<path fill="#407A87" d="M426.158,488.332c0,0,1.346-1.594,2.355-3.343c1.259-2.188,3.211-7.258,1.793-9.376L426.158,488.332z"/>
		<path fill="#2B6878" d="M426.159,488.367c0,0-0.258-1.713-0.093-3.525c0.207-2.264,1.612-7.377,4.326-9.186L426.159,488.367z"/>
	</g>
	<path fill="#407A87" d="M428.257,487.833c-0.06,0.186,3.013-9.894,5.767-14.908c2.575-4.692,3.987-5.704,6.379-7.36
		c0,0-4.663,5.246-5.643,7.052C433.907,474.183,430.28,481.392,428.257,487.833z"/>
	<path fill="#407A87" d="M425.117,487.12c0,0-1.467-1.233-2.269-1.873c-1.538-1.22-5.561-2.442-7.246-2.612
		c-0.95-0.098,4.798,1.188,6.359,2.593c1.82,1.638,2.427,2.21,2.427,2.21L425.117,487.12z"/>
	<path fill="#407A87" d="M425.219,487.438c0,0-1.141-6.512-2.19-9.495c-1.099-3.126-3.367-6.324-4.079-7.892
		c-0.491-1.08,1.666,2.007,4.035,6.144c2.029,3.543,2.872,10.793,2.872,10.793L425.219,487.438z"/>
</g>
<g>
	<g>
		<path fill="#407A87" d="M581.837,442.596c0,0,2.251-1.557,3.474-2.734c1.08-1.04,4.147-4.849,4.147-7.159L581.837,442.596z"/>
		<path fill="#2B6878" d="M581.83,442.59c0,0,0.934-2.572,1.764-4.054c0.731-1.308,3.637-5.242,5.872-5.828L581.83,442.59z"/>
	</g>
	<g>
		<path fill="#407A87" d="M580.51,442.056c0,0-0.577-1.967-1.128-3.113c-0.486-1.013-2.474-4.091-4.117-4.635L580.51,442.056z"/>
		<path fill="#2B6878" d="M580.504,442.061c0,0-1.61-1.27-2.47-2.208c-0.757-0.829-2.872-3.821-2.763-5.548L580.504,442.061z"/>
	</g>
	<g>
		<path fill="#407A87" d="M580.997,442.575c0,0,0.766-0.906,1.341-1.902c0.717-1.244,1.827-4.13,1.02-5.336L580.997,442.575z"/>
		<path fill="#2B6878" d="M580.997,442.596c0,0-0.146-0.975-0.052-2.006c0.117-1.289,0.917-4.199,2.462-5.229L580.997,442.596z"/>
	</g>
	<path fill="#407A87" d="M582.191,442.291c-0.033,0.106,1.715-5.63,3.282-8.483c1.466-2.671,2.269-3.247,3.63-4.189
		c0,0-2.653,2.985-3.211,4.013C585.407,434.523,583.343,438.626,582.191,442.291z"/>
	<path fill="#407A87" d="M580.404,441.886c0,0-0.834-0.702-1.291-1.065c-0.875-0.694-3.164-1.391-4.124-1.487
		c-0.541-0.056,2.731,0.677,3.619,1.476c1.036,0.933,1.382,1.258,1.382,1.258L580.404,441.886z"/>
	<path fill="#407A87" d="M580.463,442.066c0,0-0.649-3.706-1.247-5.403c-0.625-1.779-1.916-3.6-2.321-4.491
		c-0.279-0.615,0.948,1.142,2.297,3.496c1.154,2.017,1.634,6.143,1.634,6.143L580.463,442.066z"/>
</g>
<g>
	<g>
		<path fill="#407A87" d="M452.844,456.392c0,0,2.251-1.557,3.474-2.734c1.08-1.04,4.147-4.849,4.147-7.159L452.844,456.392z"/>
		<path fill="#2B6878" d="M452.837,456.387c0,0,0.934-2.573,1.764-4.055c0.731-1.308,3.637-5.242,5.872-5.828L452.837,456.387z"/>
	</g>
	<g>
		<path fill="#407A87" d="M451.517,455.852c0,0-0.577-1.967-1.128-3.113c-0.486-1.013-2.474-4.091-4.117-4.635L451.517,455.852z"/>
		<path fill="#2B6878" d="M451.511,455.855c0,0-1.61-1.27-2.47-2.207c-0.757-0.829-2.872-3.821-2.763-5.548L451.511,455.855z"/>
	</g>
	<g>
		<path fill="#407A87" d="M452.004,456.371c0,0,0.767-0.906,1.341-1.902c0.717-1.244,1.827-4.13,1.02-5.336L452.004,456.371z"/>
		<path fill="#2B6878" d="M452.005,456.392c0,0-0.146-0.975-0.053-2.006c0.117-1.289,0.917-4.199,2.462-5.229L452.005,456.392z"/>
	</g>
	<path fill="#407A87" d="M453.198,456.088c-0.033,0.105,1.715-5.631,3.282-8.484c1.466-2.671,2.269-3.247,3.63-4.189
		c0,0-2.653,2.985-3.211,4.013C456.414,448.319,454.35,452.422,453.198,456.088z"/>
	<path fill="#407A87" d="M451.411,455.682c0,0-0.834-0.702-1.291-1.065c-0.875-0.694-3.164-1.391-4.123-1.487
		c-0.541-0.056,2.73,0.677,3.618,1.476c1.036,0.933,1.382,1.258,1.382,1.258L451.411,455.682z"/>
	<path fill="#407A87" d="M451.47,455.862c0,0-0.649-3.706-1.247-5.403c-0.625-1.779-1.916-3.6-2.321-4.491
		c-0.279-0.615,0.948,1.142,2.297,3.496c1.154,2.017,1.634,6.143,1.634,6.143L451.47,455.862z"/>
</g>
<g>
	<path fill="#407A87" d="M676.201,480.922c-4.017,1.516,2.861,2.266,4.534,4.046c0.711,0.757,4.689,0.975,5.72,0.581
		c7.608-2.903,4.931-3.843,4.914-3.596c-0.087,1.298-7.292-2.333-7.851-1.841C682.96,480.604,678.574,480.026,676.201,480.922z"/>
	<g>
		<path fill="#407A87" d="M684.657,485.602c0,0,5.896-4.074,9.099-7.16c2.826-2.725,10.862-12.699,10.862-18.752L684.657,485.602z"
			/>
		<path fill="#2B6878" d="M684.637,485.588c0,0,2.446-6.739,4.618-10.619c1.918-3.426,9.527-13.729,15.382-15.265L684.637,485.588z"
			/>
	</g>
	<g>
		<path fill="#407A87" d="M681.181,484.189c0,0-1.512-5.153-2.954-8.156c-1.273-2.651-6.479-10.714-10.782-12.138L681.181,484.189z"
			/>
		<path fill="#2B6878" d="M681.165,484.2c0,0-4.217-3.325-6.467-5.783c-1.984-2.17-7.525-10.006-7.24-14.532L681.165,484.2z"/>
	</g>
	<g>
		<path fill="#407A87" d="M682.456,485.549c0,0,2.008-2.376,3.512-4.982c1.88-3.258,4.789-10.817,2.674-13.975L682.456,485.549z"/>
		<path fill="#2B6878" d="M682.459,485.602c0,0-0.384-2.553-0.138-5.254c0.307-3.374,2.402-10.996,6.447-13.692L682.459,485.602z"/>
	</g>
	<path fill="#407A87" d="M685.585,484.806c-0.088,0.276,4.493-14.747,8.595-22.22c3.841-6.996,5.944-8.505,9.511-10.974
		c0,0-6.951,7.819-8.413,10.512C694.009,464.459,688.603,475.204,685.585,484.806z"/>
	<path fill="#407A87" d="M680.904,483.743c0,0-2.185-1.841-3.38-2.789c-2.293-1.819-8.289-3.644-10.801-3.897
		c-1.418-0.145,7.15,1.771,9.478,3.865c2.717,2.441,3.618,3.295,3.618,3.295L680.904,483.743z"/>
	<path fill="#407A87" d="M681.058,484.217c0,0-1.698-9.707-3.264-14.154c-1.64-4.657-5.021-9.428-6.083-11.763
		c-0.731-1.609,2.484,2.99,6.017,9.156c3.024,5.28,4.279,16.089,4.279,16.089L681.058,484.217z"/>
</g>
<g>
	<g>
		<path fill="#407A87" d="M660.497,485.397l-14.202,18.437h3.891C653.622,500.134,660.497,491.094,660.497,485.397z"/>
		<path fill="#2B6878" d="M660.517,485.412c-6.052,1.588-13.916,12.237-15.898,15.777c-0.443,0.791-0.896,1.699-1.34,2.645h3.004
			L660.517,485.412z"/>
	</g>
	<g>
		<path fill="#407A87" d="M633.219,502.29c-1.316-2.74-6.696-11.074-11.145-12.546l9.537,14.09h2.285
			C633.673,503.287,633.445,502.762,633.219,502.29z"/>
		<path fill="#2B6878" d="M622.089,489.733c-0.264,4.179,4.271,11.074,6.705,14.101h2.809L622.089,489.733z"/>
	</g>
	<g>
		<path fill="#407A87" d="M643.983,492.531l-3.688,11.303h2.45C644.323,500.054,645.635,494.996,643.983,492.531z"/>
		<path fill="#2B6878" d="M644.115,492.597c-3.241,2.161-5.266,7.375-6.163,11.237h2.421L644.115,492.597z"/>
	</g>
	<path fill="#407A87" d="M650.843,487.914c1.511-2.783,8.695-10.865,8.695-10.865c-3.686,2.552-5.86,4.111-9.83,11.342
		c-2.263,4.122-4.665,10.466-6.401,15.443h0.22C646.475,496.416,649.859,489.723,650.843,487.914z"/>
	<path fill="#407A87" d="M632.703,493.425c-3.651-6.373-6.975-11.127-6.219-9.464c1.098,2.413,4.593,7.344,6.287,12.158
		c0.695,1.977,1.417,4.958,2.013,7.715h1.312C635.382,500.35,634.273,496.166,632.703,493.425z"/>
</g>
</svg>
