<?xml version="1.0" encoding="utf-8"?>
<!-- Generator: Adobe Illustrator 16.0.0, SVG Export Plug-In . SVG Version: 6.00 Build 0)  -->
<!DOCTYPE svg PUBLIC "-//W3C//DTD SVG 1.1//EN" "http://www.w3.org/Graphics/SVG/1.1/DTD/svg11.dtd">
<svg version="1.1" id="Layer_1" xmlns="http://www.w3.org/2000/svg" xmlns:xlink="http://www.w3.org/1999/xlink" x="0px" y="0px"
	 width="720px" height="503.999px" viewBox="0 0 720 503.999" enable-background="new 0 0 720 503.999" xml:space="preserve">
<symbol  id="New_Symbol" viewBox="-0.763 -0.763 1.526 1.525">
	<path fill="#FFFFFF" d="M0.763,0c0-0.421-0.342-0.762-0.763-0.762S-0.763-0.421-0.763,0S-0.421,0.763,0,0.763S0.763,0.42,0.763,0z"
		/>
</symbol>
<rect fill="#DAEBE1" width="720" height="503.999"/>
<path opacity="0.6" fill="#F8F3E4" d="M497.279,253.883l114.381-1.219c0,0-11.125-2.994-16.832-4.073
	c-5.707-1.08-13.705-4.779-23.576-5.099c-9.872-0.32-30.484,0.39-33.629,2.612c-3.145,2.221-9.869,3.011-17.015,1.938
	s-18.494-2.156-22.697,0.549c-4.204,2.705-19.853,5.688-21.534,5.147C474.695,253.196,497.279,253.883,497.279,253.883z"/>
<path opacity="0.6" fill="#F8F3E4" d="M321.903,271.825l114.381-1.219c0,0-11.125-2.994-16.832-4.073
	c-5.707-1.08-13.705-4.779-23.576-5.1c-9.872-0.319-30.484,0.391-33.629,2.612s-9.869,3.011-17.015,1.938
	c-7.146-1.073-18.494-2.156-22.697,0.549c-4.204,2.705-19.853,5.688-21.534,5.147C299.319,271.139,321.903,271.825,321.903,271.825z
	"/>
<path opacity="0.6" fill="#F8F3E4" d="M60.034,261.665l114.381-1.219c0,0-11.125-2.994-16.832-4.073
	c-5.707-1.08-13.705-4.779-23.576-5.1c-9.872-0.319-30.484,0.391-33.629,2.612s-9.869,3.011-17.015,1.938
	c-7.146-1.073-18.494-2.156-22.697,0.549c-4.204,2.705-19.853,5.688-21.534,5.147C37.45,260.979,60.034,261.665,60.034,261.665z"/>
<g>
	<path fill="#E6E4D7" d="M713.006,221.614c-0.049,4.216-0.082,7.305-0.082,7.305l-104.613,0.97
		c11.865-3.593,23.652-8.551,35.809-10.522C667.385,216.222,690.65,211.555,713.006,221.614z"/>
	<path fill="#F8F3E4" d="M481.416,229.14c8.188-5.514,32.26-20.977,47.49-22.915c16.996-2.163,21.244,1.594,22.553,4.311
		c1.307,2.717,23.533-21.609,45.924-23.772c22.084-2.133,32.195,5.406,39.059,14.596c6.863,9.19,8.82-31.638,45.105-29.732
		c30.889,1.623,31.705,24.867,31.705,26.489c0,1.095-0.15,14.74-0.246,23.497c-22.355-10.059-45.621-5.392-68.887-2.248
		c-12.156,1.972-23.943,6.93-35.809,10.522l-53.154,0.493c-14.012-3.358-28.025-7.772-42.037-7.772
		C502.074,222.61,491.574,225.034,481.416,229.14z"/>
	<path fill="#E6E4D7" d="M481.416,229.14c10.158-4.106,20.658-6.53,31.703-6.53c14.012,0,28.025,4.414,42.037,7.772l-76.586,0.71
		C478.57,231.092,479.615,230.353,481.416,229.14z"/>
</g>
<g opacity="0.9">
	<polygon fill="#847777" points="567.747,308.681 451.123,248.503 444.261,250.844 439.133,248.01 363.988,309.336 405.44,323.993 
		591.192,324.324 	"/>
	<polygon fill="#B2A598" points="439.133,248.01 434.542,254.159 451.123,248.503 422.575,269.348 437.087,265.273 409.164,287.145 
		448.416,273.746 420.324,291.606 446.595,293.688 382.678,316.101 407.14,324.826 382.678,316.101 329.81,296.965 	"/>
</g>
<rect y="324" fill="#F3F6E4" width="720" height="179.999"/>
<polygon fill="#E0E6D2" points="616.626,339.416 243.449,336.335 243.449,336.335 618.118,333.6 "/>
<polygon fill="#E0E6D2" points="555.951,359.917 555.008,362.309 404.457,362.595 409.396,361.256 "/>
<polygon fill="#E0E6D2" points="630.168,394.735 256.991,388.988 256.991,388.988 631.66,383.884 "/>
<path fill="#4D5657" d="M616.653,359.83c-3.758-3.209-9.073-39.084-7.618-35.58c1.459,3.498,11.667,11.375,5.835,1.748
	c-5.835-9.625-8.749-40.541-8.749-40.541s9.04,8.166,4.373,1.459c-4.664-6.709-7.291-39.669-7.291-39.669s8.75,6.708,3.5,0
	c-5.249-6.705-10.79-65.04-10.79-65.04s-5.544,58.335-10.791,65.04c-5.253,6.708,3.497,0,3.497,0s-2.623,32.96-7.291,39.669
	c-4.664,6.707,4.377-1.459,4.377-1.459s-2.918,30.916-8.75,40.541c-5.835,9.627,4.373,1.75,5.832-1.748
	c1.459-3.504-3.86,32.371-7.618,35.58s20.744,0,20.744,0S620.411,363.039,616.653,359.83z"/>
<g>
	<g>
		<path fill="#4D5657" d="M552.438,324.033c0.658-0.311,1.59-3.77,1.336-3.433c-0.256,0.338-2.045,1.098-1.023,0.169
			c1.023-0.929,1.533-3.91,1.533-3.91s-1.584,0.788-0.766,0.141c0.817-0.647,1.277-3.825,1.277-3.825s-1.534,0.646-0.613,0
			c0.92-0.648,1.892-6.274,1.892-6.274s0.972,5.626,1.891,6.274c0.921,0.646-0.612,0-0.612,0s0.459,3.178,1.278,3.825
			c0.817,0.647-0.768-0.141-0.768-0.141s0.511,2.981,1.533,3.91c1.023,0.929-0.766,0.169-1.022-0.169
			c-0.256-0.337,0.676,3.122,1.336,3.433c0.658,0.309-3.636,0-3.636,0S551.779,324.342,552.438,324.033z"/>
		<path fill="#677070" d="M548.156,324.033c0.658-0.311,1.59-3.77,1.335-3.433c-0.256,0.338-2.044,1.098-1.022,0.169
			c1.022-0.929,1.533-3.91,1.533-3.91s-1.584,0.788-0.767,0.141s1.278-3.825,1.278-3.825s-1.534,0.646-0.613,0
			c0.92-0.648,1.891-6.274,1.891-6.274s0.972,5.626,1.892,6.274c0.921,0.646-0.613,0-0.613,0s0.46,3.178,1.278,3.825
			c0.817,0.647-0.768-0.141-0.768-0.141s0.512,2.981,1.533,3.91c1.023,0.929-0.766,0.169-1.021-0.169
			c-0.256-0.337,0.676,3.122,1.335,3.433c0.659,0.309-3.636,0-3.636,0S547.497,324.342,548.156,324.033z"/>
		<path fill="#677070" d="M556.713,324.05c0.572-0.27,1.385-3.285,1.162-2.991c-0.222,0.295-1.781,0.957-0.891,0.147
			c0.891-0.809,1.336-3.407,1.336-3.407s-1.381,0.687-0.667,0.122c0.712-0.564,1.114-3.334,1.114-3.334s-1.338,0.563-0.535,0
			c0.802-0.565,1.648-5.468,1.648-5.468s0.846,4.902,1.648,5.468c0.802,0.563-0.535,0-0.535,0s0.401,2.77,1.115,3.334
			c0.712,0.564-0.67-0.122-0.67-0.122s0.445,2.599,1.337,3.407c0.892,0.81-0.667,0.147-0.892-0.147
			c-0.223-0.294,0.59,2.722,1.164,2.991s-3.168,0-3.168,0S556.138,324.319,556.713,324.05z"/>
		<path fill="#677070" d="M540.806,324.486c0.573-0.271,1.386-3.285,1.163-2.991s-1.781,0.956-0.891,0.146
			c0.891-0.809,1.336-3.407,1.336-3.407s-1.381,0.687-0.668,0.122s1.115-3.334,1.115-3.334s-1.338,0.564-0.535,0
			c0.801-0.564,1.647-5.468,1.647-5.468s0.847,4.903,1.649,5.468c0.802,0.564-0.535,0-0.535,0s0.401,2.77,1.114,3.334
			s-0.669-0.122-0.669-0.122s0.445,2.599,1.337,3.407c0.892,0.81-0.668,0.147-0.892-0.146c-0.223-0.294,0.59,2.721,1.164,2.991
			c0.574,0.269-3.169,0-3.169,0S540.231,324.755,540.806,324.486z"/>
		<path fill="#677070" d="M534.296,324.041c0.614-0.289,1.485-3.522,1.247-3.207c-0.238,0.316-1.91,1.026-0.955,0.157
			c0.955-0.866,1.433-3.653,1.433-3.653s-1.48,0.736-0.716,0.131c0.764-0.604,1.193-3.574,1.193-3.574s-1.434,0.604-0.572,0
			c0.859-0.605,1.767-5.863,1.767-5.863s0.908,5.258,1.768,5.863c0.86,0.604-0.573,0-0.573,0s0.43,2.97,1.195,3.574
			c0.764,0.605-0.717-0.131-0.717-0.131s0.477,2.787,1.433,3.653c0.956,0.869-0.716,0.159-0.956-0.157
			c-0.238-0.315,0.633,2.918,1.248,3.207c0.615,0.29-3.397,0-3.397,0S533.68,324.331,534.296,324.041z"/>
		<path fill="#4D5657" d="M544.754,324.138c0.574-0.27,1.387-3.285,1.164-2.991c-0.223,0.295-1.781,0.957-0.892,0.146
			c0.892-0.809,1.337-3.406,1.337-3.406s-1.381,0.687-0.668,0.121c0.713-0.563,1.114-3.333,1.114-3.333s-1.338,0.563-0.535,0
			c0.802-0.565,1.648-5.469,1.648-5.469s0.847,4.903,1.648,5.469c0.802,0.563-0.534,0-0.534,0s0.4,2.77,1.114,3.333
			c0.712,0.565-0.669-0.121-0.669-0.121s0.445,2.598,1.336,3.406c0.893,0.811-0.667,0.148-0.891-0.146
			c-0.223-0.294,0.59,2.722,1.164,2.991s-3.169,0-3.169,0S544.18,324.407,544.754,324.138z"/>
		<path fill="#4D5657" d="M538.387,324.501c0.501-0.235,1.211-2.87,1.016-2.612c-0.194,0.257-1.556,0.835-0.778,0.128
			c0.778-0.707,1.168-2.977,1.168-2.977s-1.206,0.6-0.584,0.106c0.623-0.493,0.974-2.912,0.974-2.912s-1.168,0.493-0.468,0
			s1.44-4.776,1.44-4.776s0.739,4.283,1.439,4.776c0.701,0.493-0.467,0-0.467,0s0.351,2.419,0.974,2.912
			c0.622,0.493-0.584-0.106-0.584-0.106s0.39,2.27,1.167,2.977c0.779,0.707-0.583,0.129-0.777-0.128
			c-0.195-0.258,0.514,2.377,1.016,2.612s-2.768,0-2.768,0S537.885,324.736,538.387,324.501z"/>
		<path fill="#4D5657" d="M532.705,323.902c0.451-0.214,1.092-2.593,0.916-2.359c-0.175,0.232-1.404,0.754-0.702,0.115
			c0.702-0.638,1.055-2.688,1.055-2.688s-1.09,0.541-0.527,0.096s0.878-2.629,0.878-2.629s-1.055,0.445-0.422,0
			s1.301-4.313,1.301-4.313s0.668,3.868,1.301,4.313c0.632,0.445-0.422,0-0.422,0s0.316,2.184,0.879,2.629s-0.527-0.096-0.527-0.096
			s0.352,2.05,1.055,2.688c0.703,0.639-0.527,0.117-0.703-0.115c-0.176-0.233,0.465,2.146,0.918,2.359c0.453,0.213-2.5,0-2.5,0
			S532.251,324.115,532.705,323.902z"/>
	</g>
	<g>
		<path fill="#4D5657" d="M523.561,323.815c0.658-0.311,1.59-3.77,1.335-3.433c-0.256,0.338-2.044,1.098-1.022,0.169
			c1.022-0.929,1.533-3.91,1.533-3.91s-1.584,0.788-0.767,0.141s1.278-3.825,1.278-3.825s-1.535,0.646-0.613,0
			c0.92-0.648,1.891-6.274,1.891-6.274s0.972,5.626,1.891,6.274c0.922,0.646-0.612,0-0.612,0s0.46,3.178,1.278,3.825
			c0.817,0.647-0.768-0.141-0.768-0.141s0.512,2.981,1.533,3.91c1.023,0.929-0.766,0.169-1.021-0.169
			c-0.256-0.337,0.676,3.122,1.335,3.433c0.659,0.309-3.636,0-3.636,0S522.901,324.124,523.561,323.815z"/>
		<path fill="#677070" d="M519.279,323.815c0.658-0.311,1.59-3.77,1.334-3.433c-0.256,0.338-2.044,1.098-1.022,0.169
			c1.022-0.929,1.534-3.91,1.534-3.91s-1.585,0.788-0.768,0.141c0.818-0.647,1.279-3.825,1.279-3.825s-1.535,0.646-0.614,0
			c0.92-0.648,1.892-6.274,1.892-6.274s0.971,5.626,1.891,6.274c0.921,0.646-0.613,0-0.613,0s0.461,3.178,1.279,3.825
			c0.816,0.647-0.768-0.141-0.768-0.141s0.511,2.981,1.533,3.91c1.023,0.929-0.766,0.169-1.022-0.169
			c-0.255-0.337,0.677,3.122,1.335,3.433c0.659,0.309-3.635,0-3.635,0S518.619,324.124,519.279,323.815z"/>
		<path fill="#677070" d="M527.835,323.832c0.573-0.27,1.386-3.285,1.163-2.991c-0.223,0.295-1.781,0.957-0.891,0.147
			c0.891-0.809,1.336-3.407,1.336-3.407s-1.381,0.687-0.668,0.122s1.114-3.334,1.114-3.334s-1.337,0.563-0.534,0
			c0.801-0.565,1.647-5.468,1.647-5.468s0.847,4.902,1.648,5.468c0.802,0.563-0.534,0-0.534,0s0.4,2.77,1.114,3.334
			c0.712,0.564-0.669-0.122-0.669-0.122s0.445,2.599,1.336,3.407c0.893,0.81-0.667,0.147-0.891-0.147
			c-0.223-0.294,0.59,2.722,1.164,2.991s-3.169,0-3.169,0S527.26,324.102,527.835,323.832z"/>
		<path fill="#677070" d="M511.928,324.269c0.574-0.271,1.387-3.285,1.164-2.991s-1.781,0.956-0.891,0.146
			c0.891-0.809,1.336-3.407,1.336-3.407s-1.381,0.687-0.668,0.122s1.114-3.334,1.114-3.334s-1.337,0.564-0.535,0
			s1.647-5.468,1.647-5.468s0.848,4.903,1.649,5.468s-0.534,0-0.534,0s0.4,2.77,1.113,3.334s-0.668-0.122-0.668-0.122
			s0.445,2.599,1.336,3.407c0.893,0.81-0.668,0.147-0.891-0.146s0.59,2.721,1.164,2.991c0.574,0.269-3.17,0-3.17,0
			S511.354,324.537,511.928,324.269z"/>
		<path fill="#677070" d="M505.418,323.823c0.615-0.289,1.486-3.522,1.248-3.207c-0.239,0.316-1.91,1.026-0.956,0.157
			c0.956-0.866,1.433-3.653,1.433-3.653s-1.48,0.736-0.716,0.131c0.765-0.604,1.194-3.574,1.194-3.574s-1.434,0.604-0.573,0
			c0.86-0.605,1.767-5.863,1.767-5.863s0.908,5.258,1.768,5.863c0.861,0.604-0.572,0-0.572,0s0.43,2.97,1.195,3.574
			c0.764,0.605-0.718-0.131-0.718-0.131s0.478,2.787,1.433,3.653c0.957,0.869-0.715,0.159-0.955-0.157
			c-0.238-0.315,0.633,2.918,1.248,3.207c0.615,0.29-3.398,0-3.398,0S504.803,324.113,505.418,323.823z"/>
		<path fill="#4D5657" d="M515.877,323.92c0.574-0.27,1.386-3.285,1.164-2.991c-0.223,0.295-1.782,0.957-0.893,0.146
			c0.893-0.809,1.338-3.406,1.338-3.406s-1.381,0.687-0.668,0.121c0.712-0.563,1.113-3.333,1.113-3.333s-1.338,0.563-0.535,0
			c0.803-0.565,1.648-5.469,1.648-5.469s0.848,4.903,1.648,5.469c0.803,0.563-0.534,0-0.534,0s0.401,2.77,1.114,3.333
			c0.713,0.565-0.668-0.121-0.668-0.121s0.445,2.598,1.336,3.406c0.892,0.811-0.668,0.148-0.891-0.146
			c-0.223-0.294,0.589,2.722,1.163,2.991s-3.169,0-3.169,0S515.303,324.189,515.877,323.92z"/>
		<path fill="#4D5657" d="M509.51,324.283c0.5-0.235,1.21-2.87,1.016-2.612c-0.195,0.257-1.557,0.835-0.779,0.128
			c0.779-0.707,1.168-2.977,1.168-2.977s-1.206,0.6-0.584,0.106c0.623-0.493,0.974-2.912,0.974-2.912s-1.168,0.493-0.468,0
			c0.701-0.493,1.44-4.776,1.44-4.776s0.739,4.283,1.44,4.776s-0.467,0-0.467,0s0.35,2.419,0.973,2.912s-0.584-0.106-0.584-0.106
			s0.39,2.27,1.168,2.977c0.779,0.707-0.584,0.129-0.778-0.128c-0.194-0.258,0.515,2.377,1.017,2.612s-2.769,0-2.769,0
			S509.008,324.519,509.51,324.283z"/>
		<path fill="#4D5657" d="M503.827,323.685c0.452-0.214,1.093-2.593,0.917-2.359c-0.176,0.232-1.404,0.754-0.703,0.115
			c0.703-0.638,1.055-2.688,1.055-2.688s-1.09,0.541-0.527,0.096s0.879-2.629,0.879-2.629s-1.055,0.445-0.422,0
			s1.301-4.313,1.301-4.313s0.668,3.868,1.3,4.313s-0.422,0-0.422,0s0.316,2.184,0.88,2.629c0.562,0.445-0.527-0.096-0.527-0.096
			s0.352,2.05,1.054,2.688c0.703,0.639-0.526,0.117-0.702-0.115c-0.177-0.233,0.464,2.146,0.917,2.359c0.453,0.213-2.499,0-2.499,0
			S503.373,323.897,503.827,323.685z"/>
	</g>
	<g>
		<path fill="#4D5657" d="M496.561,323.598c0.658-0.311,1.59-3.77,1.335-3.433c-0.256,0.338-2.044,1.098-1.022,0.169
			c1.022-0.929,1.533-3.91,1.533-3.91s-1.584,0.788-0.767,0.141s1.278-3.825,1.278-3.825s-1.535,0.646-0.613,0
			c0.92-0.648,1.891-6.274,1.891-6.274s0.972,5.626,1.891,6.274c0.922,0.646-0.612,0-0.612,0s0.46,3.178,1.278,3.825
			c0.817,0.647-0.768-0.141-0.768-0.141s0.512,2.981,1.533,3.91c1.023,0.929-0.766,0.169-1.021-0.169
			c-0.256-0.337,0.676,3.122,1.335,3.433c0.659,0.309-3.636,0-3.636,0S495.901,323.906,496.561,323.598z"/>
		<path fill="#677070" d="M492.279,323.598c0.658-0.311,1.59-3.77,1.334-3.433c-0.256,0.338-2.044,1.098-1.022,0.169
			c1.022-0.929,1.534-3.91,1.534-3.91s-1.585,0.788-0.768,0.141c0.818-0.647,1.279-3.825,1.279-3.825s-1.535,0.646-0.614,0
			c0.92-0.648,1.892-6.274,1.892-6.274s0.971,5.626,1.891,6.274c0.921,0.646-0.613,0-0.613,0s0.461,3.178,1.279,3.825
			c0.816,0.647-0.768-0.141-0.768-0.141s0.511,2.981,1.533,3.91c1.023,0.929-0.766,0.169-1.022-0.169
			c-0.255-0.337,0.677,3.122,1.335,3.433c0.659,0.309-3.635,0-3.635,0S491.619,323.906,492.279,323.598z"/>
		<path fill="#677070" d="M500.835,323.614c0.573-0.27,1.386-3.285,1.163-2.991c-0.223,0.295-1.781,0.957-0.891,0.147
			c0.891-0.809,1.336-3.407,1.336-3.407s-1.381,0.687-0.668,0.122s1.114-3.334,1.114-3.334s-1.337,0.563-0.534,0
			c0.801-0.565,1.647-5.468,1.647-5.468s0.847,4.902,1.648,5.468c0.802,0.563-0.534,0-0.534,0s0.4,2.77,1.114,3.334
			c0.712,0.564-0.669-0.122-0.669-0.122s0.445,2.599,1.336,3.407c0.893,0.81-0.667,0.147-0.891-0.147
			c-0.223-0.294,0.59,2.722,1.164,2.991s-3.169,0-3.169,0S500.26,323.884,500.835,323.614z"/>
		<path fill="#677070" d="M484.929,324.051c0.573-0.271,1.385-3.285,1.163-2.991c-0.223,0.294-1.782,0.956-0.892,0.146
			c0.892-0.809,1.337-3.407,1.337-3.407s-1.381,0.687-0.668,0.122c0.712-0.564,1.114-3.334,1.114-3.334s-1.338,0.564-0.535,0
			c0.802-0.564,1.647-5.468,1.647-5.468s0.848,4.903,1.649,5.468s-0.534,0-0.534,0s0.4,2.77,1.113,3.334s-0.668-0.122-0.668-0.122
			s0.445,2.599,1.336,3.407c0.893,0.81-0.668,0.147-0.891-0.146s0.59,2.721,1.164,2.991c0.574,0.269-3.17,0-3.17,0
			S484.354,324.319,484.929,324.051z"/>
		<path fill="#677070" d="M478.419,323.605c0.614-0.289,1.484-3.522,1.246-3.207c-0.238,0.316-1.91,1.026-0.955,0.157
			c0.955-0.866,1.434-3.653,1.434-3.653s-1.48,0.736-0.717,0.131c0.764-0.604,1.194-3.574,1.194-3.574s-1.434,0.604-0.573,0
			c0.859-0.605,1.768-5.863,1.768-5.863s0.908,5.258,1.768,5.863c0.859,0.604-0.574,0-0.574,0s0.431,2.97,1.195,3.574
			c0.765,0.605-0.717-0.131-0.717-0.131s0.478,2.787,1.434,3.653c0.955,0.869-0.717,0.159-0.956-0.157
			c-0.239-0.315,0.632,2.918,1.248,3.207c0.615,0.29-3.397,0-3.397,0S477.802,323.896,478.419,323.605z"/>
		<path fill="#4D5657" d="M488.877,323.702c0.574-0.27,1.386-3.285,1.164-2.991c-0.223,0.295-1.782,0.957-0.893,0.146
			c0.893-0.809,1.338-3.406,1.338-3.406s-1.381,0.687-0.668,0.121c0.712-0.563,1.113-3.333,1.113-3.333s-1.338,0.563-0.535,0
			c0.803-0.565,1.648-5.469,1.648-5.469s0.848,4.903,1.648,5.469c0.803,0.563-0.534,0-0.534,0s0.401,2.77,1.114,3.333
			c0.713,0.565-0.668-0.121-0.668-0.121s0.445,2.598,1.336,3.406c0.892,0.811-0.668,0.148-0.891-0.146
			c-0.223-0.294,0.589,2.722,1.163,2.991s-3.169,0-3.169,0S488.303,323.972,488.877,323.702z"/>
		<path fill="#4D5657" d="M482.509,324.065c0.502-0.235,1.211-2.87,1.017-2.612c-0.194,0.257-1.556,0.835-0.778,0.128
			c0.778-0.707,1.168-2.977,1.168-2.977s-1.207,0.6-0.584,0.106s0.973-2.912,0.973-2.912s-1.168,0.493-0.467,0
			c0.7-0.493,1.439-4.776,1.439-4.776s0.74,4.283,1.44,4.776c0.701,0.493-0.468,0-0.468,0s0.352,2.419,0.974,2.912
			c0.623,0.493-0.583-0.106-0.583-0.106s0.389,2.27,1.167,2.977c0.779,0.707-0.584,0.129-0.778-0.128
			c-0.195-0.258,0.515,2.377,1.017,2.612s-2.769,0-2.769,0S482.007,324.301,482.509,324.065z"/>
		<path fill="#4D5657" d="M476.827,323.467c0.452-0.214,1.093-2.593,0.917-2.359c-0.175,0.232-1.405,0.754-0.702,0.115
			c0.702-0.638,1.055-2.688,1.055-2.688s-1.09,0.541-0.527,0.096s0.878-2.629,0.878-2.629s-1.055,0.445-0.422,0s1.3-4.313,1.3-4.313
			s0.668,3.868,1.301,4.313s-0.422,0-0.422,0s0.316,2.184,0.879,2.629s-0.527-0.096-0.527-0.096s0.352,2.05,1.055,2.688
			c0.703,0.639-0.527,0.117-0.703-0.115c-0.176-0.233,0.465,2.146,0.918,2.359c0.453,0.213-2.5,0-2.5,0
			S476.374,323.68,476.827,323.467z"/>
	</g>
	<path fill="#677070" d="M473.272,323.623c0.43-0.203,1.041-2.468,0.873-2.247c-0.167,0.222-1.338,0.719-0.669,0.11
		c0.669-0.607,1.004-2.56,1.004-2.56s-1.037,0.516-0.502,0.092s0.837-2.504,0.837-2.504s-1.004,0.424-0.402,0
		c0.604-0.424,1.238-4.107,1.238-4.107s0.637,3.684,1.238,4.107c0.604,0.424-0.401,0-0.401,0s0.302,2.08,0.837,2.504
		s-0.502-0.092-0.502-0.092s0.334,1.952,1.004,2.56c0.67,0.608-0.502,0.111-0.67-0.11c-0.167-0.221,0.443,2.044,0.875,2.247
		c0.431,0.203-2.381,0-2.381,0S472.841,323.826,473.272,323.623z"/>
	<path fill="#677070" d="M468.153,323.646c0.321-0.151,0.777-1.844,0.652-1.679c-0.125,0.166-1,0.537-0.5,0.082
		c0.5-0.453,0.75-1.912,0.75-1.912s-0.774,0.385-0.375,0.068c0.4-0.316,0.625-1.871,0.625-1.871s-0.75,0.316-0.3,0
		s0.925-3.069,0.925-3.069s0.476,2.753,0.926,3.069s-0.301,0-0.301,0s0.226,1.555,0.627,1.871c0.399,0.316-0.376-0.068-0.376-0.068
		s0.25,1.459,0.75,1.912c0.501,0.455-0.374,0.084-0.5-0.082c-0.126-0.165,0.331,1.527,0.653,1.679c0.322,0.152-1.779,0-1.779,0
		S467.83,323.798,468.153,323.646z"/>
</g>
<path fill="#313B3C" d="M595.458,404.614c-4.342-3.188-10.486-38.833-8.804-35.353c1.686,3.478,13.481,11.302,6.743,1.737
	c-6.743-9.562-10.11-40.279-10.11-40.279s10.447,8.115,5.053,1.448c-5.39-6.665-8.425-39.413-8.425-39.413s10.112,6.665,4.044,0
	c-6.065-6.664-12.468-64.623-12.468-64.623s-6.405,57.958-12.47,64.623c-6.068,6.665,4.043,0,4.043,0s-3.035,32.748-8.428,39.413
	c-5.393,6.667,5.058-1.448,5.058-1.448s-3.369,30.717-10.111,40.279c-6.741,9.564,5.054,1.74,6.742-1.737
	c1.684-3.48-4.462,32.164-8.804,35.353c-4.343,3.186,23.97,0,23.97,0S599.8,407.8,595.458,404.614z"/>
<path fill="#4D5657" d="M566.633,426.433c-3.273-2.795-7.902-34.041-6.635-30.989c1.271,3.047,10.161,9.907,5.081,1.522
	c-5.081-8.383-7.619-35.309-7.619-35.309s7.873,7.112,3.809,1.271c-4.062-5.843-6.351-34.55-6.351-34.55s7.621,5.843,3.049,0
	c-4.572-5.84-9.397-56.646-9.397-56.646s-4.829,50.807-9.398,56.646c-4.575,5.843,3.045,0,3.045,0s-2.284,28.707-6.35,34.55
	c-4.062,5.842,3.812-1.271,3.812-1.271s-2.542,26.926-7.621,35.309c-5.082,8.385,3.809,1.524,5.079-1.522
	c1.271-3.052-3.362,28.194-6.635,30.989c-3.273,2.795,18.067,0,18.067,0S569.905,429.228,566.633,426.433z"/>
<path fill="#39383D" d="M720,359.333c-36.378-10.754-77.004-9.137-112.667,3.665c-6,2-12,9.335-15,14.335
	c-7,19-16.667,31.334-32.667,42.334c-36,27-79.548,33.533-105.548,69.533c-3.466,4.799-6.256,9.744-8.497,14.799H720V359.333z"/>
<path fill="#313B3C" d="M716.21,186.132c0,0,1.651,1.265,3.29,2.325v-4.324c-6.241-14.372-12.445-79.676-12.445-79.676
	s-6.961,73.253-13.552,81.675c-6.594,8.424,4.394,0,4.394,0s-3.298,41.39-9.157,49.813c-5.86,8.426,5.495-1.83,5.495-1.83
	s-3.662,38.823-10.988,50.908c-7.325,12.088,5.493,2.199,7.326-2.195c1.83-4.398-4.848,40.651-9.566,44.681
	c-4.72,4.027,26.049,0,26.049,0s6.097,0.797,12.445,1.327V214.067C717.357,200.527,716.21,186.132,716.21,186.132z"/>
<g>
	<g>
		<path fill="#4D5657" d="M487.947,324.381c0.658-0.311,1.59-3.77,1.336-3.433c-0.256,0.338-2.045,1.098-1.023,0.169
			c1.023-0.929,1.533-3.91,1.533-3.91s-1.584,0.788-0.766,0.141c0.817-0.647,1.277-3.825,1.277-3.825s-1.534,0.646-0.613,0
			c0.92-0.648,1.892-6.274,1.892-6.274s0.972,5.626,1.891,6.274c0.921,0.646-0.612,0-0.612,0s0.459,3.178,1.278,3.825
			c0.817,0.647-0.768-0.141-0.768-0.141s0.511,2.981,1.533,3.91c1.023,0.929-0.766,0.169-1.022-0.169
			c-0.256-0.337,0.676,3.122,1.336,3.433c0.658,0.309-3.636,0-3.636,0S487.289,324.689,487.947,324.381z"/>
		<path fill="#677070" d="M483.666,324.381c0.658-0.311,1.59-3.77,1.335-3.433c-0.256,0.338-2.044,1.098-1.022,0.169
			c1.022-0.929,1.533-3.91,1.533-3.91s-1.584,0.788-0.767,0.141s1.278-3.825,1.278-3.825s-1.534,0.646-0.613,0
			c0.92-0.648,1.891-6.274,1.891-6.274s0.972,5.626,1.892,6.274c0.921,0.646-0.613,0-0.613,0s0.46,3.178,1.278,3.825
			c0.817,0.647-0.768-0.141-0.768-0.141s0.512,2.981,1.533,3.91c1.023,0.929-0.766,0.169-1.021-0.169
			c-0.256-0.337,0.676,3.122,1.335,3.433c0.659,0.309-3.636,0-3.636,0S483.007,324.689,483.666,324.381z"/>
		<path fill="#677070" d="M492.223,324.397c0.572-0.27,1.385-3.285,1.162-2.991c-0.222,0.295-1.781,0.957-0.891,0.147
			c0.891-0.809,1.336-3.407,1.336-3.407s-1.381,0.687-0.667,0.122c0.712-0.564,1.114-3.334,1.114-3.334s-1.338,0.563-0.535,0
			c0.802-0.565,1.648-5.468,1.648-5.468s0.846,4.902,1.648,5.468c0.802,0.563-0.535,0-0.535,0s0.401,2.77,1.115,3.334
			c0.712,0.564-0.67-0.122-0.67-0.122s0.445,2.599,1.337,3.407c0.892,0.81-0.667,0.147-0.892-0.147
			c-0.223-0.294,0.59,2.722,1.164,2.991s-3.168,0-3.168,0S491.647,324.667,492.223,324.397z"/>
		<path fill="#677070" d="M476.315,324.834c0.573-0.271,1.386-3.285,1.163-2.991s-1.781,0.956-0.891,0.146
			c0.891-0.809,1.336-3.407,1.336-3.407s-1.381,0.687-0.668,0.122s1.115-3.334,1.115-3.334s-1.338,0.564-0.535,0
			c0.801-0.564,1.647-5.468,1.647-5.468s0.847,4.903,1.649,5.468c0.802,0.564-0.535,0-0.535,0s0.401,2.77,1.114,3.334
			s-0.669-0.122-0.669-0.122s0.445,2.599,1.337,3.407c0.892,0.81-0.668,0.147-0.892-0.146c-0.223-0.294,0.59,2.721,1.164,2.991
			c0.574,0.269-3.169,0-3.169,0S475.741,325.103,476.315,324.834z"/>
		<path fill="#677070" d="M469.806,324.389c0.614-0.289,1.485-3.522,1.247-3.207c-0.238,0.316-1.91,1.026-0.955,0.157
			c0.955-0.866,1.433-3.653,1.433-3.653s-1.48,0.736-0.716,0.131c0.764-0.604,1.193-3.574,1.193-3.574s-1.434,0.604-0.572,0
			c0.859-0.605,1.767-5.863,1.767-5.863s0.908,5.258,1.768,5.863c0.86,0.604-0.573,0-0.573,0s0.43,2.97,1.195,3.574
			c0.764,0.605-0.717-0.131-0.717-0.131s0.477,2.787,1.433,3.653c0.956,0.869-0.716,0.159-0.956-0.157
			c-0.238-0.315,0.633,2.918,1.248,3.207c0.615,0.29-3.397,0-3.397,0S469.189,324.679,469.806,324.389z"/>
		<path fill="#4D5657" d="M480.264,324.485c0.574-0.27,1.387-3.285,1.164-2.991c-0.223,0.295-1.781,0.957-0.892,0.146
			c0.892-0.809,1.337-3.406,1.337-3.406s-1.381,0.687-0.668,0.121c0.713-0.563,1.114-3.333,1.114-3.333s-1.338,0.563-0.535,0
			c0.802-0.565,1.648-5.469,1.648-5.469s0.847,4.903,1.648,5.469c0.802,0.563-0.534,0-0.534,0s0.4,2.77,1.114,3.333
			c0.712,0.565-0.669-0.121-0.669-0.121s0.445,2.598,1.336,3.406c0.893,0.811-0.667,0.148-0.891-0.146
			c-0.223-0.294,0.59,2.722,1.164,2.991s-3.169,0-3.169,0S479.689,324.755,480.264,324.485z"/>
		<path fill="#4D5657" d="M473.896,324.849c0.501-0.235,1.211-2.87,1.016-2.612c-0.194,0.257-1.556,0.835-0.778,0.128
			c0.778-0.707,1.168-2.977,1.168-2.977s-1.206,0.6-0.584,0.106c0.623-0.493,0.974-2.912,0.974-2.912s-1.168,0.493-0.468,0
			s1.44-4.776,1.44-4.776s0.739,4.283,1.439,4.776c0.701,0.493-0.467,0-0.467,0s0.351,2.419,0.974,2.912
			c0.622,0.493-0.584-0.106-0.584-0.106s0.39,2.27,1.167,2.977c0.779,0.707-0.583,0.129-0.777-0.128
			c-0.195-0.258,0.514,2.377,1.016,2.612s-2.768,0-2.768,0S473.395,325.084,473.896,324.849z"/>
		<path fill="#4D5657" d="M468.215,324.25c0.451-0.214,1.092-2.593,0.916-2.359c-0.175,0.232-1.404,0.754-0.702,0.115
			c0.702-0.638,1.055-2.688,1.055-2.688s-1.09,0.541-0.527,0.096s0.878-2.629,0.878-2.629s-1.055,0.445-0.422,0
			s1.301-4.313,1.301-4.313s0.668,3.868,1.301,4.313c0.632,0.445-0.422,0-0.422,0s0.316,2.184,0.879,2.629s-0.527-0.096-0.527-0.096
			s0.352,2.05,1.055,2.688c0.703,0.639-0.527,0.117-0.703-0.115c-0.176-0.233,0.465,2.146,0.918,2.359c0.453,0.213-2.5,0-2.5,0
			S467.761,324.463,468.215,324.25z"/>
	</g>
	<g>
		<path fill="#4D5657" d="M459.07,324.163c0.658-0.311,1.59-3.77,1.335-3.433c-0.256,0.338-2.044,1.098-1.022,0.169
			c1.022-0.929,1.533-3.91,1.533-3.91s-1.584,0.788-0.767,0.141s1.278-3.825,1.278-3.825s-1.535,0.646-0.613,0
			c0.92-0.648,1.891-6.274,1.891-6.274s0.972,5.626,1.891,6.274c0.922,0.646-0.612,0-0.612,0s0.46,3.178,1.278,3.825
			c0.817,0.647-0.768-0.141-0.768-0.141s0.512,2.981,1.533,3.91c1.023,0.929-0.766,0.169-1.021-0.169
			c-0.256-0.337,0.676,3.122,1.335,3.433c0.659,0.309-3.636,0-3.636,0S458.411,324.472,459.07,324.163z"/>
		<path fill="#677070" d="M454.789,324.163c0.658-0.311,1.59-3.77,1.334-3.433c-0.256,0.338-2.044,1.098-1.022,0.169
			c1.022-0.929,1.534-3.91,1.534-3.91s-1.585,0.788-0.768,0.141c0.818-0.647,1.279-3.825,1.279-3.825s-1.535,0.646-0.614,0
			c0.92-0.648,1.892-6.274,1.892-6.274s0.971,5.626,1.891,6.274c0.921,0.646-0.613,0-0.613,0s0.461,3.178,1.279,3.825
			c0.816,0.647-0.768-0.141-0.768-0.141s0.511,2.981,1.533,3.91c1.023,0.929-0.766,0.169-1.022-0.169
			c-0.255-0.337,0.677,3.122,1.335,3.433c0.659,0.309-3.635,0-3.635,0S454.129,324.472,454.789,324.163z"/>
		<path fill="#677070" d="M463.345,324.18c0.573-0.27,1.386-3.285,1.163-2.991c-0.223,0.295-1.781,0.957-0.891,0.147
			c0.891-0.809,1.336-3.407,1.336-3.407s-1.381,0.687-0.668,0.122s1.114-3.334,1.114-3.334s-1.337,0.563-0.534,0
			c0.801-0.565,1.647-5.468,1.647-5.468s0.847,4.902,1.648,5.468c0.802,0.563-0.534,0-0.534,0s0.4,2.77,1.114,3.334
			c0.712,0.564-0.669-0.122-0.669-0.122s0.445,2.599,1.336,3.407c0.893,0.81-0.667,0.147-0.891-0.147
			c-0.223-0.294,0.59,2.722,1.164,2.991s-3.169,0-3.169,0S462.77,324.449,463.345,324.18z"/>
		<path fill="#677070" d="M447.438,324.616c0.574-0.271,1.387-3.285,1.164-2.991s-1.781,0.956-0.891,0.146
			c0.891-0.809,1.336-3.407,1.336-3.407s-1.381,0.687-0.668,0.122s1.114-3.334,1.114-3.334s-1.337,0.564-0.535,0
			s1.647-5.468,1.647-5.468s0.848,4.903,1.649,5.468s-0.534,0-0.534,0s0.4,2.77,1.113,3.334s-0.668-0.122-0.668-0.122
			s0.445,2.599,1.336,3.407c0.893,0.81-0.668,0.147-0.891-0.146s0.59,2.721,1.164,2.991c0.574,0.269-3.17,0-3.17,0
			S446.863,324.885,447.438,324.616z"/>
		<path fill="#677070" d="M440.928,324.171c0.615-0.289,1.486-3.522,1.248-3.207c-0.239,0.316-1.91,1.026-0.956,0.157
			c0.956-0.866,1.433-3.653,1.433-3.653s-1.48,0.736-0.716,0.131c0.765-0.604,1.194-3.574,1.194-3.574s-1.434,0.604-0.573,0
			c0.86-0.605,1.767-5.863,1.767-5.863s0.908,5.258,1.768,5.863c0.861,0.604-0.572,0-0.572,0s0.43,2.97,1.195,3.574
			c0.764,0.605-0.718-0.131-0.718-0.131s0.478,2.787,1.433,3.653c0.957,0.869-0.715,0.159-0.955-0.157
			c-0.238-0.315,0.633,2.918,1.248,3.207c0.615,0.29-3.398,0-3.398,0S440.312,324.461,440.928,324.171z"/>
		<path fill="#4D5657" d="M451.387,324.268c0.574-0.27,1.386-3.285,1.164-2.991c-0.223,0.295-1.782,0.957-0.893,0.146
			c0.893-0.809,1.338-3.406,1.338-3.406s-1.381,0.687-0.668,0.121c0.712-0.563,1.113-3.333,1.113-3.333s-1.338,0.563-0.535,0
			c0.803-0.565,1.648-5.469,1.648-5.469s0.848,4.903,1.648,5.469c0.803,0.563-0.534,0-0.534,0s0.401,2.77,1.114,3.333
			c0.713,0.565-0.668-0.121-0.668-0.121s0.445,2.598,1.336,3.406c0.892,0.811-0.668,0.148-0.891-0.146
			c-0.223-0.294,0.589,2.722,1.163,2.991s-3.169,0-3.169,0S450.812,324.537,451.387,324.268z"/>
		<path fill="#4D5657" d="M445.02,324.631c0.5-0.235,1.21-2.87,1.016-2.612c-0.195,0.257-1.557,0.835-0.779,0.128
			c0.779-0.707,1.168-2.977,1.168-2.977s-1.206,0.6-0.584,0.106c0.623-0.493,0.974-2.912,0.974-2.912s-1.168,0.493-0.468,0
			c0.701-0.493,1.44-4.776,1.44-4.776s0.739,4.283,1.44,4.776s-0.467,0-0.467,0s0.35,2.419,0.973,2.912s-0.584-0.106-0.584-0.106
			s0.39,2.27,1.168,2.977c0.779,0.707-0.584,0.129-0.778-0.128c-0.194-0.258,0.515,2.377,1.017,2.612s-2.769,0-2.769,0
			S444.518,324.866,445.02,324.631z"/>
		<path fill="#4D5657" d="M439.337,324.032c0.452-0.214,1.093-2.593,0.917-2.359c-0.176,0.232-1.404,0.754-0.703,0.115
			c0.703-0.638,1.055-2.688,1.055-2.688s-1.09,0.541-0.527,0.096s0.879-2.629,0.879-2.629s-1.055,0.445-0.422,0
			s1.301-4.313,1.301-4.313s0.668,3.868,1.3,4.313s-0.422,0-0.422,0s0.316,2.184,0.88,2.629c0.562,0.445-0.527-0.096-0.527-0.096
			s0.352,2.05,1.054,2.688c0.703,0.639-0.526,0.117-0.702-0.115c-0.177-0.233,0.464,2.146,0.917,2.359c0.453,0.213-2.499,0-2.499,0
			S438.883,324.245,439.337,324.032z"/>
	</g>
	<g>
		<path fill="#4D5657" d="M432.07,323.945c0.658-0.311,1.59-3.77,1.335-3.433c-0.256,0.338-2.044,1.098-1.022,0.169
			c1.022-0.929,1.533-3.91,1.533-3.91s-1.584,0.788-0.767,0.141s1.278-3.825,1.278-3.825s-1.535,0.646-0.613,0
			c0.92-0.648,1.891-6.274,1.891-6.274s0.972,5.626,1.891,6.274c0.922,0.646-0.612,0-0.612,0s0.46,3.178,1.278,3.825
			c0.817,0.647-0.768-0.141-0.768-0.141s0.512,2.981,1.533,3.91c1.023,0.929-0.766,0.169-1.021-0.169
			c-0.256-0.337,0.676,3.122,1.335,3.433c0.659,0.309-3.636,0-3.636,0S431.411,324.254,432.07,323.945z"/>
		<path fill="#677070" d="M427.789,323.945c0.658-0.311,1.59-3.77,1.334-3.433c-0.256,0.338-2.044,1.098-1.022,0.169
			c1.022-0.929,1.534-3.91,1.534-3.91s-1.585,0.788-0.768,0.141c0.818-0.647,1.279-3.825,1.279-3.825s-1.535,0.646-0.614,0
			c0.92-0.648,1.892-6.274,1.892-6.274s0.971,5.626,1.891,6.274c0.921,0.646-0.613,0-0.613,0s0.461,3.178,1.279,3.825
			c0.816,0.647-0.768-0.141-0.768-0.141s0.511,2.981,1.533,3.91c1.023,0.929-0.766,0.169-1.022-0.169
			c-0.255-0.337,0.677,3.122,1.335,3.433c0.659,0.309-3.635,0-3.635,0S427.129,324.254,427.789,323.945z"/>
		<path fill="#677070" d="M436.345,323.962c0.573-0.27,1.386-3.285,1.163-2.991c-0.223,0.295-1.781,0.957-0.891,0.147
			c0.891-0.809,1.336-3.407,1.336-3.407s-1.381,0.687-0.668,0.122s1.114-3.334,1.114-3.334s-1.337,0.563-0.534,0
			c0.801-0.565,1.647-5.468,1.647-5.468s0.847,4.902,1.648,5.468c0.802,0.563-0.534,0-0.534,0s0.4,2.77,1.114,3.334
			c0.712,0.564-0.669-0.122-0.669-0.122s0.445,2.599,1.336,3.407c0.893,0.81-0.667,0.147-0.891-0.147
			c-0.223-0.294,0.59,2.722,1.164,2.991s-3.169,0-3.169,0S435.77,324.231,436.345,323.962z"/>
		<path fill="#677070" d="M420.438,324.398c0.573-0.271,1.385-3.285,1.163-2.991c-0.223,0.294-1.782,0.956-0.892,0.146
			c0.892-0.809,1.337-3.407,1.337-3.407s-1.381,0.687-0.668,0.122c0.712-0.564,1.114-3.334,1.114-3.334s-1.338,0.564-0.535,0
			c0.802-0.564,1.647-5.468,1.647-5.468s0.848,4.903,1.649,5.468s-0.534,0-0.534,0s0.4,2.77,1.113,3.334s-0.668-0.122-0.668-0.122
			s0.445,2.599,1.336,3.407c0.893,0.81-0.668,0.147-0.891-0.146s0.59,2.721,1.164,2.991c0.574,0.269-3.17,0-3.17,0
			S419.864,324.667,420.438,324.398z"/>
		<path fill="#677070" d="M413.929,323.953c0.614-0.289,1.484-3.522,1.246-3.207c-0.238,0.316-1.91,1.026-0.955,0.157
			c0.955-0.866,1.434-3.653,1.434-3.653s-1.48,0.736-0.717,0.131c0.764-0.604,1.194-3.574,1.194-3.574s-1.434,0.604-0.573,0
			c0.859-0.605,1.768-5.863,1.768-5.863s0.908,5.258,1.768,5.863c0.859,0.604-0.574,0-0.574,0s0.431,2.97,1.195,3.574
			c0.765,0.605-0.717-0.131-0.717-0.131s0.478,2.787,1.434,3.653c0.955,0.869-0.717,0.159-0.956-0.157
			c-0.239-0.315,0.632,2.918,1.248,3.207c0.615,0.29-3.397,0-3.397,0S413.312,324.243,413.929,323.953z"/>
		<path fill="#4D5657" d="M424.387,324.05c0.574-0.27,1.386-3.285,1.164-2.991c-0.223,0.295-1.782,0.957-0.893,0.146
			c0.893-0.809,1.338-3.406,1.338-3.406s-1.381,0.687-0.668,0.121c0.712-0.563,1.113-3.333,1.113-3.333s-1.338,0.563-0.535,0
			c0.803-0.565,1.648-5.469,1.648-5.469s0.848,4.903,1.648,5.469c0.803,0.563-0.534,0-0.534,0s0.401,2.77,1.114,3.333
			c0.713,0.565-0.668-0.121-0.668-0.121s0.445,2.598,1.336,3.406c0.892,0.811-0.668,0.148-0.891-0.146
			c-0.223-0.294,0.589,2.722,1.163,2.991s-3.169,0-3.169,0S423.812,324.319,424.387,324.05z"/>
		<path fill="#4D5657" d="M418.019,324.413c0.502-0.235,1.211-2.87,1.017-2.612c-0.194,0.257-1.556,0.835-0.778,0.128
			c0.778-0.707,1.168-2.977,1.168-2.977s-1.207,0.6-0.584,0.106s0.973-2.912,0.973-2.912s-1.168,0.493-0.467,0
			c0.7-0.493,1.439-4.776,1.439-4.776s0.74,4.283,1.44,4.776c0.701,0.493-0.468,0-0.468,0s0.352,2.419,0.974,2.912
			c0.623,0.493-0.583-0.106-0.583-0.106s0.389,2.27,1.167,2.977c0.779,0.707-0.584,0.129-0.778-0.128
			c-0.195-0.258,0.515,2.377,1.017,2.612s-2.769,0-2.769,0S417.517,324.648,418.019,324.413z"/>
		<path fill="#4D5657" d="M412.337,323.814c0.452-0.214,1.093-2.593,0.917-2.359c-0.175,0.232-1.405,0.754-0.702,0.115
			c0.702-0.638,1.055-2.688,1.055-2.688s-1.09,0.541-0.527,0.096s0.878-2.629,0.878-2.629s-1.055,0.445-0.422,0s1.3-4.313,1.3-4.313
			s0.668,3.868,1.301,4.313s-0.422,0-0.422,0s0.316,2.184,0.879,2.629s-0.527-0.096-0.527-0.096s0.352,2.05,1.055,2.688
			c0.703,0.639-0.527,0.117-0.703-0.115c-0.176-0.233,0.465,2.146,0.918,2.359c0.453,0.213-2.5,0-2.5,0
			S411.884,324.027,412.337,323.814z"/>
	</g>
	<path fill="#677070" d="M408.782,323.971c0.43-0.203,1.041-2.468,0.873-2.247c-0.167,0.222-1.338,0.719-0.669,0.11
		c0.669-0.607,1.004-2.56,1.004-2.56s-1.037,0.516-0.502,0.092s0.837-2.504,0.837-2.504s-1.004,0.424-0.402,0
		c0.604-0.424,1.238-4.107,1.238-4.107s0.637,3.684,1.238,4.107c0.604,0.424-0.401,0-0.401,0s0.302,2.08,0.837,2.504
		s-0.502-0.092-0.502-0.092s0.334,1.952,1.004,2.56c0.67,0.608-0.502,0.111-0.67-0.11c-0.167-0.221,0.443,2.044,0.875,2.247
		c0.431,0.203-2.381,0-2.381,0S408.351,324.174,408.782,323.971z"/>
	<path fill="#677070" d="M403.663,323.993c0.321-0.151,0.777-1.844,0.652-1.679c-0.125,0.166-1,0.537-0.5,0.082
		c0.5-0.453,0.75-1.912,0.75-1.912s-0.774,0.385-0.375,0.068c0.4-0.316,0.625-1.871,0.625-1.871s-0.75,0.316-0.3,0
		s0.925-3.069,0.925-3.069s0.476,2.753,0.926,3.069s-0.301,0-0.301,0s0.226,1.555,0.627,1.871c0.399,0.316-0.376-0.068-0.376-0.068
		s0.25,1.459,0.75,1.912c0.501,0.455-0.374,0.084-0.5-0.082c-0.126-0.165,0.331,1.527,0.653,1.679c0.322,0.152-1.779,0-1.779,0
		S403.34,324.146,403.663,323.993z"/>
</g>
<rect x="-0.333" y="444.415" fill="#E0E6D2" width="447.711" height="4.834"/>
<polygon fill="#E0E6D2" points="527.774,421.853 154.598,416.105 154.598,416.105 529.267,411.001 "/>
<path fill="#4D5657" d="M701.256,312.322c-3.758-3.209-9.073-39.084-7.618-35.58c1.459,3.498,11.667,11.375,5.835,1.748
	c-5.835-9.625-8.749-40.542-8.749-40.542s9.04,8.167,4.373,1.459c-4.664-6.708-7.291-39.668-7.291-39.668s8.75,6.708,3.5,0
	c-5.249-6.705-10.79-65.04-10.79-65.04s-5.544,58.335-10.791,65.04c-5.253,6.708,3.497,0,3.497,0s-2.623,32.96-7.291,39.668
	c-4.664,6.708,4.377-1.459,4.377-1.459s-2.918,30.917-8.75,40.542c-5.835,9.627,4.373,1.75,5.832-1.748
	c1.459-3.504-3.86,32.371-7.618,35.58s20.744,0,20.744,0S705.014,315.531,701.256,312.322z"/>
<path fill="#313B3C" d="M652.461,343.181c-5.074-3.726-12.255-45.381-10.289-41.313c1.971,4.063,15.756,13.207,7.881,2.03
	c-7.881-11.175-11.815-47.072-11.815-47.072s12.209,9.483,5.905,1.692c-6.299-7.789-9.846-46.06-9.846-46.06s11.817,7.789,4.726,0
	c-7.088-7.787-14.57-75.52-14.57-75.52s-7.485,67.733-14.572,75.52c-7.092,7.789,4.725,0,4.725,0s-3.547,38.271-9.849,46.06
	c-6.302,7.791,5.91-1.692,5.91-1.692s-3.938,35.897-11.816,47.072c-7.878,11.177,5.906,2.033,7.879-2.03
	c1.968-4.067-5.214,37.588-10.288,41.313c-5.075,3.724,28.012,0,28.012,0S657.535,346.904,652.461,343.181z"/>
<polygon fill="#E0E6D2" points="0.496,454.203 0,503.999 426.835,503.999 451.123,453.307 196.638,454.203 "/>
<path fill="#404B4C" d="M561.118,422.2c16-11,27-26,34-45c3-5,7-10,13-12c35.663-12.802,75.504-13.054,111.882-2.3v-62.893
	c0,0-115.275,14.068-143.739,50.118C547.798,386.177,515.057,416.928,467,431c-48.057,14.07-34.479,56.88-44.44,57.466
	s-8.539,15.533-8.539,15.533h31.601c2.241-5.055,5.031-10,8.497-14.799C480.118,453.2,525.118,449.2,561.118,422.2z"/>
<path fill="#ECD67F" d="M720,400c0,0-96-1-119,26s-94,43-119,45s-93-9.797-109,8.102s-182,4.564-196,7.231s-48.5,0.665-58.5,17.666
	H720V400z"/>
<path fill="#3D3234" d="M35.118,388.855c-11.49-7.34-21.15-18.689-35.118-18.679v34.157h84.359
	c-1.431-0.704-2.849-1.465-4.241-2.337C65.118,393.236,48.118,397.616,35.118,388.855z"/>
<path fill="#46393B" d="M102.532,389.309C84.648,372.055,41.416,346.633,0,353.688v19.456c13.968-0.01,23.628,10.354,35.118,17.056
	c13,8,30,4,45,12c1.393,0.796,2.811,1.491,4.241,2.134h22.861C107.22,404.334,110.369,396.87,102.532,389.309z"/>
<path fill="#D3B86A" d="M606.082,463.175c-0.593,0.769,50.139-3.65,50.139-3.65s-13.499-8.296-27.273-6.969
	S609.663,458.529,606.082,463.175z"/>
<path fill="#D3B86A" d="M664.432,492.423c-0.48,0.444,40.64-2.114,40.64-2.114s-10.941-4.806-22.106-4.037
	C671.8,487.041,667.334,489.731,664.432,492.423z"/>
<path fill="#D3B86A" d="M660.195,427.979c-0.48,0.444,40.64-2.114,40.64-2.114s-10.941-4.806-22.106-4.037
	C667.563,422.597,663.098,425.287,660.195,427.979z"/>
<path fill="#D3B86A" d="M394.159,489.838c-0.48,0.444,40.64-2.114,40.64-2.114s-10.941-4.806-22.106-4.037
	C401.527,484.456,397.062,487.146,394.159,489.838z"/>
<path fill="#D3B86A" d="M549.111,464.774c-0.48,0.444,40.64-2.114,40.64-2.114s-10.941-4.806-22.106-4.037
	C556.479,459.393,552.014,462.083,549.111,464.774z"/>
<path fill="#D3B86A" d="M165.807,497.993c-0.268,0.444,22.69-2.114,22.69-2.114s-6.109-4.806-12.343-4.037
	C169.921,492.611,167.428,495.302,165.807,497.993z"/>
<path fill="#D3B86A" d="M337.566,498.341c-0.268,0.274,22.69-1.306,22.69-1.306s-6.109-2.968-12.343-2.493
	C341.68,495.018,339.187,496.679,337.566,498.341z"/>
<path fill="#D3B86A" d="M214.218,498.341c-0.268,0.274,22.69-1.306,22.69-1.306s-6.109-2.968-12.343-2.493
	C218.332,495.018,215.838,496.679,214.218,498.341z"/>
<path fill="#D3B86A" d="M690.303,453.906c-0.268,0.274,22.691-1.306,22.691-1.306s-6.109-2.968-12.344-2.493
	C694.417,450.583,691.924,452.244,690.303,453.906z"/>
<g>
	<path fill="#E6E4D7" d="M719.713,98.003c-0.049,3.17-0.082,5.493-0.082,5.493l-104.613,0.729
		c11.865-2.702,23.652-6.429,35.809-7.912C674.092,93.949,697.357,90.44,719.713,98.003z"/>
	<path fill="#F8F3E4" d="M488.123,103.663c8.188-4.146,32.26-15.773,47.49-17.23c16.996-1.626,21.244,1.199,22.553,3.242
		c1.307,2.043,23.533-16.248,45.924-17.874c22.084-1.604,32.195,4.064,39.059,10.975c6.863,6.91,8.82-23.789,45.105-22.356
		c30.889,1.22,31.705,18.698,31.705,19.917c0,0.823-0.15,11.083-0.246,17.667c-22.355-7.563-45.621-4.054-68.887-1.69
		c-12.156,1.483-23.943,5.21-35.809,7.912l-53.154,0.371c-14.012-2.525-28.025-5.844-42.037-5.844
		C508.781,98.752,498.281,100.575,488.123,103.663z"/>
	<path fill="#E6E4D7" d="M488.123,103.663c10.158-3.087,20.658-4.91,31.703-4.91c14.012,0,28.025,3.319,42.037,5.844l-76.586,0.534
		C485.277,105.13,486.322,104.574,488.123,103.663z"/>
</g>
<polygon fill="#9B9191" points="102.693,295.087 37.695,271.731 0,287.417 0,324 46.49,317.605 "/>
<g>
	<path fill="#F7F4E4" d="M636.562,39.111l-3.067,462.888h38.992l-3.174-479.048C656.525,23.976,644.647,28.631,636.562,39.111z"/>
	<path fill="#C7B38A" d="M636.812,0l-0.251,43.527c8.086-12.039,19.964-17.387,32.751-18.564L669.168,0H636.812z"/>
	<path fill="#715F4D" d="M634.995,205.329c0,0,14.469-1.503,17.477,0s-17.379,7.5-17.477,11.003S634.995,205.329,634.995,205.329z"
		/>
	<path fill="#715F4D" d="M670.656,240.887c0,0-15,5.167-18.5,5.167s10,2,18.5,0V240.887z"/>
	<path fill="#715F4D" d="M669.656,40.289c0,0-15,5.167-18.5,5.167s10,2,18.5,0V40.289z"/>
	<polygon fill="#816760" points="634.823,283.394 651.069,284.832 655.507,287.332 648.819,291.439 657.263,293.235 
		650.976,296.649 657.263,298.625 657.263,298.625 634.691,303.145 	"/>
	<path opacity="0.7" fill="#87755E" d="M646.4,503.999c3.574,0,25.783,0,25.783,0L672.109,479c0,0-7.062-38.536-14.248-43.805
		c-5.294-3.881-8.982-7.943-13.062-13.724l1.635,34.526L646.4,503.999z"/>
	<path opacity="0.9" fill="#816760" d="M633.191,503.999H646.4c0,0,1.681-80.107-4.027-97.117c-5.709-17.01-8.256-17.8-8.256-17.8
		L633.191,503.999z"/>
	<path fill="#826751" d="M671.514,367.377l-25.536-1.75c0,0,18.999-7.752,25.515-8.002L671.514,367.377z"/>
	<path fill="#826751" d="M672.636,174.251c0,0-6.965-0.995-14.715-1.745s13.43,12.25,14.715,9.25V174.251z"/>
	<path fill="#B1A384" d="M636.163,155.913c0.407-0.002,25.37-0.248,28.62-3.498s-28.598,0-28.577-3L636.163,155.913z"/>
	<path fill="#B1A384" d="M635.575,80.166c0.407-0.004,25.37-0.434,28.62-6.121s-28.598-0.001-28.577-5.251L635.575,80.166z"/>
	<path fill="#816760" d="M669.91,108.416c0,0-7.775-1.435-14.199,0c-6.423,1.435-11.832,3.048-11.832,3.048l7.1,2.331
		c0,0-6.762,2.331-7.1,2.331s5.071,0.717,6.762,1.255c1.69,0.538,2.028,2.869,2.028,2.869l17.241-0.717V108.416z"/>
</g>
<path fill="#4D5657" d="M14.787,357.145c-2.061-1.76-4.974-21.426-4.176-19.505c0.8,1.918,6.396,6.235,3.198,0.959
	c-3.198-5.276-4.796-22.224-4.796-22.224s4.955,4.477,2.397,0.8c-2.557-3.677-3.997-21.745-3.997-21.745s4.797,3.678,1.919,0
	c-2.878-3.676-5.915-35.652-5.915-35.652s-1.695,17.832-3.751,28.394v69.399c2.076-0.207,3.751-0.426,3.751-0.426
	S16.847,358.903,14.787,357.145z"/>
<polygon fill="#E0E6D2" points="537.737,323.144 535.989,325.133 256.992,325.371 266.146,324.258 "/>
<ellipse fill="#E0E6D2" cx="509.457" cy="366.01" rx="15.913" ry="1.368"/>
<polygon fill="#E0E6D2" points="534.527,328.092 532.779,330.081 253.782,330.319 262.936,329.206 "/>
<path fill="#313B3C" d="M26.792,358.549c-2.136-1.568-5.158-19.104-4.331-17.392c0.829,1.711,6.632,5.56,3.317,0.854
	c-3.317-4.703-4.974-19.814-4.974-19.814s5.14,3.992,2.485,0.712c-2.651-3.278-4.145-19.388-4.145-19.388s4.976,3.278,1.99,0
	c-2.984-3.278-6.134-31.79-6.134-31.79s-3.15,28.512-6.134,31.79c-2.985,3.278,1.988,0,1.988,0s-1.492,16.109-4.146,19.388
	c-2.653,3.28,2.487-0.712,2.487-0.712s-1.656,15.111-4.974,19.814c-3.316,4.705,2.486,0.856,3.317-0.854
	c0.827-1.712-2.195,15.823-4.331,17.392c-2.137,1.566,11.791,0,11.791,0S28.928,360.115,26.792,358.549z"/>
<g>
	<path fill="#E6E4D7" d="M0.496,43.904c0.047,3.099,0.082,5.37,0.082,5.37l104.613,0.713c-11.866-2.641-23.653-6.286-35.809-7.735
		C46.117,39.94,22.851,36.51,0.496,43.904z"/>
	<path fill="#F8F3E4" d="M232.086,49.437c-8.188-4.054-32.261-15.42-47.49-16.845c-16.997-1.589-21.246,1.172-22.553,3.169
		c-1.307,1.997-23.533-15.885-45.923-17.475C94.034,16.718,83.924,22.26,77.06,29.016c-6.864,6.755-8.82-23.258-45.106-21.856
		C1.066,8.352,0.249,25.439,0.249,26.631c0,0.805,0.15,10.835,0.247,17.273c22.355-7.395,45.621-3.964,68.887-1.652
		c12.156,1.45,23.942,5.094,35.809,7.735l53.154,0.362c14.012-2.468,28.025-5.713,42.038-5.713
		C211.426,44.636,221.927,46.418,232.086,49.437z"/>
	<path fill="#E6E4D7" d="M232.086,49.437c-10.159-3.019-20.66-4.801-31.703-4.801c-14.013,0-28.025,3.245-42.038,5.713l76.586,0.522
		C234.931,50.872,233.887,50.328,232.086,49.437z"/>
</g>
<g>
	<path fill="#E6E4D7" d="M2.454,194.381c0.047,4.178,0.082,7.239,0.082,7.239l104.613,0.961
		c-11.866-3.561-23.653-8.474-35.809-10.428C48.075,189.038,24.809,184.413,2.454,194.381z"/>
	<path fill="#F8F3E4" d="M234.043,201.84c-8.188-5.465-32.261-20.789-47.49-22.709c-16.997-2.143-21.246,1.58-22.553,4.272
		c-1.307,2.692-23.533-21.415-45.923-23.558c-22.085-2.114-32.195,5.357-39.059,14.464c-6.864,9.107-8.82-31.354-45.106-29.465
		c-30.888,1.608-31.705,24.644-31.705,26.25c0,1.085,0.15,14.607,0.247,23.286c22.355-9.969,45.621-5.343,68.887-2.227
		c12.156,1.954,23.942,6.867,35.809,10.428l53.154,0.489c14.012-3.328,28.025-7.702,42.038-7.702
		C213.384,195.369,223.884,197.771,234.043,201.84z"/>
	<path fill="#E6E4D7" d="M234.043,201.84c-10.159-4.07-20.66-6.472-31.703-6.472c-14.013,0-28.025,4.374-42.038,7.702l76.586,0.704
		C236.889,203.775,235.844,203.042,234.043,201.84z"/>
</g>
<path fill="#313B3C" d="M548.895,420.638c-3.394-2.492-8.196-30.353-6.881-27.632c1.317,2.718,10.537,8.833,5.271,1.357
	c-5.271-7.474-7.902-31.482-7.902-31.482s8.166,6.343,3.949,1.132c-4.213-5.209-6.585-30.805-6.585-30.805s7.904,5.209,3.161,0
	c-4.741-5.209-9.745-50.509-9.745-50.509s-5.006,45.3-9.746,50.509c-4.743,5.209,3.16,0,3.16,0s-2.372,25.596-6.588,30.805
	c-4.215,5.211,3.953-1.132,3.953-1.132s-2.633,24.009-7.902,31.482c-5.27,7.476,3.949,1.36,5.27-1.357
	c1.315-2.721-3.487,25.14-6.881,27.632c-3.395,2.489,18.734,0,18.734,0S552.288,423.127,548.895,420.638z"/>
<g opacity="0.9">
	<polygon fill="#B2A598" points="190.82,259.777 29.5,324.413 250.833,323.909 	"/>
	<polygon fill="#B2A598" points="129.5,323.833 246.686,266.174 303.981,292.534 329.002,323.959 	"/>
	<polygon fill="#847777" points="365.449,309.864 246.686,266.174 289.003,291.839 255.754,287.054 317.333,324 405.44,323.993 	"/>
	<polygon fill="#847777" points="205.617,287.417 234.878,272.281 190.82,259.777 200.436,270.995 190.82,273.267 	"/>
</g>
<g>
	<g>
		<path fill="#4D5657" d="M81.486,325.125c-0.659-0.311-1.59-3.77-1.335-3.433c0.256,0.338,2.044,1.098,1.023,0.169
			c-1.023-0.929-1.533-3.91-1.533-3.91s1.584,0.788,0.766,0.141s-1.278-3.825-1.278-3.825s1.535,0.646,0.614,0
			c-0.92-0.648-1.892-6.274-1.892-6.274s-0.971,5.626-1.891,6.274c-0.921,0.646,0.613,0,0.613,0s-0.46,3.178-1.279,3.825
			c-0.817,0.647,0.768-0.141,0.768-0.141s-0.511,2.981-1.533,3.91c-1.023,0.929,0.766,0.169,1.022-0.169
			c0.255-0.337-0.676,3.122-1.335,3.433c-0.659,0.309,3.635,0,3.635,0S82.145,325.434,81.486,325.125z"/>
		<path fill="#677070" d="M85.768,325.125c-0.658-0.311-1.59-3.77-1.335-3.433c0.256,0.338,2.044,1.098,1.023,0.169
			c-1.023-0.929-1.534-3.91-1.534-3.91s1.584,0.788,0.767,0.141s-1.278-3.825-1.278-3.825s1.534,0.646,0.614,0
			c-0.92-0.648-1.891-6.274-1.891-6.274s-0.972,5.626-1.892,6.274c-0.92,0.646,0.613,0,0.613,0s-0.46,3.178-1.279,3.825
			c-0.817,0.647,0.768-0.141,0.768-0.141s-0.511,2.981-1.533,3.91c-1.023,0.929,0.766,0.169,1.022-0.169
			c0.255-0.337-0.676,3.122-1.335,3.433c-0.659,0.309,3.636,0,3.636,0S86.427,325.434,85.768,325.125z"/>
		<path fill="#677070" d="M77.211,325.142c-0.573-0.27-1.385-3.285-1.163-2.991c0.222,0.295,1.781,0.957,0.891,0.147
			c-0.891-0.809-1.336-3.407-1.336-3.407s1.381,0.687,0.667,0.122c-0.712-0.564-1.114-3.334-1.114-3.334s1.337,0.563,0.535,0
			c-0.802-0.565-1.648-5.468-1.648-5.468s-0.847,4.902-1.648,5.468c-0.802,0.563,0.535,0,0.535,0s-0.401,2.77-1.115,3.334
			c-0.712,0.564,0.669-0.122,0.669-0.122s-0.445,2.599-1.336,3.407c-0.892,0.81,0.667,0.147,0.891-0.147
			c0.223-0.294-0.589,2.722-1.164,2.991c-0.574,0.27,3.169,0,3.169,0S77.786,325.411,77.211,325.142z"/>
		<path fill="#677070" d="M93.118,325.578c-0.574-0.271-1.386-3.285-1.164-2.991c0.223,0.294,1.782,0.956,0.891,0.146
			c-0.891-0.809-1.336-3.407-1.336-3.407s1.381,0.687,0.668,0.122c-0.712-0.564-1.114-3.334-1.114-3.334s1.337,0.564,0.535,0
			c-0.802-0.564-1.648-5.468-1.648-5.468s-0.847,4.903-1.649,5.468c-0.802,0.564,0.535,0,0.535,0s-0.401,2.77-1.114,3.334
			s0.668-0.122,0.668-0.122s-0.445,2.599-1.336,3.407c-0.892,0.81,0.668,0.147,0.891-0.146c0.223-0.294-0.589,2.721-1.164,2.991
			c-0.574,0.269,3.169,0,3.169,0S93.692,325.847,93.118,325.578z"/>
		<path fill="#677070" d="M99.628,325.133c-0.615-0.289-1.485-3.522-1.247-3.207c0.239,0.316,1.91,1.026,0.956,0.157
			c-0.956-0.866-1.433-3.653-1.433-3.653s1.48,0.736,0.716,0.131c-0.764-0.604-1.194-3.574-1.194-3.574s1.434,0.604,0.573,0
			c-0.86-0.605-1.767-5.863-1.767-5.863s-0.908,5.258-1.768,5.863c-0.86,0.604,0.573,0,0.573,0s-0.43,2.97-1.195,3.574
			c-0.764,0.605,0.717-0.131,0.717-0.131s-0.478,2.787-1.433,3.653c-0.956,0.869,0.716,0.159,0.956-0.157
			c0.239-0.315-0.632,2.918-1.248,3.207c-0.615,0.29,3.398,0,3.398,0S100.244,325.423,99.628,325.133z"/>
		<path fill="#4D5657" d="M89.169,325.229c-0.574-0.27-1.386-3.285-1.164-2.991c0.223,0.295,1.782,0.957,0.892,0.146
			c-0.892-0.809-1.337-3.406-1.337-3.406s1.381,0.687,0.668,0.121c-0.712-0.563-1.114-3.333-1.114-3.333s1.338,0.563,0.535,0
			c-0.802-0.565-1.648-5.469-1.648-5.469s-0.847,4.903-1.648,5.469c-0.802,0.563,0.535,0,0.535,0s-0.401,2.77-1.115,3.333
			c-0.712,0.565,0.669-0.121,0.669-0.121s-0.445,2.598-1.336,3.406c-0.892,0.811,0.667,0.148,0.891-0.146
			c0.223-0.294-0.589,2.722-1.164,2.991s3.168,0,3.168,0S89.744,325.499,89.169,325.229z"/>
		<path fill="#4D5657" d="M95.537,325.593c-0.501-0.235-1.21-2.87-1.016-2.612c0.195,0.257,1.556,0.835,0.779,0.128
			c-0.779-0.707-1.168-2.977-1.168-2.977s1.207,0.6,0.584,0.106c-0.623-0.493-0.973-2.912-0.973-2.912s1.168,0.493,0.467,0
			s-1.44-4.776-1.44-4.776s-0.74,4.283-1.44,4.776s0.467,0,0.467,0s-0.351,2.419-0.974,2.912c-0.623,0.493,0.584-0.106,0.584-0.106
			s-0.389,2.27-1.167,2.977c-0.779,0.707,0.583,0.129,0.778-0.128c0.195-0.258-0.515,2.377-1.016,2.612
			c-0.502,0.235,2.768,0,2.768,0S96.039,325.828,95.537,325.593z"/>
		<path fill="#4D5657" d="M101.219,324.994c-0.452-0.214-1.093-2.593-0.917-2.359c0.175,0.232,1.405,0.754,0.703,0.115
			c-0.703-0.638-1.055-2.688-1.055-2.688s1.09,0.541,0.527,0.096s-0.878-2.629-0.878-2.629s1.055,0.445,0.422,0
			s-1.3-4.313-1.3-4.313s-0.668,3.868-1.3,4.313s0.422,0,0.422,0s-0.316,2.184-0.879,2.629c-0.562,0.445,0.527-0.096,0.527-0.096
			s-0.352,2.05-1.054,2.688c-0.703,0.639,0.527,0.117,0.703-0.115c0.176-0.233-0.464,2.146-0.917,2.359c-0.453,0.213,2.5,0,2.5,0
			S101.673,325.207,101.219,324.994z"/>
	</g>
	<g>
		<path fill="#4D5657" d="M110.364,324.907c-0.659-0.311-1.59-3.77-1.335-3.433c0.256,0.338,2.044,1.098,1.023,0.169
			c-1.023-0.929-1.533-3.91-1.533-3.91s1.584,0.788,0.766,0.141s-1.278-3.825-1.278-3.825s1.535,0.646,0.614,0
			c-0.92-0.648-1.892-6.274-1.892-6.274s-0.971,5.626-1.891,6.274c-0.921,0.646,0.613,0,0.613,0s-0.46,3.178-1.279,3.825
			c-0.817,0.647,0.768-0.141,0.768-0.141s-0.511,2.981-1.533,3.91c-1.023,0.929,0.766,0.169,1.022-0.169
			c0.255-0.337-0.676,3.122-1.335,3.433c-0.659,0.309,3.635,0,3.635,0S111.022,325.216,110.364,324.907z"/>
		<path fill="#677070" d="M114.645,324.907c-0.658-0.311-1.59-3.77-1.335-3.433c0.256,0.338,2.044,1.098,1.023,0.169
			c-1.023-0.929-1.534-3.91-1.534-3.91s1.584,0.788,0.767,0.141s-1.278-3.825-1.278-3.825s1.534,0.646,0.614,0
			c-0.92-0.648-1.891-6.274-1.891-6.274s-0.972,5.626-1.892,6.274c-0.92,0.646,0.613,0,0.613,0s-0.46,3.178-1.279,3.825
			c-0.817,0.647,0.768-0.141,0.768-0.141s-0.511,2.981-1.533,3.91c-1.023,0.929,0.766,0.169,1.022-0.169
			c0.255-0.337-0.676,3.122-1.335,3.433c-0.659,0.309,3.636,0,3.636,0S115.304,325.216,114.645,324.907z"/>
		<path fill="#677070" d="M106.089,324.924c-0.573-0.27-1.385-3.285-1.163-2.991c0.222,0.295,1.781,0.957,0.891,0.147
			c-0.891-0.809-1.336-3.407-1.336-3.407s1.381,0.687,0.667,0.122c-0.712-0.564-1.114-3.334-1.114-3.334s1.337,0.563,0.535,0
			c-0.802-0.565-1.648-5.468-1.648-5.468s-0.847,4.902-1.648,5.468c-0.802,0.563,0.535,0,0.535,0s-0.401,2.77-1.115,3.334
			c-0.712,0.564,0.669-0.122,0.669-0.122s-0.445,2.599-1.336,3.407c-0.892,0.81,0.667,0.147,0.891-0.147
			c0.223-0.294-0.589,2.722-1.164,2.991c-0.574,0.27,3.169,0,3.169,0S106.664,325.193,106.089,324.924z"/>
		<path fill="#677070" d="M121.996,325.36c-0.574-0.271-1.386-3.285-1.164-2.991c0.223,0.294,1.782,0.956,0.891,0.146
			c-0.891-0.809-1.336-3.407-1.336-3.407s1.381,0.687,0.668,0.122c-0.712-0.564-1.114-3.334-1.114-3.334s1.337,0.564,0.535,0
			c-0.802-0.564-1.648-5.468-1.648-5.468s-0.847,4.903-1.649,5.468c-0.802,0.564,0.535,0,0.535,0s-0.401,2.77-1.114,3.334
			s0.668-0.122,0.668-0.122s-0.445,2.599-1.336,3.407c-0.892,0.81,0.668,0.147,0.891-0.146c0.223-0.294-0.589,2.721-1.164,2.991
			c-0.574,0.269,3.169,0,3.169,0S122.57,325.629,121.996,325.36z"/>
		<path fill="#677070" d="M128.505,324.915c-0.615-0.289-1.485-3.522-1.247-3.207c0.239,0.316,1.91,1.026,0.956,0.157
			c-0.956-0.866-1.433-3.653-1.433-3.653s1.48,0.736,0.716,0.131c-0.764-0.604-1.194-3.574-1.194-3.574s1.434,0.604,0.573,0
			c-0.86-0.605-1.767-5.863-1.767-5.863s-0.908,5.258-1.768,5.863c-0.86,0.604,0.573,0,0.573,0s-0.43,2.97-1.195,3.574
			c-0.764,0.605,0.717-0.131,0.717-0.131s-0.478,2.787-1.433,3.653c-0.956,0.869,0.716,0.159,0.956-0.157
			c0.239-0.315-0.632,2.918-1.248,3.207c-0.615,0.29,3.398,0,3.398,0S129.122,325.205,128.505,324.915z"/>
		<path fill="#4D5657" d="M118.047,325.012c-0.574-0.27-1.386-3.285-1.164-2.991c0.223,0.295,1.782,0.957,0.892,0.146
			c-0.892-0.809-1.337-3.406-1.337-3.406s1.381,0.687,0.668,0.121c-0.712-0.563-1.114-3.333-1.114-3.333s1.338,0.563,0.535,0
			c-0.802-0.565-1.648-5.469-1.648-5.469s-0.847,4.903-1.648,5.469c-0.802,0.563,0.535,0,0.535,0s-0.401,2.77-1.115,3.333
			c-0.712,0.565,0.669-0.121,0.669-0.121s-0.445,2.598-1.336,3.406c-0.892,0.811,0.667,0.148,0.891-0.146
			c0.223-0.294-0.589,2.722-1.164,2.991s3.168,0,3.168,0S118.621,325.281,118.047,325.012z"/>
		<path fill="#4D5657" d="M124.415,325.375c-0.501-0.235-1.21-2.87-1.016-2.612c0.195,0.257,1.556,0.835,0.779,0.128
			c-0.779-0.707-1.168-2.977-1.168-2.977s1.207,0.6,0.584,0.106c-0.623-0.493-0.973-2.912-0.973-2.912s1.168,0.493,0.467,0
			s-1.44-4.776-1.44-4.776s-0.74,4.283-1.44,4.776s0.467,0,0.467,0s-0.351,2.419-0.974,2.912c-0.623,0.493,0.584-0.106,0.584-0.106
			s-0.389,2.27-1.167,2.977c-0.779,0.707,0.583,0.129,0.778-0.128c0.195-0.258-0.515,2.377-1.016,2.612
			c-0.502,0.235,2.768,0,2.768,0S124.917,325.61,124.415,325.375z"/>
		<path fill="#4D5657" d="M130.097,324.776c-0.452-0.214-1.093-2.593-0.917-2.359c0.175,0.232,1.405,0.754,0.703,0.115
			c-0.703-0.638-1.055-2.688-1.055-2.688s1.09,0.541,0.527,0.096s-0.878-2.629-0.878-2.629s1.055,0.445,0.422,0
			s-1.3-4.313-1.3-4.313s-0.668,3.868-1.3,4.313s0.422,0,0.422,0s-0.316,2.184-0.879,2.629c-0.562,0.445,0.527-0.096,0.527-0.096
			s-0.352,2.05-1.054,2.688c-0.703,0.639,0.527,0.117,0.703-0.115c0.176-0.233-0.464,2.146-0.917,2.359c-0.453,0.213,2.5,0,2.5,0
			S130.55,324.989,130.097,324.776z"/>
	</g>
	<g>
		<path fill="#4D5657" d="M137.364,324.689c-0.659-0.311-1.59-3.77-1.335-3.433c0.256,0.338,2.044,1.098,1.023,0.169
			c-1.023-0.929-1.533-3.91-1.533-3.91s1.584,0.788,0.766,0.141s-1.278-3.825-1.278-3.825s1.535,0.646,0.614,0
			c-0.92-0.648-1.892-6.274-1.892-6.274s-0.971,5.626-1.891,6.274c-0.921,0.646,0.613,0,0.613,0s-0.46,3.178-1.279,3.825
			c-0.817,0.647,0.768-0.141,0.768-0.141s-0.511,2.981-1.533,3.91c-1.023,0.929,0.766,0.169,1.022-0.169
			c0.255-0.337-0.676,3.122-1.335,3.433c-0.659,0.309,3.635,0,3.635,0S138.022,324.998,137.364,324.689z"/>
		<path fill="#677070" d="M141.645,324.689c-0.658-0.311-1.59-3.77-1.335-3.433c0.256,0.338,2.044,1.098,1.023,0.169
			c-1.023-0.929-1.534-3.91-1.534-3.91s1.584,0.788,0.767,0.141s-1.278-3.825-1.278-3.825s1.534,0.646,0.614,0
			c-0.92-0.648-1.891-6.274-1.891-6.274s-0.972,5.626-1.892,6.274c-0.92,0.646,0.613,0,0.613,0s-0.46,3.178-1.279,3.825
			c-0.817,0.647,0.768-0.141,0.768-0.141s-0.511,2.981-1.533,3.91c-1.023,0.929,0.766,0.169,1.022-0.169
			c0.255-0.337-0.676,3.122-1.335,3.433c-0.659,0.309,3.636,0,3.636,0S142.304,324.998,141.645,324.689z"/>
		<path fill="#677070" d="M133.089,324.706c-0.573-0.27-1.385-3.285-1.163-2.991c0.222,0.295,1.781,0.957,0.891,0.147
			c-0.891-0.809-1.336-3.407-1.336-3.407s1.381,0.687,0.667,0.122c-0.712-0.564-1.114-3.334-1.114-3.334s1.337,0.563,0.535,0
			c-0.802-0.565-1.648-5.468-1.648-5.468s-0.847,4.902-1.648,5.468c-0.802,0.563,0.535,0,0.535,0s-0.401,2.77-1.115,3.334
			c-0.712,0.564,0.669-0.122,0.669-0.122s-0.445,2.599-1.336,3.407c-0.892,0.81,0.667,0.147,0.891-0.147
			c0.223-0.294-0.589,2.722-1.164,2.991c-0.574,0.27,3.169,0,3.169,0S133.664,324.976,133.089,324.706z"/>
		<path fill="#677070" d="M148.996,325.143c-0.574-0.271-1.386-3.285-1.164-2.991c0.223,0.294,1.782,0.956,0.891,0.146
			c-0.891-0.809-1.336-3.407-1.336-3.407s1.381,0.687,0.668,0.122c-0.712-0.564-1.114-3.334-1.114-3.334s1.337,0.564,0.535,0
			c-0.802-0.564-1.648-5.468-1.648-5.468s-0.847,4.903-1.649,5.468c-0.802,0.564,0.535,0,0.535,0s-0.401,2.77-1.114,3.334
			s0.668-0.122,0.668-0.122s-0.445,2.599-1.336,3.407c-0.892,0.81,0.668,0.147,0.891-0.146c0.223-0.294-0.589,2.721-1.164,2.991
			c-0.574,0.269,3.169,0,3.169,0S149.57,325.411,148.996,325.143z"/>
		<path fill="#677070" d="M155.505,324.697c-0.615-0.289-1.485-3.522-1.247-3.207c0.239,0.316,1.91,1.026,0.956,0.157
			c-0.956-0.866-1.433-3.653-1.433-3.653s1.48,0.736,0.716,0.131c-0.764-0.604-1.194-3.574-1.194-3.574s1.434,0.604,0.573,0
			c-0.86-0.605-1.767-5.863-1.767-5.863s-0.908,5.258-1.768,5.863c-0.86,0.604,0.573,0,0.573,0s-0.43,2.97-1.195,3.574
			c-0.764,0.605,0.717-0.131,0.717-0.131s-0.478,2.787-1.433,3.653c-0.956,0.869,0.716,0.159,0.956-0.157
			c0.239-0.315-0.632,2.918-1.248,3.207c-0.615,0.29,3.398,0,3.398,0S156.122,324.987,155.505,324.697z"/>
		<path fill="#4D5657" d="M145.047,324.794c-0.574-0.27-1.386-3.285-1.164-2.991c0.223,0.295,1.782,0.957,0.892,0.146
			c-0.892-0.809-1.337-3.406-1.337-3.406s1.381,0.687,0.668,0.121c-0.712-0.563-1.114-3.333-1.114-3.333s1.338,0.563,0.535,0
			c-0.802-0.565-1.648-5.469-1.648-5.469s-0.847,4.903-1.648,5.469c-0.802,0.563,0.535,0,0.535,0s-0.401,2.77-1.115,3.333
			c-0.712,0.565,0.669-0.121,0.669-0.121s-0.445,2.598-1.336,3.406c-0.892,0.811,0.667,0.148,0.891-0.146
			c0.223-0.294-0.589,2.722-1.164,2.991s3.168,0,3.168,0S145.621,325.063,145.047,324.794z"/>
		<path fill="#4D5657" d="M151.415,325.157c-0.501-0.235-1.21-2.87-1.016-2.612c0.195,0.257,1.556,0.835,0.779,0.128
			c-0.779-0.707-1.168-2.977-1.168-2.977s1.207,0.6,0.584,0.106c-0.623-0.493-0.973-2.912-0.973-2.912s1.168,0.493,0.467,0
			s-1.44-4.776-1.44-4.776s-0.74,4.283-1.44,4.776s0.467,0,0.467,0s-0.351,2.419-0.974,2.912c-0.623,0.493,0.584-0.106,0.584-0.106
			s-0.389,2.27-1.167,2.977c-0.779,0.707,0.583,0.129,0.778-0.128c0.195-0.258-0.515,2.377-1.016,2.612
			c-0.502,0.235,2.768,0,2.768,0S151.917,325.393,151.415,325.157z"/>
		<path fill="#4D5657" d="M157.097,324.559c-0.452-0.214-1.093-2.593-0.917-2.359c0.175,0.232,1.405,0.754,0.703,0.115
			c-0.703-0.638-1.055-2.688-1.055-2.688s1.09,0.541,0.527,0.096s-0.878-2.629-0.878-2.629s1.055,0.445,0.422,0
			s-1.3-4.313-1.3-4.313s-0.668,3.868-1.3,4.313s0.422,0,0.422,0s-0.316,2.184-0.879,2.629c-0.562,0.445,0.527-0.096,0.527-0.096
			s-0.352,2.05-1.054,2.688c-0.703,0.639,0.527,0.117,0.703-0.115c0.176-0.233-0.464,2.146-0.917,2.359c-0.453,0.213,2.5,0,2.5,0
			S157.55,324.771,157.097,324.559z"/>
	</g>
	<path fill="#677070" d="M160.652,324.715c-0.431-0.203-1.041-2.468-0.874-2.247c0.167,0.222,1.338,0.719,0.669,0.11
		c-0.669-0.607-1.004-2.56-1.004-2.56s1.037,0.516,0.502,0.092s-0.836-2.504-0.836-2.504s1.004,0.424,0.401,0
		s-1.238-4.107-1.238-4.107s-0.636,3.684-1.238,4.107c-0.603,0.424,0.401,0,0.401,0s-0.301,2.08-0.837,2.504
		c-0.535,0.424,0.502-0.092,0.502-0.092s-0.334,1.952-1.004,2.56c-0.669,0.608,0.501,0.111,0.669-0.11
		c0.167-0.221-0.443,2.044-0.874,2.247s2.38,0,2.38,0S161.083,324.918,160.652,324.715z"/>
	<path fill="#677070" d="M165.771,324.737c-0.322-0.151-0.778-1.844-0.653-1.679c0.125,0.166,1,0.537,0.5,0.082
		c-0.5-0.453-0.75-1.912-0.75-1.912s0.774,0.385,0.375,0.068c-0.4-0.316-0.625-1.871-0.625-1.871s0.75,0.316,0.3,0
		s-0.925-3.069-0.925-3.069s-0.476,2.753-0.926,3.069s0.3,0,0.3,0s-0.225,1.555-0.626,1.871c-0.4,0.316,0.375-0.068,0.375-0.068
		s-0.25,1.459-0.75,1.912c-0.5,0.455,0.375,0.084,0.5-0.082c0.125-0.165-0.331,1.527-0.653,1.679c-0.322,0.152,1.779,0,1.779,0
		S166.094,324.89,165.771,324.737z"/>
</g>
<polygon fill="#F3F6E4" points="250.161,459.005 249.218,461.396 98.667,461.683 103.607,460.344 "/>
<polygon fill="#E0E6D2" points="101.405,368.838 102.348,371.229 252.898,371.516 247.959,370.177 "/>
<polygon fill="#E0E6D2" points="112.75,397.236 113.694,399.628 264.244,399.914 259.305,398.575 "/>
<polygon fill="#E0E6D2" points="80.1,343.338 81.043,345.729 231.594,346.016 226.654,344.677 "/>
<polygon fill="#E0E6D2" points="56.208,336.508 57.152,338.899 207.702,339.186 202.763,337.847 "/>
<path fill="#313B3C" d="M93.509,387.199c-1.719-1.262-4.151-15.374-3.485-13.996c0.667,1.377,5.337,4.475,2.669,0.688
	c-2.669-3.784-4.002-15.945-4.002-15.945s4.136,3.213,2,0.572c-2.133-2.638-3.335-15.603-3.335-15.603s4.004,2.639,1.602,0
	c-2.402-2.638-4.937-25.583-4.937-25.583s-2.535,22.945-4.936,25.583c-2.402,2.639,1.6,0,1.6,0s-1.201,12.965-3.336,15.603
	c-2.135,2.641,2.002-0.572,2.002-0.572s-1.333,12.161-4.002,15.945c-2.669,3.787,2,0.689,2.669-0.688
	c0.666-1.378-1.767,12.734-3.485,13.996c-1.72,1.261,9.489,0,9.489,0S95.228,388.46,93.509,387.199z"/>
<polygon fill="#F3F6E4" points="212.049,470.388 211.404,472.377 108.557,472.615 111.931,471.502 "/>
<ellipse fill="#CED3BE" cx="99.5" cy="470.322" rx="11.5" ry="1.781"/>
<ellipse fill="#CED3BE" cx="78.428" cy="469.921" rx="5.75" ry="1.167"/>
<ellipse fill="#CED3BE" cx="23.081" cy="478.158" rx="11.5" ry="1.781"/>
<path fill="#4D5657" d="M83.798,385.101c-2.136-1.568-5.158-19.104-4.331-17.392c0.829,1.711,6.632,5.56,3.317,0.854
	c-3.317-4.703-4.974-19.814-4.974-19.814s5.14,3.992,2.485,0.712c-2.651-3.278-4.145-19.388-4.145-19.388s4.976,3.278,1.99,0
	c-2.984-3.278-6.134-31.79-6.134-31.79s-3.15,28.512-6.134,31.79c-2.985,3.278,1.988,0,1.988,0s-1.492,16.109-4.146,19.388
	c-2.653,3.28,2.487-0.712,2.487-0.712s-1.656,15.111-4.974,19.814c-3.316,4.705,2.486,0.856,3.317-0.854
	c0.827-1.712-2.195,15.823-4.331,17.392c-2.137,1.566,11.791,0,11.791,0S85.934,386.667,83.798,385.101z"/>
<path fill="#4D5657" d="M104.429,392.767c-1.728-1.269-4.173-15.456-3.504-14.071c0.67,1.384,5.365,4.498,2.684,0.691
	c-2.684-3.806-4.024-16.032-4.024-16.032s4.159,3.23,2.011,0.576c-2.145-2.652-3.353-15.687-3.353-15.687s4.025,2.653,1.61,0
	c-2.415-2.652-4.963-25.721-4.963-25.721s-2.549,23.068-4.963,25.721c-2.416,2.653,1.609,0,1.609,0s-1.208,13.034-3.354,15.687
	c-2.146,2.654,2.013-0.576,2.013-0.576s-1.34,12.227-4.024,16.032c-2.684,3.807,2.011,0.692,2.684-0.691
	c0.669-1.385-1.776,12.803-3.504,14.071c-1.729,1.268,9.54,0,9.54,0S106.157,394.034,104.429,392.767z"/>
<ellipse fill="#CED3BE" cx="72.007" cy="476.688" rx="15.913" ry="2.001"/>
<g>
	<ellipse fill="#CED3BE" cx="370.409" cy="466.587" rx="5.75" ry="1.167"/>
	<ellipse fill="#CED3BE" cx="419.25" cy="459.005" rx="5.75" ry="1.167"/>
	<ellipse fill="#CED3BE" cx="353.477" cy="473.354" rx="15.914" ry="2.001"/>
</g>
<g>
	<ellipse fill="#E0E6D2" cx="462.33" cy="396.092" rx="5.75" ry="0.798"/>
	<ellipse fill="#E0E6D2" cx="511.17" cy="390.905" rx="5.75" ry="0.799"/>
	<ellipse fill="#E0E6D2" cx="445.397" cy="400.721" rx="15.913" ry="1.368"/>
</g>
<g>
	<ellipse fill="#E0E6D2" cx="163.542" cy="381.07" rx="5.75" ry="0.798"/>
	<ellipse fill="#E0E6D2" cx="212.382" cy="375.884" rx="5.75" ry="0.799"/>
	<ellipse fill="#E0E6D2" cx="146.609" cy="385.699" rx="15.913" ry="1.368"/>
</g>
<g>
	<ellipse fill="#E0E6D2" cx="153.121" cy="355.688" rx="5.75" ry="0.798"/>
	<ellipse fill="#E0E6D2" cx="201.96" cy="350.502" rx="5.75" ry="0.799"/>
	<ellipse fill="#E0E6D2" cx="136.188" cy="360.317" rx="15.913" ry="1.368"/>
</g>
<g>
	<ellipse fill="#E0E6D2" cx="131.727" cy="333.593" rx="5.75" ry="0.798"/>
	<ellipse fill="#E0E6D2" cx="180.566" cy="328.406" rx="5.75" ry="0.799"/>
	<ellipse fill="#E0E6D2" cx="114.794" cy="338.222" rx="15.913" ry="1.368"/>
</g>
<g>
	<ellipse fill="#E0E6D2" cx="100.778" cy="410.995" rx="5.75" ry="0.798"/>
	<ellipse fill="#E0E6D2" cx="149.618" cy="405.809" rx="5.75" ry="0.799"/>
	<ellipse fill="#E0E6D2" cx="83.845" cy="415.624" rx="15.913" ry="1.368"/>
</g>
<ellipse fill="#E0E6D2" cx="460.871" cy="424.881" rx="5.75" ry="0.798"/>
<ellipse fill="#E0E6D2" cx="500.774" cy="376.372" rx="5.75" ry="0.799"/>
<ellipse fill="#E0E6D2" cx="443.938" cy="429.51" rx="15.913" ry="1.368"/>
<path fill="#4D5657" d="M45.319,358.504c-2.867-1.76-6.92-21.426-5.81-19.505c1.112,1.918,8.897,6.235,4.449,0.959
	c-4.449-5.276-6.672-22.224-6.672-22.224s6.894,4.477,3.335,0.8c-3.557-3.677-5.561-21.745-5.561-21.745s6.673,3.678,2.669,0
	c-4.004-3.676-8.229-35.652-8.229-35.652s-4.228,31.977-8.229,35.652c-4.005,3.678,2.667,0,2.667,0s-2,18.068-5.562,21.745
	c-3.557,3.677,3.338-0.8,3.338-0.8s-2.226,16.947-6.672,22.224c-4.451,5.276,3.334,0.959,4.447-0.959
	c1.113-1.921-2.944,17.745-5.81,19.505c-2.867,1.759,15.82,0,15.82,0S48.185,360.263,45.319,358.504z"/>
<g>
	<path fill="#FFFDF3" d="M47.8,25.657L29.5,503.999l34.001-0.03L75.742,9.911C65.003,10.629,54.907,15.101,47.8,25.657z"/>
	<path fill="#C7B38A" d="M48.835-0.715l-1.139,29.707c7.027-8.007,17.087-11.346,27.819-11.815l0.407-17.735L48.835-0.715z"/>
	<path opacity="0.7" fill="#715F4D" d="M41.398,201.667c0,0,14.509-1.051,17.468,0.546s-17.605,6.954-17.812,10.452
		C40.847,216.163,41.398,201.667,41.398,201.667z"/>
	<path fill="#715F4D" d="M69.981,260.802c0,0-15.154,4.695-18.652,4.586c-3.499-0.109,9.933,2.312,18.491,0.578L69.981,260.802z"/>
	<path fill="#715F4D" d="M75.32,40.208c0,0-15.154,4.696-18.652,4.586s9.933,2.312,18.491,0.578L75.32,40.208z"/>
	<polygon opacity="0.7" fill="#816760" points="37.738,292.308 53.951,293.625 58.342,295.171 51.586,297.275 59.994,298.55 
		53.649,300.275 59.899,301.584 59.899,301.584 37.259,303.424 	"/>
	<path fill="#826751" d="M66.012,394.183l-13.836-2.184c0,0,10.577-7.425,14.129-7.563L66.012,394.183z"/>
	<path fill="#826751" d="M72.007,167.867c0,0-6.93-1.212-14.653-2.204c-7.723-0.992,13.041,12.664,14.419,9.705L72.007,167.867z"/>
	<path fill="#B1A384" d="M34.581,362.958c0.407,0.01,25.366,0.545,28.716-2.602c3.35-3.146-28.584-0.895-28.47-3.893L34.581,362.958
		z"/>
	<path opacity="0.8" fill="#B1A384" d="M45.953,83.677c0.382,0.009,23.801,0.441,26.972-3.431c3.172-3.872-26.817-0.84-26.684-4.5
		L45.953,83.677z"/>
	<path opacity="0.7" fill="#816760" d="M73.004,119.12c0,0-5.918-0.935-10.852-0.339c-4.932,0.595-9.092,1.309-9.092,1.309
		l5.388,1.387c0,0-5.206,1.055-5.463,1.047c-0.258-0.008,3.863,0.495,5.146,0.817c1.283,0.321,1.503,1.546,1.503,1.546l13.188,0.038
		L73.004,119.12z"/>
	<path opacity="0.6" fill="#826751" d="M39.77,503.999H29.5l1.915-49.796C31.415,454.203,39.998,457.96,39.77,503.999z"/>
</g>
<g>
	<path fill="#FFFDF3" d="M583.372,25.449l11.502,461.599l-21.371-0.028l-7.694-476.766
		C572.559,10.947,578.904,15.262,583.372,25.449z"/>
	<path fill="#C7B38A" d="M582.721,0l0.716,28.667c-4.417-7.727-10.739-10.949-17.484-11.402L565.695,0.15L582.721,0z"/>
	<path opacity="0.7" fill="#715F4D" d="M587.396,195.297c0,0-9.12-1.013-10.98,0.527c-1.859,1.541,11.066,6.71,11.196,10.086
		C587.742,209.287,587.396,195.297,587.396,195.297z"/>
	<path fill="#715F4D" d="M569.43,252.363c0,0,9.525,4.53,11.724,4.426c2.199-0.106-6.242,2.229-11.622,0.557L569.43,252.363z"/>
	<path fill="#715F4D" d="M566.074,39.491c0,0,9.525,4.531,11.724,4.425c2.198-0.105-6.243,2.231-11.622,0.559L566.074,39.491z"/>
	<polygon opacity="0.7" fill="#816760" points="589.422,282.902 579.231,284.174 576.472,285.666 580.718,287.696 575.434,288.926 
		579.421,290.592 575.493,291.854 575.493,291.854 589.724,293.63 	"/>
	<path fill="#826751" d="M571.925,381.076l8.696-2.108c0,0-6.648-7.165-8.881-7.299L571.925,381.076z"/>
	<path fill="#826751" d="M568.156,162.681c0,0,4.356-1.169,9.21-2.127c4.854-0.957-8.196,12.221-9.062,9.365L568.156,162.681z"/>
	<path fill="#B1A384" d="M591.681,350.943c-0.256,0.01-15.943,0.526-18.05-2.511c-2.105-3.036,17.967-0.863,17.895-3.756
		L591.681,350.943z"/>
	<path opacity="0.8" fill="#B1A384" d="M584.533,81.438c-0.24,0.009-14.96,0.426-16.953-3.311
		c-1.994-3.737,16.855-0.81,16.771-4.343L584.533,81.438z"/>
	<path opacity="0.7" fill="#816760" d="M567.529,115.641c0,0,3.721-0.902,6.82-0.328c3.101,0.575,5.715,1.264,5.715,1.264
		l-3.386,1.338c0,0,3.271,1.018,3.434,1.011c0.162-0.008-2.428,0.478-3.234,0.788c-0.807,0.31-0.945,1.492-0.945,1.492l-8.289,0.037
		L567.529,115.641z"/>
	<path opacity="0.6" fill="#826751" d="M588.419,487.048h6.455l-1.204-48.054C593.67,438.994,588.275,442.62,588.419,487.048z"/>
</g>
<g>
	<path fill="#FFFDF3" d="M116.74,25.574l-11.502,477.435l21.371-0.029l7.694-493.122C127.553,10.575,121.208,15.038,116.74,25.574z"
		/>
	<path fill="#C7B38A" d="M117.391-0.748l-0.716,29.651c4.417-7.992,10.739-11.325,17.484-11.793l0.257-17.702L117.391-0.748z"/>
	<path opacity="0.7" fill="#715F4D" d="M112.715,201.25c0,0,9.12-1.047,10.98,0.546c1.859,1.594-11.066,6.94-11.196,10.433
		C112.37,215.72,112.715,201.25,112.715,201.25z"/>
	<path fill="#715F4D" d="M130.682,260.273c0,0-9.525,4.686-11.724,4.577c-2.199-0.109,6.242,2.306,11.622,0.576L130.682,260.273z"/>
	<path fill="#715F4D" d="M134.038,40.099c0,0-9.525,4.687-11.724,4.577c-2.198-0.108,6.243,2.308,11.622,0.578L134.038,40.099z"/>
	<polygon opacity="0.7" fill="#816760" points="110.69,291.86 120.88,293.175 123.64,294.72 119.394,296.818 124.678,298.091 
		120.691,299.814 124.619,301.119 124.619,301.119 110.388,302.955 	"/>
	<path fill="#826751" d="M128.187,393.402l-8.696-2.181c0,0,6.648-7.411,8.881-7.55L128.187,393.402z"/>
	<path fill="#826751" d="M131.956,167.514c0,0-4.356-1.209-9.21-2.2c-4.854-0.99,8.196,12.64,9.062,9.687L131.956,167.514z"/>
	<path fill="#B1A384" d="M108.431,362.235c0.256,0.011,15.943,0.545,18.05-2.597c2.105-3.141-17.967-0.893-17.895-3.884
		L108.431,362.235z"/>
	<path opacity="0.8" fill="#B1A384" d="M115.579,83.484c0.24,0.01,14.96,0.44,16.953-3.424c1.994-3.865-16.855-0.837-16.771-4.491
		L115.579,83.484z"/>
	<path opacity="0.7" fill="#816760" d="M132.583,118.861c0,0-3.721-0.933-6.82-0.34c-3.101,0.595-5.715,1.308-5.715,1.308
		l3.386,1.384c0,0-3.271,1.053-3.434,1.046c-0.162-0.008,2.428,0.494,3.234,0.815c0.807,0.32,0.945,1.543,0.945,1.543l8.289,0.038
		L132.583,118.861z"/>
	<path opacity="0.6" fill="#826751" d="M111.693,503.009h-6.455l1.204-49.702C106.442,453.307,111.836,457.059,111.693,503.009z"/>
</g>
<polygon opacity="0.9" fill="#847777" points="202.276,284.223 149.797,313.846 205.617,287.417 "/>
<path opacity="0.7" fill="#F8F3E4" d="M300,192.205l181.416-1.932c0,0-17.645-4.749-26.696-6.461s-21.737-7.579-37.395-8.087
	s-48.351,0.618-53.337,4.142c-4.987,3.523-15.653,4.775-26.987,3.074c-11.333-1.702-29.333-3.42-36,0.871
	c-6.667,4.291-31.488,9.023-34.155,8.164S300,192.205,300,192.205z"/>
<path opacity="0.6" fill="#F8F3E4" d="M282.309,238.187l114.38-1.218c0,0-11.124-2.994-16.831-4.073
	c-5.707-1.08-13.705-4.779-23.577-5.099c-9.872-0.32-30.484,0.39-33.628,2.612c-3.145,2.221-9.87,3.011-17.015,1.938
	s-18.494-2.156-22.697,0.549c-4.204,2.705-19.853,5.689-21.534,5.147C259.725,237.5,282.309,238.187,282.309,238.187z"/>
<ellipse fill="#F3F6E4" cx="326.063" cy="460.344" rx="11.5" ry="1.781"/>
<ellipse fill="#F3F6E4" cx="294.587" cy="464.709" rx="15.913" ry="2.001"/>
<path fill="#D3B86A" d="M492.08,491.669c-0.593,0.769,50.139-3.65,50.139-3.65s-13.499-8.296-27.273-6.969
	S495.661,487.023,492.08,491.669z"/>
</svg>
