<?xml version="1.0" encoding="utf-8"?>
<!-- Generator: Adobe Illustrator 19.0.0, SVG Export Plug-In . SVG Version: 6.00 Build 0)  -->
<svg version="1.1" xmlns="http://www.w3.org/2000/svg" xmlns:xlink="http://www.w3.org/1999/xlink" x="0px" y="0px"
	 viewBox="0 0 1400 980" style="enable-background:new 0 0 1400 980;" xml:space="preserve">
<style type="text/css">
	.st0{fill:#74D1F6;}
	.st1{fill:#B1E3FA;}
	.st2{fill:#FFF687;}
	.st3{fill:#0C4F66;}
	.st4{fill:#FFFFFF;}
	.st5{fill:#003D50;}
	.st6{opacity:0.9;fill:#FFFFFF;}
	.st7{fill:#6BBE46;}
	.st8{fill:#98D10D;}
	.st9{fill:#88C540;}
	.st10{fill:#E05C53;}
	.st11{fill:#249327;}
</style>
<g id="Layer_1">
	<rect x="0" y="0" class="st0" width="1400" height="980"/>
	<g id="Background_19_">
		<path class="st1" d="M1059.8-1.7H318.5C173.7,82.8,60.3,215.3,0,374.1V898c10.7,28.2,23.1,55.6,37.1,82h1304.3
			c24.6-46.7,44.4-96.4,58.7-148.3V440.4C1348.4,252.3,1224.4,94.3,1059.8-1.7z"/>
	</g>
</g>
<g id="Layer_2_1_">
	<g id="Jogging_1_">
		<g id="Jogging_2_">
			<g id="Sun">
				<polygon class="st2" points="1043.4,391.7 984.8,335.2 1009.2,412.8 966.5,343.6 970.9,424.8 946.8,347.1 930.8,426.9 
					926.8,345.7 891.5,418.9 907.8,339.3 855.4,401.5 890.9,328.3 824.7,375.5 877.3,313.5 801.5,342.8 867.9,295.8 787.1,305.3 
					863.1,276.4 782.5,265.4 863.3,256.3 787.9,225.7 868.5,236.9 803.1,188.5 878.3,219.4 827.1,156.3 892.2,204.9 858.3,131 
					909.3,194.4 894.8,114.3 928.5,188.4 934.3,107.2 948.5,187.3 974.3,110.2 968.2,191.3 1012.4,123 986.3,200 1046,144.9 
					1001.6,213 1073.2,174.4 1013.2,229.4 1092.2,209.8 1020.4,248.1 1101.7,248.8 1022.7,268 1101.3,289 1020,287.9 1090.9,327.7 
					1012.4,306.5 1071.2,362.7 1000.4,322.6 				"/>
				<path class="st2" d="M1024.1,267.1c0,45.3-36.7,82-82,82c-45.3,0-82-36.7-82-82c0-45.3,36.7-82,82-82
					C987.4,185.1,1024.1,221.8,1024.1,267.1z"/>
			</g>
		</g>
	</g>
</g>
<g id="Layer_3">
	<g id="Mountain">
		<g>
			<polygon class="st3" points="1400,660.2 1297.4,486.4 1093.4,133 889.4,486.4 685.3,839.8 1400,839.6 			"/>
			<polygon class="st4" points="1244.2,394.3 1093.4,133 958.7,366.4 1067.9,276.4 1111.3,405.9 1162.2,337 			"/>
		</g>
		<g>
			<polygon class="st5" points="753.9,397.3 893.3,638.7 1032.6,880 753.9,880 475.3,880 614.6,638.7 			"/>
			<polygon class="st6" points="856.9,575.7 753.9,397.3 661.8,556.7 755.2,536.6 780.2,616.7 800.8,536.6 			"/>
		</g>
		<g>
			<polygon class="st5" points="549.9,495.4 345.9,142 141.8,495.4 -0.3,741.5 -0.3,848.8 753.9,848.8 			"/>
			<polygon class="st4" points="496.7,403.3 345.9,142 211.1,375.4 310.9,323.3 321.5,472.1 414.6,346 			"/>
		</g>
		<g>
			<polygon class="st3" points="547.5,267.1 686.8,508.4 826.2,749.7 547.5,749.7 268.8,749.7 408.1,508.4 			"/>
			<polygon class="st6" points="650.5,445.4 547.5,267.1 455.4,426.4 548.7,406.3 573.8,486.4 594.4,406.3 			"/>
		</g>
	</g>
</g>
<g id="Layer_4">
	<g id="Root_2_">
		<path class="st7" d="M981.6,980c84.7-98,131.5-175,131.5-175s-265,96.7-779.2-47.9C215.3,723.8,102.8,713.1,0,716.5V980H981.6z"/>
	</g>
	<g id="Root_1_">
		<path class="st7" d="M810.5,980H1400V716.8c-387.1-16.3-660.4,179.4-648.5,194C771.2,935,790.9,958,810.5,980z"/>
	</g>
	<g id="Root">
		<path class="st8" d="M1400,980V816.7c-129.7,9.7-335.6,2.4-615.2-76.2c-341-95.9-631.7-4.7-784.8,72.7V980H1400z"/>
	</g>
</g>
<g id="Layer_5">
	<g>
		<g>
			<path class="st9" d="M225.9,644.9c0,15.5,12.5,28,28,28c15.5,0,28-12.5,28-28c0-15.5-12.5-28-28-28
				C238.4,616.9,225.9,629.4,225.9,644.9z"/>
			<polygon class="st10" points="255.3,633.3 253.9,752.2 258.1,752.2 			"/>
			<polygon class="st10" points="243.8,651.4 256,662.8 255.1,663.7 			"/>
			<polygon class="st10" points="265.8,644.2 255.8,657.5 255,656.3 			"/>
		</g>
	</g>
	<g id="Tree_1_">
		<g>
			<path class="st9" d="M852.1,517.8c0,40.2,32.6,72.8,72.9,72.8c40.2,0,72.9-32.6,72.9-72.8c0-40.2-32.6-72.9-72.9-72.9
				C884.7,444.9,852.1,477.6,852.1,517.8z"/>
			<polygon class="st10" points="928.8,487.7 925,797.3 935.9,797.3 			"/>
			<polygon class="st10" points="898.9,534.7 930.4,564.5 928.2,566.7 			"/>
			<polygon class="st10" points="956.1,515.9 930.1,550.7 928.1,547.6 			"/>
		</g>
		<g>
			<path class="st7" d="M1186.4,519.8c0,61.3-49.7,111.1-111.1,111.1s-111.1-49.7-111.1-111.1c0-61.3,49.7-111.1,111.1-111.1
				S1186.4,458.4,1186.4,519.8z"/>
			<polygon class="st10" points="1069.5,473.8 1075.3,824.7 1058.6,824.7 			"/>
			<polygon class="st10" points="1115.1,545.6 1067,591 1070.5,594.4 			"/>
			<polygon class="st10" points="1027.8,516.9 1067.4,570 1070.6,565.2 			"/>
		</g>
		<g>
			<path class="st9" d="M1395.2,445.7c0,83.4-67.6,151-151,151s-151-67.6-151-151c0-83.4,67.6-151,151-151
				S1395.2,362.4,1395.2,445.7z"/>
			<polygon class="st10" points="1236.3,383.3 1244.2,860.2 1221.5,860.2 			"/>
			<polygon class="st10" points="1298.3,480.8 1232.9,542.6 1237.6,547.1 			"/>
			<polygon class="st10" points="1179.6,441.9 1233.5,514 1237.8,507.5 			"/>
		</g>
		<g>
			<path class="st9" d="M1104.6,666.7c0,20.6,16.7,37.2,37.2,37.2c20.6,0,37.2-16.7,37.2-37.2c0-20.6-16.7-37.2-37.2-37.2
				C1121.3,629.5,1104.6,646.1,1104.6,666.7z"/>
			<polygon class="st10" points="1143.8,651.3 1141.9,809.5 1147.5,809.5 			"/>
			<polygon class="st10" points="1128.5,675.3 1144.7,690.6 1143.5,691.7 			"/>
			<polygon class="st10" points="1157.8,665.7 1144.5,683.5 1143.5,681.9 			"/>
		</g>
		<g>
			<g>
				<path class="st9" d="M253.9,551c0,40.2,32.6,72.8,72.8,72.8c40.2,0,72.9-32.6,72.9-72.8c0-40.2-32.6-72.9-72.9-72.9
					C286.5,478.1,253.9,510.7,253.9,551z"/>
				<polygon class="st10" points="330.5,520.8 326.7,830.4 337.7,830.4 				"/>
				<polygon class="st10" points="300.6,567.9 332.2,597.7 329.9,599.9 				"/>
				<polygon class="st10" points="357.9,549.1 331.9,583.9 329.8,580.8 				"/>
			</g>
			<g>
				<path class="st9" d="M52.2,675.9c0,20.6,16.7,37.2,37.2,37.2c20.6,0,37.2-16.7,37.2-37.2c0-20.6-16.7-37.2-37.2-37.2
					C68.9,638.7,52.2,655.3,52.2,675.9z"/>
				<polygon class="st10" points="91.4,660.5 89.4,818.8 95,818.8 				"/>
				<polygon class="st10" points="76.1,684.6 92.2,699.8 91.1,700.9 				"/>
				<polygon class="st10" points="105.4,675 92.1,692.7 91,691.2 				"/>
			</g>
		</g>
		<g>
			<g>
				<path class="st7" d="M847.4,642.7c0,20.6,16.7,37.2,37.2,37.2c20.6,0,37.2-16.7,37.2-37.2s-16.7-37.2-37.2-37.2
					C864,605.5,847.4,622.2,847.4,642.7z"/>
				<polygon class="st10" points="886.6,627.3 884.6,785.6 890.2,785.6 				"/>
				<polygon class="st10" points="871.3,651.4 887.4,666.6 886.2,667.7 				"/>
				<polygon class="st10" points="900.5,641.8 887.3,659.6 886.2,658 				"/>
			</g>
		</g>
		<g>
			<g>
				<path class="st7" d="M412.8,555.9c0,25.7,20.8,46.5,46.5,46.5c25.7,0,46.5-20.8,46.5-46.5c0-25.7-20.8-46.5-46.5-46.5
					C433.6,509.4,412.8,530.2,412.8,555.9z"/>
				<polygon class="st10" points="461.7,536.6 459.3,734.2 466.3,734.2 				"/>
				<polygon class="st10" points="442.6,566.7 462.8,585.7 461.3,587.1 				"/>
				<polygon class="st10" points="479.1,554.7 462.6,576.9 461.2,574.9 				"/>
			</g>
		</g>
		<g>
			<g>
				<path class="st9" d="M524.9,609.6c0,15.5,12.5,28,28,28c15.5,0,28-12.5,28-28s-12.5-28-28-28
					C537.5,581.6,524.9,594.1,524.9,609.6z"/>
				<polygon class="st10" points="554.4,598 552.9,717 557.1,717 				"/>
				<polygon class="st10" points="542.9,616.1 555,627.5 554.1,628.4 				"/>
				<polygon class="st10" points="564.9,608.9 554.9,622.2 554.1,621 				"/>
			</g>
		</g>
	</g>
	<g>
		<path class="st7" d="M308.4,484.9c0,70.8-57.4,128.1-128.1,128.1c-70.8,0-128.1-57.4-128.1-128.1c0-70.8,57.4-128.1,128.1-128.1
			C251.1,356.7,308.4,414.1,308.4,484.9z"/>
		<polygon class="st10" points="173.6,431.9 180.3,836.7 161,836.7 		"/>
		<polygon class="st10" points="226.2,514.6 170.7,567 174.7,570.9 		"/>
		<polygon class="st10" points="125.5,481.6 171.2,542.8 174.9,537.3 		"/>
	</g>
</g>
<g id="Layer_6">
	<g id="Medical_Center_1_">
		<g id="Medical_Center_2_">
			<g id="Tree_2_">
				<g>
					<path class="st9" d="M1275,867.9c-6.9-15.4-22.3-26.1-40.3-26.1c-0.3,0-0.6,0-0.9,0c-2.4-8-9.4-14-18-14.7
						c-10.6-20.9-32.3-35.3-57.3-35.3c-35.5,0-64.2,28.8-64.2,64.2c0,4.1,0.4,8,1.1,11.9H1275z"/>
					<path class="st11" d="M1195,869.1c-6.9-15.4-22.3-26.1-40.3-26.1c-0.3,0-0.6,0-0.9,0c-2.4-8-9.4-14-18-14.7
						c-10.6-20.9-32.3-35.3-57.3-35.3c-35.5,0-64.2,28.8-64.2,64.2c0,4.1,0.4,8,1.1,11.9H1195z"/>
				</g>
			</g>
		</g>
	</g>
	<path class="st9" d="M366,847c-6.9-15.4-22.3-26.1-40.3-26.1c-0.3,0-0.6,0-0.9,0c-2.4-8-9.4-14-18-14.7
		c-10.6-20.9-32.3-35.3-57.3-35.3c-35.5,0-64.2,28.8-64.2,64.2c0,4.1,0.4,8,1.1,11.9H366z"/>
	<path class="st11" d="M286.1,848.2c-6.9-15.4-22.3-26.1-40.3-26.1c-0.3,0-0.6,0-0.9,0c-2.4-8-9.4-14-18-14.7
		c-10.6-20.9-32.3-35.3-57.3-35.3c-35.5,0-64.2,28.8-64.2,64.2c0,4.1,0.4,8,1.1,11.9H286.1z"/>
</g>
<g id="Layer_7">
	<g>
		<path class="st4" d="M460.5,879.3c0.1-0.2,0.2-0.5,0.3-0.7c0.1,0.2,0.2,0.5,0.3,0.7c1.3,2.3,4.2,3,6.5,1.7c2.3-1.3,3-4.2,1.7-6.5
			c-0.1-0.2-0.3-0.4-0.4-0.6c0.3,0,0.5,0.1,0.8,0.1c2.6,0,4.7-2.1,4.7-4.8s-2.1-4.7-4.8-4.7c-0.3,0-0.5,0-0.8,0.1
			c0.2-0.2,0.3-0.4,0.4-0.6c1.3-2.3,0.5-5.2-1.8-6.5c-2.3-1.3-5.2-0.5-6.5,1.8c-0.1,0.2-0.2,0.5-0.3,0.7c-0.1-0.2-0.2-0.5-0.3-0.7
			c-1.3-2.3-4.2-3-6.5-1.7c-2.3,1.3-3,4.2-1.7,6.5c0.1,0.2,0.3,0.4,0.4,0.6c-0.3,0-0.5-0.1-0.8-0.1c-2.6,0-4.7,2.1-4.7,4.8
			c0,2.6,2.1,4.7,4.8,4.7c0.3,0,0.5,0,0.8-0.1c-0.2,0.2-0.3,0.4-0.4,0.6c-1.3,2.3-0.5,5.2,1.8,6.5
			C456.3,882.4,459.2,881.6,460.5,879.3z M456,869.3c0-2.6,2.1-4.8,4.7-4.8c2.6,0,4.8,2.1,4.8,4.7c0,2.6-2.1,4.8-4.7,4.8
			C458.2,874,456,871.9,456,869.3z"/>
		<path class="st4" d="M402,879.5c0.1-0.2,0.2-0.5,0.3-0.7c0.1,0.2,0.2,0.5,0.3,0.7c1.3,2.3,4.2,3,6.5,1.7s3-4.2,1.7-6.5
			c-0.1-0.2-0.3-0.4-0.4-0.6c0.3,0,0.5,0.1,0.8,0.1c2.6,0,4.7-2.1,4.7-4.8c0-2.6-2.1-4.7-4.8-4.7c-0.3,0-0.5,0-0.8,0.1
			c0.2-0.2,0.3-0.4,0.4-0.6c1.3-2.3,0.5-5.2-1.8-6.5c-2.3-1.3-5.2-0.5-6.5,1.8c-0.1,0.2-0.2,0.5-0.3,0.7c-0.1-0.2-0.2-0.5-0.3-0.7
			c-1.3-2.3-4.2-3-6.5-1.7c-2.3,1.3-3,4.2-1.7,6.5c0.1,0.2,0.3,0.4,0.4,0.6c-0.3,0-0.5-0.1-0.8-0.1c-2.6,0-4.7,2.1-4.7,4.8
			c0,2.6,2.1,4.7,4.8,4.7c0.3,0,0.5,0,0.8-0.1c-0.2,0.2-0.3,0.4-0.4,0.6c-1.3,2.3-0.5,5.2,1.8,6.5
			C397.8,882.6,400.7,881.8,402,879.5z M397.5,869.5c0-2.6,2.1-4.8,4.7-4.8c2.6,0,4.8,2.1,4.8,4.7c0,2.6-2.1,4.8-4.7,4.8
			C399.7,874.2,397.5,872.1,397.5,869.5z"/>
		<path class="st4" d="M343.5,879.8c0.1-0.2,0.2-0.5,0.3-0.7c0.1,0.2,0.2,0.5,0.3,0.7c1.3,2.3,4.2,3,6.5,1.7s3-4.2,1.7-6.5
			c-0.1-0.2-0.3-0.4-0.4-0.6c0.3,0,0.5,0.1,0.8,0.1c2.6,0,4.7-2.1,4.7-4.8c0-2.6-2.1-4.7-4.8-4.7c-0.3,0-0.5,0-0.8,0.1
			c0.2-0.2,0.3-0.4,0.4-0.6c1.3-2.3,0.5-5.2-1.8-6.5c-2.3-1.3-5.2-0.5-6.5,1.8c-0.1,0.2-0.2,0.5-0.3,0.7c-0.1-0.2-0.2-0.5-0.3-0.7
			c-1.3-2.3-4.2-3-6.5-1.7c-2.3,1.3-3,4.2-1.7,6.5c0.1,0.2,0.3,0.4,0.4,0.6c-0.3,0-0.5-0.1-0.8-0.1c-2.6,0-4.7,2.1-4.7,4.8
			c0,2.6,2.1,4.7,4.8,4.7c0.3,0,0.5,0,0.8-0.1c-0.2,0.2-0.3,0.4-0.4,0.6c-1.3,2.3-0.5,5.2,1.8,6.5S342.2,882,343.5,879.8z
			 M339,869.7c0-2.6,2.1-4.8,4.7-4.8s4.8,2.1,4.8,4.7s-2.1,4.8-4.7,4.8C341.2,874.4,339.1,872.3,339,869.7z"/>
		<path class="st4" d="M490.2,922.5c0.1-0.2,0.2-0.5,0.3-0.7c0.1,0.2,0.2,0.5,0.3,0.7c1.3,2.3,4.2,3,6.5,1.7c2.3-1.3,3-4.2,1.7-6.5
			c-0.1-0.2-0.3-0.4-0.4-0.6c0.3,0,0.5,0.1,0.8,0.1c2.6,0,4.7-2.1,4.7-4.8c0-2.6-2.1-4.7-4.8-4.7c-0.3,0-0.5,0-0.8,0.1
			c0.2-0.2,0.3-0.4,0.4-0.6c1.3-2.3,0.5-5.2-1.8-6.5c-2.3-1.3-5.2-0.5-6.5,1.8c-0.1,0.2-0.2,0.5-0.3,0.7c-0.1-0.2-0.2-0.5-0.3-0.7
			c-1.3-2.3-4.2-3-6.5-1.7s-3,4.2-1.7,6.5c0.1,0.2,0.3,0.4,0.4,0.6c-0.3,0-0.5-0.1-0.8-0.1c-2.6,0-4.7,2.1-4.7,4.8
			c0,2.6,2.1,4.7,4.8,4.7c0.3,0,0.5,0,0.8-0.1c-0.2,0.2-0.3,0.4-0.4,0.6c-1.3,2.3-0.5,5.2,1.8,6.5
			C486,925.6,488.9,924.8,490.2,922.5z M485.7,912.5c0-2.6,2.1-4.8,4.7-4.8c2.6,0,4.8,2.1,4.8,4.7s-2.1,4.8-4.7,4.8
			C487.9,917.2,485.7,915.1,485.7,912.5z"/>
		<path class="st4" d="M308.2,923.2c0.1-0.2,0.2-0.5,0.3-0.7c0.1,0.2,0.2,0.5,0.3,0.7c1.3,2.3,4.2,3,6.5,1.7s3-4.2,1.7-6.5
			c-0.1-0.2-0.3-0.4-0.4-0.6c0.3,0,0.5,0.1,0.8,0.1c2.6,0,4.7-2.1,4.7-4.8c0-2.6-2.1-4.7-4.8-4.7c-0.3,0-0.5,0-0.8,0.1
			c0.2-0.2,0.3-0.4,0.4-0.6c1.3-2.3,0.5-5.2-1.8-6.5c-2.3-1.3-5.2-0.5-6.5,1.8c-0.1,0.2-0.2,0.5-0.3,0.7c-0.1-0.2-0.2-0.5-0.3-0.7
			c-1.3-2.3-4.2-3-6.5-1.7c-2.3,1.3-3,4.2-1.7,6.5c0.1,0.2,0.3,0.4,0.4,0.6c-0.3,0-0.5-0.1-0.8-0.1c-2.6,0-4.7,2.1-4.7,4.8
			c0,2.6,2.1,4.7,4.8,4.7c0.3,0,0.5,0,0.8-0.1c-0.2,0.2-0.3,0.4-0.4,0.6c-1.3,2.3-0.5,5.2,1.8,6.5
			C304,926.3,306.9,925.5,308.2,923.2z M303.8,913.1c0-2.6,2.1-4.8,4.7-4.8c2.6,0,4.8,2.1,4.8,4.7c0,2.6-2.1,4.8-4.7,4.8
			C305.9,917.9,303.8,915.8,303.8,913.1z"/>
		<path class="st4" d="M404.6,965.9c0.1-0.2,0.2-0.5,0.3-0.7c0.1,0.2,0.2,0.5,0.3,0.7c1.3,2.3,4.2,3,6.5,1.7s3-4.2,1.7-6.5
			c-0.1-0.2-0.3-0.4-0.4-0.6c0.3,0,0.5,0.1,0.8,0.1c2.6,0,4.7-2.1,4.7-4.8c0-2.6-2.1-4.7-4.8-4.7c-0.3,0-0.5,0-0.8,0.1
			c0.2-0.2,0.3-0.4,0.4-0.6c1.3-2.3,0.5-5.2-1.8-6.5s-5.2-0.5-6.5,1.8c-0.1,0.2-0.2,0.5-0.3,0.7c-0.1-0.2-0.2-0.5-0.3-0.7
			c-1.3-2.3-4.2-3-6.5-1.7s-3,4.2-1.7,6.5c0.1,0.2,0.3,0.4,0.4,0.6c-0.3,0-0.5-0.1-0.8-0.1c-2.6,0-4.7,2.1-4.7,4.8
			c0,2.6,2.1,4.7,4.8,4.7c0.3,0,0.5,0,0.8-0.1c-0.2,0.2-0.3,0.4-0.4,0.6c-1.3,2.3-0.5,5.2,1.8,6.5
			C400.4,968.9,403.3,968.2,404.6,965.9z M400.1,955.8c0-2.6,2.1-4.8,4.7-4.8c2.6,0,4.8,2.1,4.8,4.7c0,2.6-2.1,4.8-4.7,4.8
			C402.3,960.6,400.1,958.4,400.1,955.8z"/>
		<path class="st4" d="M343.8,966.1c0.1-0.2,0.2-0.5,0.3-0.7c0.1,0.2,0.2,0.5,0.3,0.7c1.3,2.3,4.2,3,6.5,1.7c2.3-1.3,3-4.2,1.7-6.5
			c-0.1-0.2-0.3-0.4-0.4-0.6c0.3,0,0.5,0.1,0.8,0.1c2.6,0,4.7-2.1,4.7-4.8s-2.1-4.7-4.8-4.7c-0.3,0-0.5,0-0.8,0.1
			c0.2-0.2,0.3-0.4,0.4-0.6c1.3-2.3,0.5-5.2-1.8-6.5c-2.3-1.3-5.2-0.5-6.5,1.8c-0.1,0.2-0.2,0.5-0.3,0.7c-0.1-0.2-0.2-0.5-0.3-0.7
			c-1.3-2.3-4.2-3-6.5-1.7c-2.3,1.3-3,4.2-1.7,6.5c0.1,0.2,0.3,0.4,0.4,0.6c-0.3,0-0.5-0.1-0.8-0.1c-2.6,0-4.7,2.1-4.7,4.8
			c0,2.6,2.1,4.7,4.8,4.7c0.3,0,0.5,0,0.8-0.1c-0.2,0.2-0.3,0.4-0.4,0.6c-1.3,2.3-0.5,5.2,1.8,6.5
			C339.6,969.2,342.5,968.4,343.8,966.1z M339.4,956c0-2.6,2.1-4.8,4.7-4.8c2.6,0,4.8,2.1,4.8,4.7c0,2.6-2.1,4.8-4.7,4.8
			C341.5,960.8,339.4,958.7,339.4,956z"/>
		<path class="st4" d="M460.8,965.7c0.1-0.2,0.2-0.5,0.3-0.7c0.1,0.2,0.2,0.5,0.3,0.7c1.3,2.3,4.2,3,6.5,1.7c2.3-1.3,3-4.2,1.7-6.5
			c-0.1-0.2-0.3-0.4-0.4-0.6c0.3,0,0.5,0.1,0.8,0.1c2.6,0,4.7-2.1,4.7-4.8c0-2.6-2.1-4.7-4.8-4.7c-0.3,0-0.5,0-0.8,0.1
			c0.2-0.2,0.3-0.4,0.4-0.6c1.3-2.3,0.5-5.2-1.8-6.5c-2.3-1.3-5.2-0.5-6.5,1.8c-0.1,0.2-0.2,0.5-0.3,0.7c-0.1-0.2-0.2-0.5-0.3-0.7
			c-1.3-2.3-4.2-3-6.5-1.7c-2.3,1.3-3,4.2-1.7,6.5c0.1,0.2,0.3,0.4,0.4,0.6c-0.3,0-0.5-0.1-0.8-0.1c-2.6,0-4.7,2.1-4.7,4.8
			c0,2.6,2.1,4.7,4.8,4.7c0.3,0,0.5,0,0.8-0.1c-0.2,0.2-0.3,0.4-0.4,0.6c-1.3,2.3-0.5,5.2,1.8,6.5
			C456.6,968.7,459.5,967.9,460.8,965.7z M456.3,955.6c0-2.6,2.1-4.8,4.7-4.8c2.6,0,4.8,2.1,4.8,4.7c0,2.6-2.1,4.8-4.7,4.8
			C458.5,960.3,456.3,958.2,456.3,955.6z"/>
		<path class="st4" d="M431.7,922.7c0.1-0.2,0.2-0.5,0.3-0.7c0.1,0.2,0.2,0.5,0.3,0.7c1.3,2.3,4.2,3,6.5,1.7c2.3-1.3,3-4.2,1.7-6.5
			c-0.1-0.2-0.3-0.4-0.4-0.6c0.3,0,0.5,0.1,0.8,0.1c2.6,0,4.7-2.1,4.7-4.8c0-2.6-2.1-4.7-4.8-4.7c-0.3,0-0.5,0-0.8,0.1
			c0.2-0.2,0.3-0.4,0.4-0.6c1.3-2.3,0.5-5.2-1.8-6.5c-2.3-1.3-5.2-0.5-6.5,1.8c-0.1,0.2-0.2,0.5-0.3,0.7c-0.1-0.2-0.2-0.5-0.3-0.7
			c-1.3-2.3-4.2-3-6.5-1.7c-2.3,1.3-3,4.2-1.7,6.5c0.1,0.2,0.3,0.4,0.4,0.6c-0.3,0-0.5-0.1-0.8-0.1c-2.6,0-4.7,2.1-4.7,4.8
			c0,2.6,2.1,4.7,4.8,4.7c0.3,0,0.5,0,0.8-0.1c-0.2,0.2-0.3,0.4-0.4,0.6c-1.3,2.3-0.5,5.2,1.8,6.5
			C427.5,925.8,430.4,925,431.7,922.7z M427.3,912.7c0-2.6,2.1-4.8,4.7-4.8c2.6,0,4.8,2.1,4.8,4.7s-2.1,4.8-4.7,4.8
			S427.3,915.3,427.3,912.7z"/>
		<path class="st4" d="M373.2,923c0.1-0.2,0.2-0.5,0.3-0.7c0.1,0.2,0.2,0.5,0.3,0.7c1.3,2.3,4.2,3,6.5,1.7c2.3-1.3,3-4.2,1.7-6.5
			c-0.1-0.2-0.3-0.4-0.4-0.6c0.3,0,0.5,0.1,0.8,0.1c2.6,0,4.7-2.1,4.7-4.8c0-2.6-2.1-4.7-4.8-4.7c-0.3,0-0.5,0-0.8,0.1
			c0.2-0.2,0.3-0.4,0.4-0.6c1.3-2.3,0.5-5.2-1.8-6.5c-2.3-1.3-5.2-0.5-6.5,1.8c-0.1,0.2-0.2,0.5-0.3,0.7c-0.1-0.2-0.2-0.5-0.3-0.7
			c-1.3-2.3-4.2-3-6.5-1.7c-2.3,1.3-3,4.2-1.7,6.5c0.1,0.2,0.3,0.4,0.4,0.6c-0.3,0-0.5-0.1-0.8-0.1c-2.6,0-4.7,2.1-4.7,4.8
			c0,2.6,2.1,4.7,4.8,4.7c0.3,0,0.5,0,0.8-0.1c-0.2,0.2-0.3,0.4-0.4,0.6c-1.3,2.3-0.5,5.2,1.8,6.5C369,926,371.9,925.2,373.2,923z
			 M368.8,912.9c0-2.6,2.1-4.8,4.7-4.8c2.6,0,4.8,2.1,4.8,4.7c0,2.6-2.1,4.8-4.7,4.8C370.9,917.6,368.8,915.5,368.8,912.9z"/>
	</g>
	<g>
		<path class="st4" d="M674.6,922.7c0.1-0.2,0.2-0.5,0.3-0.7c0.1,0.2,0.2,0.5,0.3,0.7c1.3,2.3,4.2,3,6.5,1.7c2.3-1.3,3-4.2,1.7-6.5
			c-0.1-0.2-0.3-0.4-0.4-0.6c0.3,0,0.5,0.1,0.8,0.1c2.6,0,4.7-2.1,4.7-4.8c0-2.6-2.1-4.7-4.8-4.7c-0.3,0-0.5,0-0.8,0.1
			c0.2-0.2,0.3-0.4,0.4-0.6c1.3-2.3,0.5-5.2-1.8-6.5s-5.2-0.5-6.5,1.8c-0.1,0.2-0.2,0.5-0.3,0.7c-0.1-0.2-0.2-0.5-0.3-0.7
			c-1.3-2.3-4.2-3-6.5-1.7c-2.3,1.3-3,4.2-1.7,6.5c0.1,0.2,0.3,0.4,0.4,0.6c-0.3,0-0.5-0.1-0.8-0.1c-2.6,0-4.7,2.1-4.7,4.8
			c0,2.6,2.1,4.7,4.8,4.7c0.3,0,0.5,0,0.8-0.1c-0.2,0.2-0.3,0.4-0.4,0.6c-1.3,2.3-0.5,5.2,1.8,6.5S673.3,925,674.6,922.7z
			 M670.1,912.6c0-2.6,2.1-4.8,4.7-4.8c2.6,0,4.8,2.1,4.8,4.7c0,2.6-2.1,4.8-4.7,4.8C672.3,917.4,670.1,915.3,670.1,912.6z"/>
		<path class="st4" d="M616.1,922.9c0.1-0.2,0.2-0.5,0.3-0.7c0.1,0.2,0.2,0.5,0.3,0.7c1.3,2.3,4.2,3,6.5,1.7s3-4.2,1.7-6.5
			c-0.1-0.2-0.3-0.4-0.4-0.6c0.3,0,0.5,0.1,0.8,0.1c2.6,0,4.7-2.1,4.7-4.8c0-2.6-2.1-4.7-4.8-4.7c-0.3,0-0.5,0-0.8,0.1
			c0.2-0.2,0.3-0.4,0.4-0.6c1.3-2.3,0.5-5.2-1.8-6.5c-2.3-1.3-5.2-0.5-6.5,1.8c-0.1,0.2-0.2,0.5-0.3,0.7c-0.1-0.2-0.2-0.5-0.3-0.7
			c-1.3-2.3-4.2-3-6.5-1.7s-3,4.2-1.7,6.5c0.1,0.2,0.3,0.4,0.4,0.6c-0.3,0-0.5-0.1-0.8-0.1c-2.6,0-4.7,2.1-4.7,4.8
			c0,2.6,2.1,4.7,4.8,4.7c0.3,0,0.5,0,0.8-0.1c-0.2,0.2-0.3,0.4-0.4,0.6c-1.3,2.3-0.5,5.2,1.8,6.5
			C611.9,926,614.8,925.2,616.1,922.9z M611.7,912.9c0-2.6,2.1-4.8,4.7-4.8c2.6,0,4.8,2.1,4.8,4.7c0,2.6-2.1,4.8-4.7,4.8
			C613.8,917.6,611.7,915.5,611.7,912.9z"/>
		<path class="st4" d="M557.6,923.1c0.1-0.2,0.2-0.5,0.3-0.7c0.1,0.2,0.2,0.5,0.3,0.7c1.3,2.3,4.2,3,6.5,1.7c2.3-1.3,3-4.2,1.7-6.5
			c-0.1-0.2-0.3-0.4-0.4-0.6c0.3,0,0.5,0.1,0.8,0.1c2.6,0,4.7-2.1,4.7-4.8c0-2.6-2.1-4.7-4.8-4.7c-0.3,0-0.5,0-0.8,0.1
			c0.2-0.2,0.3-0.4,0.4-0.6c1.3-2.3,0.5-5.2-1.8-6.5c-2.3-1.3-5.2-0.5-6.5,1.8c-0.1,0.2-0.2,0.5-0.3,0.7c-0.1-0.2-0.2-0.5-0.3-0.7
			c-1.3-2.3-4.2-3-6.5-1.7c-2.3,1.3-3,4.2-1.7,6.5c0.1,0.2,0.3,0.4,0.4,0.6c-0.3,0-0.5-0.1-0.8-0.1c-2.6,0-4.7,2.1-4.7,4.8
			c0,2.6,2.1,4.7,4.8,4.7c0.3,0,0.5,0,0.8-0.1c-0.2,0.2-0.3,0.4-0.4,0.6c-1.3,2.3-0.5,5.2,1.8,6.5
			C553.4,926.2,556.3,925.4,557.6,923.1z M553.2,913.1c0-2.6,2.1-4.8,4.7-4.8c2.6,0,4.8,2.1,4.8,4.7c0,2.6-2.1,4.8-4.7,4.8
			C555.3,917.8,553.2,915.7,553.2,913.1z"/>
		<path class="st4" d="M704.3,965.9c0.1-0.2,0.2-0.5,0.3-0.7c0.1,0.2,0.2,0.5,0.3,0.7c1.3,2.3,4.2,3,6.5,1.7s3-4.2,1.7-6.5
			c-0.1-0.2-0.3-0.4-0.4-0.6c0.3,0,0.5,0.1,0.8,0.1c2.6,0,4.7-2.1,4.7-4.8c0-2.6-2.1-4.7-4.8-4.7c-0.3,0-0.5,0-0.8,0.1
			c0.2-0.2,0.3-0.4,0.4-0.6c1.3-2.3,0.5-5.2-1.8-6.5c-2.3-1.3-5.2-0.5-6.5,1.8c-0.1,0.2-0.2,0.5-0.3,0.7c-0.1-0.2-0.2-0.5-0.3-0.7
			c-1.3-2.3-4.2-3-6.5-1.7s-3,4.2-1.7,6.5c0.1,0.2,0.3,0.4,0.4,0.6c-0.3,0-0.5-0.1-0.8-0.1c-2.6,0-4.7,2.1-4.7,4.8s2.1,4.7,4.8,4.7
			c0.3,0,0.5,0,0.8-0.1c-0.2,0.2-0.3,0.4-0.4,0.6c-1.3,2.3-0.5,5.2,1.8,6.5C700.1,969,703,968.2,704.3,965.9z M699.9,955.9
			c0-2.6,2.1-4.8,4.7-4.8c2.6,0,4.8,2.1,4.8,4.7c0,2.6-2.1,4.8-4.7,4.8C702,960.6,699.9,958.5,699.9,955.9z"/>
		<path class="st4" d="M522.4,966.6c0.1-0.2,0.2-0.5,0.3-0.7c0.1,0.2,0.2,0.5,0.3,0.7c1.3,2.3,4.2,3,6.5,1.7s3-4.2,1.7-6.5
			c-0.1-0.2-0.3-0.4-0.4-0.6c0.3,0,0.5,0.1,0.8,0.1c2.6,0,4.7-2.1,4.7-4.8c0-2.6-2.1-4.7-4.8-4.7c-0.3,0-0.5,0-0.8,0.1
			c0.2-0.2,0.3-0.4,0.4-0.6c1.3-2.3,0.5-5.2-1.8-6.5c-2.3-1.3-5.2-0.5-6.5,1.8c-0.1,0.2-0.2,0.5-0.3,0.7c-0.1-0.2-0.2-0.5-0.3-0.7
			c-1.3-2.3-4.2-3-6.5-1.7s-3,4.2-1.7,6.5c0.1,0.2,0.3,0.4,0.4,0.6c-0.3,0-0.5-0.1-0.8-0.1c-2.6,0-4.7,2.1-4.7,4.8
			c0,2.6,2.1,4.7,4.8,4.7c0.3,0,0.5,0,0.8-0.1c-0.2,0.2-0.3,0.4-0.4,0.6c-1.3,2.3-0.5,5.2,1.8,6.5
			C518.2,969.7,521.1,968.9,522.4,966.6z M517.9,956.5c0-2.6,2.1-4.8,4.7-4.8c2.6,0,4.8,2.1,4.8,4.7c0,2.6-2.1,4.8-4.7,4.8
			C520.1,961.3,517.9,959.2,517.9,956.5z"/>
		<path class="st4" d="M618.4,801.9c0.1-0.2,0.2-0.5,0.3-0.7c0.1,0.2,0.2,0.5,0.3,0.7c1.3,2.3,4.2,3,6.5,1.7c2.3-1.3,3-4.2,1.7-6.5
			c-0.1-0.2-0.3-0.4-0.4-0.6c0.3,0,0.5,0.1,0.8,0.1c2.6,0,4.7-2.1,4.7-4.8c0-2.6-2.1-4.7-4.8-4.7c-0.3,0-0.5,0-0.8,0.1
			c0.2-0.2,0.3-0.4,0.4-0.6c1.3-2.3,0.5-5.2-1.8-6.5s-5.2-0.5-6.5,1.8c-0.1,0.2-0.2,0.5-0.3,0.7c-0.1-0.2-0.2-0.5-0.3-0.7
			c-1.3-2.3-4.2-3-6.5-1.7c-2.3,1.3-3,4.2-1.7,6.5c0.1,0.2,0.3,0.4,0.4,0.6c-0.3,0-0.5-0.1-0.8-0.1c-2.6,0-4.7,2.1-4.7,4.8
			c0,2.6,2.1,4.7,4.8,4.7c0.3,0,0.5,0,0.8-0.1c-0.2,0.2-0.3,0.4-0.4,0.6c-1.3,2.3-0.5,5.2,1.8,6.5
			C614.2,805,617.1,804.2,618.4,801.9z M613.9,791.8c0-2.6,2.1-4.8,4.7-4.8c2.6,0,4.8,2.1,4.8,4.7c0,2.6-2.1,4.8-4.7,4.8
			C616.1,796.6,613.9,794.4,613.9,791.8z"/>
		<path class="st4" d="M557.6,802.1c0.1-0.2,0.2-0.5,0.3-0.7c0.1,0.2,0.2,0.5,0.3,0.7c1.3,2.3,4.2,3,6.5,1.7c2.3-1.3,3-4.2,1.7-6.5
			c-0.1-0.2-0.3-0.4-0.4-0.6c0.3,0,0.5,0.1,0.8,0.1c2.6,0,4.7-2.1,4.7-4.8c0-2.6-2.1-4.7-4.8-4.7c-0.3,0-0.5,0-0.8,0.1
			c0.2-0.2,0.3-0.4,0.4-0.6c1.3-2.3,0.5-5.2-1.8-6.5s-5.2-0.5-6.5,1.8c-0.1,0.2-0.2,0.5-0.3,0.7c-0.1-0.2-0.2-0.5-0.3-0.7
			c-1.3-2.3-4.2-3-6.5-1.7c-2.3,1.3-3,4.2-1.7,6.5c0.1,0.2,0.3,0.4,0.4,0.6c-0.3,0-0.5-0.1-0.8-0.1c-2.6,0-4.7,2.1-4.7,4.8
			c0,2.6,2.1,4.7,4.8,4.7c0.3,0,0.5,0,0.8-0.1c-0.2,0.2-0.3,0.4-0.4,0.6c-1.3,2.3-0.5,5.2,1.8,6.5
			C553.4,805.2,556.3,804.4,557.6,802.1z M553.2,792c0-2.6,2.1-4.8,4.7-4.8c2.6,0,4.8,2.1,4.8,4.7c0,2.6-2.1,4.8-4.7,4.8
			C555.3,796.8,553.2,794.7,553.2,792z"/>
		<path class="st4" d="M674.6,801.7c0.1-0.2,0.2-0.5,0.3-0.7c0.1,0.2,0.2,0.5,0.3,0.7c1.3,2.3,4.2,3,6.5,1.7c2.3-1.3,3-4.2,1.7-6.5
			c-0.1-0.2-0.3-0.4-0.4-0.6c0.3,0,0.5,0.1,0.8,0.1c2.6,0,4.7-2.1,4.7-4.8c0-2.6-2.1-4.7-4.8-4.7c-0.3,0-0.5,0-0.8,0.1
			c0.2-0.2,0.3-0.4,0.4-0.6c1.3-2.3,0.5-5.2-1.8-6.5s-5.2-0.5-6.5,1.8c-0.1,0.2-0.2,0.5-0.3,0.7c-0.1-0.2-0.2-0.5-0.3-0.7
			c-1.3-2.3-4.2-3-6.5-1.7c-2.3,1.3-3,4.2-1.7,6.5c0.1,0.2,0.3,0.4,0.4,0.6c-0.3,0-0.5-0.1-0.8-0.1c-2.6,0-4.7,2.1-4.7,4.8
			c0,2.6,2.1,4.7,4.8,4.7c0.3,0,0.5,0,0.8-0.1c-0.2,0.2-0.3,0.4-0.4,0.6c-1.3,2.3-0.5,5.2,1.8,6.5S673.3,804,674.6,801.7z
			 M670.1,791.6c0-2.6,2.1-4.8,4.7-4.8c2.6,0,4.8,2.1,4.8,4.7c0,2.6-2.1,4.8-4.7,4.8C672.3,796.4,670.1,794.2,670.1,791.6z"/>
		<path class="st4" d="M645.8,966.1c0.1-0.2,0.2-0.5,0.3-0.7c0.1,0.2,0.2,0.5,0.3,0.7c1.3,2.3,4.2,3,6.5,1.7c2.3-1.3,3-4.2,1.7-6.5
			c-0.1-0.2-0.3-0.4-0.4-0.6c0.3,0,0.5,0.1,0.8,0.1c2.6,0,4.7-2.1,4.7-4.8c0-2.6-2.1-4.7-4.8-4.7c-0.3,0-0.5,0-0.8,0.1
			c0.2-0.2,0.3-0.4,0.4-0.6c1.3-2.3,0.5-5.2-1.8-6.5c-2.3-1.3-5.2-0.5-6.5,1.8c-0.1,0.2-0.2,0.5-0.3,0.7c-0.1-0.2-0.2-0.5-0.3-0.7
			c-1.3-2.3-4.2-3-6.5-1.7c-2.3,1.3-3,4.2-1.7,6.5c0.1,0.2,0.3,0.4,0.4,0.6c-0.3,0-0.5-0.1-0.8-0.1c-2.6,0-4.7,2.1-4.7,4.8
			c0,2.6,2.1,4.7,4.8,4.7c0.3,0,0.5,0,0.8-0.1c-0.2,0.2-0.3,0.4-0.4,0.6c-1.3,2.3-0.5,5.2,1.8,6.5
			C641.6,969.2,644.5,968.4,645.8,966.1z M641.4,956.1c0-2.6,2.1-4.8,4.7-4.8c2.6,0,4.8,2.1,4.8,4.7c0,2.6-2.1,4.8-4.7,4.8
			C643.5,960.8,641.4,958.7,641.4,956.1z"/>
		<path class="st4" d="M587.4,966.4c0.1-0.2,0.2-0.5,0.3-0.7c0.1,0.2,0.2,0.5,0.3,0.7c1.3,2.3,4.2,3,6.5,1.7c2.3-1.3,3-4.2,1.7-6.5
			c-0.1-0.2-0.3-0.4-0.4-0.6c0.3,0,0.5,0.1,0.8,0.1c2.6,0,4.7-2.1,4.7-4.8c0-2.6-2.1-4.7-4.8-4.7c-0.3,0-0.5,0-0.8,0.1
			c0.2-0.2,0.3-0.4,0.4-0.6c1.3-2.3,0.5-5.2-1.8-6.5c-2.3-1.3-5.2-0.5-6.5,1.8c-0.1,0.2-0.2,0.5-0.3,0.7c-0.1-0.2-0.2-0.5-0.3-0.7
			c-1.3-2.3-4.2-3-6.5-1.7c-2.3,1.3-3,4.2-1.7,6.5c0.1,0.2,0.3,0.4,0.4,0.6c-0.3,0-0.5-0.1-0.8-0.1c-2.6,0-4.7,2.1-4.7,4.8
			c0,2.6,2.1,4.7,4.8,4.7c0.3,0,0.5,0,0.8-0.1c-0.2,0.2-0.3,0.4-0.4,0.6c-1.3,2.3-0.5,5.2,1.8,6.5
			C583.1,969.4,586.1,968.6,587.4,966.4z M582.9,956.3c0-2.6,2.1-4.8,4.7-4.8c2.6,0,4.8,2.1,4.8,4.7c0,2.6-2.1,4.8-4.7,4.8
			C585,961,582.9,958.9,582.9,956.3z"/>
	</g>
	<g>
		<path class="st4" d="M887.9,879.3c0.1-0.2,0.2-0.5,0.3-0.7c0.1,0.2,0.2,0.5,0.3,0.7c1.3,2.3,4.2,3,6.5,1.7c2.3-1.3,3-4.2,1.7-6.5
			c-0.1-0.2-0.3-0.4-0.4-0.6c0.3,0,0.5,0.1,0.8,0.1c2.6,0,4.7-2.1,4.7-4.8c0-2.6-2.1-4.7-4.8-4.7c-0.3,0-0.5,0-0.8,0.1
			c0.2-0.2,0.3-0.4,0.4-0.6c1.3-2.3,0.5-5.2-1.8-6.5c-2.3-1.3-5.2-0.5-6.5,1.8c-0.1,0.2-0.2,0.5-0.3,0.7c-0.1-0.2-0.2-0.5-0.3-0.7
			c-1.3-2.3-4.2-3-6.5-1.7c-2.3,1.3-3,4.2-1.7,6.5c0.1,0.2,0.3,0.4,0.4,0.6c-0.3,0-0.5-0.1-0.8-0.1c-2.6,0-4.7,2.1-4.7,4.8
			c0,2.6,2.1,4.7,4.8,4.7c0.3,0,0.5,0,0.8-0.1c-0.2,0.2-0.3,0.4-0.4,0.6c-1.3,2.3-0.5,5.2,1.8,6.5
			C883.7,882.4,886.6,881.6,887.9,879.3z M883.4,869.3c0-2.6,2.1-4.8,4.7-4.8c2.6,0,4.8,2.1,4.8,4.7c0,2.6-2.1,4.8-4.7,4.8
			C885.6,874,883.4,871.9,883.4,869.3z"/>
		<path class="st4" d="M829.4,879.5c0.1-0.2,0.2-0.5,0.3-0.7c0.1,0.2,0.2,0.5,0.3,0.7c1.3,2.3,4.2,3,6.5,1.7s3-4.2,1.7-6.5
			c-0.1-0.2-0.3-0.4-0.4-0.6c0.3,0,0.5,0.1,0.8,0.1c2.6,0,4.7-2.1,4.7-4.8c0-2.6-2.1-4.7-4.8-4.7c-0.3,0-0.5,0-0.8,0.1
			c0.2-0.2,0.3-0.4,0.4-0.6c1.3-2.3,0.5-5.2-1.8-6.5c-2.3-1.3-5.2-0.5-6.5,1.8c-0.1,0.2-0.2,0.5-0.3,0.7c-0.1-0.2-0.2-0.5-0.3-0.7
			c-1.3-2.3-4.2-3-6.5-1.7s-3,4.2-1.7,6.5c0.1,0.2,0.3,0.4,0.4,0.6c-0.3,0-0.5-0.1-0.8-0.1c-2.6,0-4.7,2.1-4.7,4.8
			c0,2.6,2.1,4.7,4.8,4.7c0.3,0,0.5,0,0.8-0.1c-0.2,0.2-0.3,0.4-0.4,0.6c-1.3,2.3-0.5,5.2,1.8,6.5
			C825.2,882.6,828.1,881.8,829.4,879.5z M824.9,869.5c0-2.6,2.1-4.8,4.7-4.8c2.6,0,4.8,2.1,4.8,4.7c0,2.6-2.1,4.8-4.7,4.8
			C827.1,874.2,825,872.1,824.9,869.5z"/>
		<path class="st4" d="M770.9,879.8c0.1-0.2,0.2-0.5,0.3-0.7c0.1,0.2,0.2,0.5,0.3,0.7c1.3,2.3,4.2,3,6.5,1.7c2.3-1.3,3-4.2,1.7-6.5
			c-0.1-0.2-0.3-0.4-0.4-0.6c0.3,0,0.5,0.1,0.8,0.1c2.6,0,4.7-2.1,4.7-4.8c0-2.6-2.1-4.7-4.8-4.7c-0.3,0-0.5,0-0.8,0.1
			c0.2-0.2,0.3-0.4,0.4-0.6c1.3-2.3,0.5-5.2-1.8-6.5s-5.2-0.5-6.5,1.8c-0.1,0.2-0.2,0.5-0.3,0.7c-0.1-0.2-0.2-0.5-0.3-0.7
			c-1.3-2.3-4.2-3-6.5-1.7c-2.3,1.3-3,4.2-1.7,6.5c0.1,0.2,0.3,0.4,0.4,0.6c-0.3,0-0.5-0.1-0.8-0.1c-2.6,0-4.7,2.1-4.7,4.8
			c0,2.6,2.1,4.7,4.8,4.7c0.3,0,0.5,0,0.8-0.1c-0.2,0.2-0.3,0.4-0.4,0.6c-1.3,2.3-0.5,5.2,1.8,6.5S769.6,882,770.9,879.8z
			 M766.5,869.7c0-2.6,2.1-4.8,4.7-4.8c2.6,0,4.8,2.1,4.8,4.7c0,2.6-2.1,4.8-4.7,4.8C768.6,874.4,766.5,872.3,766.5,869.7z"/>
		<path class="st4" d="M917.6,922.5c0.1-0.2,0.2-0.5,0.3-0.7c0.1,0.2,0.2,0.5,0.3,0.7c1.3,2.3,4.2,3,6.5,1.7s3-4.2,1.7-6.5
			c-0.1-0.2-0.3-0.4-0.4-0.6c0.3,0,0.5,0.1,0.8,0.1c2.6,0,4.7-2.1,4.7-4.8c0-2.6-2.1-4.7-4.8-4.7c-0.3,0-0.5,0-0.8,0.1
			c0.2-0.2,0.3-0.4,0.4-0.6c1.3-2.3,0.5-5.2-1.8-6.5c-2.3-1.3-5.2-0.5-6.5,1.8c-0.1,0.2-0.2,0.5-0.3,0.7c-0.1-0.2-0.2-0.5-0.3-0.7
			c-1.3-2.3-4.2-3-6.5-1.7s-3,4.2-1.7,6.5c0.1,0.2,0.3,0.4,0.4,0.6c-0.3,0-0.5-0.1-0.8-0.1c-2.6,0-4.7,2.1-4.7,4.8
			c0,2.6,2.1,4.7,4.8,4.7c0.3,0,0.5,0,0.8-0.1c-0.2,0.2-0.3,0.4-0.4,0.6c-1.3,2.3-0.5,5.2,1.8,6.5
			C913.4,925.6,916.3,924.8,917.6,922.5z M913.2,912.5c0-2.6,2.1-4.8,4.7-4.8c2.6,0,4.8,2.1,4.8,4.7s-2.1,4.8-4.7,4.8
			C915.3,917.2,913.2,915.1,913.2,912.5z"/>
		<path class="st4" d="M735.7,923.2c0.1-0.2,0.2-0.5,0.3-0.7c0.1,0.2,0.2,0.5,0.3,0.7c1.3,2.3,4.2,3,6.5,1.7s3-4.2,1.7-6.5
			c-0.1-0.2-0.3-0.4-0.4-0.6c0.3,0,0.5,0.1,0.8,0.1c2.6,0,4.7-2.1,4.7-4.8c0-2.6-2.1-4.7-4.8-4.7c-0.3,0-0.5,0-0.8,0.1
			c0.2-0.2,0.3-0.4,0.4-0.6c1.3-2.3,0.5-5.2-1.8-6.5c-2.3-1.3-5.2-0.5-6.5,1.8c-0.1,0.2-0.2,0.5-0.3,0.7c-0.1-0.2-0.2-0.5-0.3-0.7
			c-1.3-2.3-4.2-3-6.5-1.7s-3,4.2-1.7,6.5c0.1,0.2,0.3,0.4,0.4,0.6c-0.3,0-0.5-0.1-0.8-0.1c-2.6,0-4.7,2.1-4.7,4.8
			c0,2.6,2.1,4.7,4.8,4.7c0.3,0,0.5,0,0.8-0.1c-0.2,0.2-0.3,0.4-0.4,0.6c-1.3,2.3-0.5,5.2,1.8,6.5
			C731.5,926.3,734.4,925.5,735.7,923.2z M731.2,913.1c0-2.6,2.1-4.8,4.7-4.8c2.6,0,4.8,2.1,4.8,4.7c0,2.6-2.1,4.8-4.7,4.8
			C733.4,917.9,731.2,915.8,731.2,913.1z"/>
		<path class="st4" d="M832,965.9c0.1-0.2,0.2-0.5,0.3-0.7c0.1,0.2,0.2,0.5,0.3,0.7c1.3,2.3,4.2,3,6.5,1.7s3-4.2,1.7-6.5
			c-0.1-0.2-0.3-0.4-0.4-0.6c0.3,0,0.5,0.1,0.8,0.1c2.6,0,4.7-2.1,4.7-4.8c0-2.6-2.1-4.7-4.8-4.7c-0.3,0-0.5,0-0.8,0.1
			c0.2-0.2,0.3-0.4,0.4-0.6c1.3-2.3,0.5-5.2-1.8-6.5c-2.3-1.3-5.2-0.5-6.5,1.8c-0.1,0.2-0.2,0.5-0.3,0.7c-0.1-0.2-0.2-0.5-0.3-0.7
			c-1.3-2.3-4.2-3-6.5-1.7s-3,4.2-1.7,6.5c0.1,0.2,0.3,0.4,0.4,0.6c-0.3,0-0.5-0.1-0.8-0.1c-2.6,0-4.7,2.1-4.7,4.8
			c0,2.6,2.1,4.7,4.8,4.7c0.3,0,0.5,0,0.8-0.1c-0.2,0.2-0.3,0.4-0.4,0.6c-1.3,2.3-0.5,5.2,1.8,6.5
			C827.8,968.9,830.7,968.2,832,965.9z M827.5,955.8c0-2.6,2.1-4.8,4.7-4.8c2.6,0,4.8,2.1,4.8,4.7c0,2.6-2.1,4.8-4.7,4.8
			C829.7,960.6,827.5,958.4,827.5,955.8z"/>
		<path class="st4" d="M771.2,966.1c0.1-0.2,0.2-0.5,0.3-0.7c0.1,0.2,0.2,0.5,0.3,0.7c1.3,2.3,4.2,3,6.5,1.7c2.3-1.3,3-4.2,1.7-6.5
			c-0.1-0.2-0.3-0.4-0.4-0.6c0.3,0,0.5,0.1,0.8,0.1c2.6,0,4.7-2.1,4.7-4.8c0-2.6-2.1-4.7-4.8-4.7c-0.3,0-0.5,0-0.8,0.1
			c0.2-0.2,0.3-0.4,0.4-0.6c1.3-2.3,0.5-5.2-1.8-6.5c-2.3-1.3-5.2-0.5-6.5,1.8c-0.1,0.2-0.2,0.5-0.3,0.7c-0.1-0.2-0.2-0.5-0.3-0.7
			c-1.3-2.3-4.2-3-6.5-1.7c-2.3,1.3-3,4.2-1.7,6.5c0.1,0.2,0.3,0.4,0.4,0.6c-0.3,0-0.5-0.1-0.8-0.1c-2.6,0-4.7,2.1-4.7,4.8
			c0,2.6,2.1,4.7,4.8,4.7c0.3,0,0.5,0,0.8-0.1c-0.2,0.2-0.3,0.4-0.4,0.6c-1.3,2.3-0.5,5.2,1.8,6.5
			C767,969.2,769.9,968.4,771.2,966.1z M766.8,956c0-2.6,2.1-4.8,4.7-4.8c2.6,0,4.8,2.1,4.8,4.7c0,2.6-2.1,4.8-4.7,4.8
			C768.9,960.8,766.8,958.7,766.8,956z"/>
		<path class="st4" d="M888.2,965.7c0.1-0.2,0.2-0.5,0.3-0.7c0.1,0.2,0.2,0.5,0.3,0.7c1.3,2.3,4.2,3,6.5,1.7c2.3-1.3,3-4.2,1.7-6.5
			c-0.1-0.2-0.3-0.4-0.4-0.6c0.3,0,0.5,0.1,0.8,0.1c2.6,0,4.7-2.1,4.7-4.8c0-2.6-2.1-4.7-4.8-4.7c-0.3,0-0.5,0-0.8,0.1
			c0.2-0.2,0.3-0.4,0.4-0.6c1.3-2.3,0.5-5.2-1.8-6.5s-5.2-0.5-6.5,1.8c-0.1,0.2-0.2,0.5-0.3,0.7c-0.1-0.2-0.2-0.5-0.3-0.7
			c-1.3-2.3-4.2-3-6.5-1.7c-2.3,1.3-3,4.2-1.7,6.5c0.1,0.2,0.3,0.4,0.4,0.6c-0.3,0-0.5-0.1-0.8-0.1c-2.6,0-4.7,2.1-4.7,4.8
			c0,2.6,2.1,4.7,4.8,4.7c0.3,0,0.5,0,0.8-0.1c-0.2,0.2-0.3,0.4-0.4,0.6c-1.3,2.3-0.5,5.2,1.8,6.5
			C884,968.7,886.9,967.9,888.2,965.7z M883.8,955.6c0-2.6,2.1-4.8,4.7-4.8c2.6,0,4.8,2.1,4.8,4.7c0,2.6-2.1,4.8-4.7,4.8
			C885.9,960.3,883.8,958.2,883.8,955.6z"/>
		<path class="st4" d="M859.1,922.7c0.1-0.2,0.2-0.5,0.3-0.7c0.1,0.2,0.2,0.5,0.3,0.7c1.3,2.3,4.2,3,6.5,1.7c2.3-1.3,3-4.2,1.7-6.5
			c-0.1-0.2-0.3-0.4-0.4-0.6c0.3,0,0.5,0.1,0.8,0.1c2.6,0,4.7-2.1,4.7-4.8c0-2.6-2.1-4.7-4.8-4.7c-0.3,0-0.5,0-0.8,0.1
			c0.2-0.2,0.3-0.4,0.4-0.6c1.3-2.3,0.5-5.2-1.8-6.5s-5.2-0.5-6.5,1.8c-0.1,0.2-0.2,0.5-0.3,0.7c-0.1-0.2-0.2-0.5-0.3-0.7
			c-1.3-2.3-4.2-3-6.5-1.7c-2.3,1.3-3,4.2-1.7,6.5c0.1,0.2,0.3,0.4,0.4,0.6c-0.3,0-0.5-0.1-0.8-0.1c-2.6,0-4.7,2.1-4.7,4.8
			c0,2.6,2.1,4.7,4.8,4.7c0.3,0,0.5,0,0.8-0.1c-0.2,0.2-0.3,0.4-0.4,0.6c-1.3,2.3-0.5,5.2,1.8,6.5S857.8,925,859.1,922.7z
			 M854.7,912.7c0-2.6,2.1-4.8,4.7-4.8c2.6,0,4.8,2.1,4.8,4.7c0,2.6-2.1,4.8-4.7,4.8C856.8,917.4,854.7,915.3,854.7,912.7z"/>
		<path class="st4" d="M800.6,923c0.1-0.2,0.2-0.5,0.3-0.7c0.1,0.2,0.2,0.5,0.3,0.7c1.3,2.3,4.2,3,6.5,1.7c2.3-1.3,3-4.2,1.7-6.5
			c-0.1-0.2-0.3-0.4-0.4-0.6c0.3,0,0.5,0.1,0.8,0.1c2.6,0,4.7-2.1,4.7-4.8c0-2.6-2.1-4.7-4.8-4.7c-0.3,0-0.5,0-0.8,0.1
			c0.2-0.2,0.3-0.4,0.4-0.6c1.3-2.3,0.5-5.2-1.8-6.5c-2.3-1.3-5.2-0.5-6.5,1.8c-0.1,0.2-0.2,0.5-0.3,0.7c-0.1-0.2-0.2-0.5-0.3-0.7
			c-1.3-2.3-4.2-3-6.5-1.7s-3,4.2-1.7,6.5c0.1,0.2,0.3,0.4,0.4,0.6c-0.3,0-0.5-0.1-0.8-0.1c-2.6,0-4.7,2.1-4.7,4.8
			c0,2.6,2.1,4.7,4.8,4.7c0.3,0,0.5,0,0.8-0.1c-0.2,0.2-0.3,0.4-0.4,0.6c-1.3,2.3-0.5,5.2,1.8,6.5C796.4,926,799.3,925.2,800.6,923z
			 M796.2,912.9c0-2.6,2.1-4.8,4.7-4.8c2.6,0,4.8,2.1,4.8,4.7c0,2.6-2.1,4.8-4.7,4.8C798.3,917.6,796.2,915.5,796.2,912.9z"/>
	</g>
	<g>
		<path class="st4" d="M1279.5,925.1c1.8-0.7,2.8-1.8,3.3-3.1c0.5,1.3,1.5,2.4,3.3,3.1c4.8,0.5,7.1-4,5.2-7.2
			c-0.1-0.2-0.3-0.4-0.4-0.6c1.3,0.2,2.9-0.1,4.3-1.4c2.8-3.9,0.1-8.1-3.6-8.1c-0.3,0-0.5,0-0.8,0.1c0.9-1.1,1.3-2.5,1-4.4
			c0,0,0,0,0,0c-2-4.4-7-4.1-8.8-0.9c-0.1,0.2-0.2,0.5-0.3,0.7c-0.5-1.3-1.5-2.4-3.3-3.1c-4.8-0.5-7.1,4-5.2,7.2
			c0.1,0.2,0.3,0.4,0.4,0.6c-1.3-0.2-2.9,0.1-4.3,1.4c0,0,0,0,0,0c-2.8,3.9-0.1,8.1,3.6,8.1c0.3,0,0.5,0,0.8-0.1
			c-0.2,0.2-0.3,0.4-0.4,0.6C1272.4,921.2,1274.7,925.7,1279.5,925.1z M1278,912.6c0-2.6,2.1-4.8,4.7-4.8c2.6,0,4.8,2.1,4.8,4.7
			c0,2.6-2.1,4.8-4.7,4.8C1280.1,917.4,1278,915.3,1278,912.6z"/>
		<path class="st4" d="M1221,925.3c1.8-0.7,2.8-1.8,3.3-3.1c0.5,1.3,1.5,2.4,3.3,3.1c4.8,0.5,7.1-4,5.2-7.2
			c-0.1-0.2-0.3-0.4-0.4-0.6c1.3,0.2,2.9-0.1,4.3-1.4c2.8-3.9,0.1-8.1-3.6-8.1c-0.3,0-0.5,0-0.8,0.1c0.9-1.1,1.3-2.5,1-4.4
			c0,0,0,0,0,0c-2-4.4-7-4.1-8.8-0.9c-0.1,0.2-0.2,0.5-0.3,0.7c-0.5-1.3-1.5-2.4-3.3-3.1c-4.8-0.5-7.1,4-5.2,7.2
			c0.1,0.2,0.3,0.4,0.4,0.6c-1.3-0.2-2.9,0.1-4.3,1.4c0,0,0,0,0,0c-2.8,3.9-0.1,8.1,3.6,8.1c0.3,0,0.5,0,0.8-0.1
			c-0.2,0.2-0.3,0.4-0.4,0.6C1213.9,921.4,1216.2,925.9,1221,925.3z M1219.5,912.9c0-2.6,2.1-4.8,4.7-4.8c2.6,0,4.8,2.1,4.8,4.7
			c0,2.6-2.1,4.8-4.7,4.8C1221.7,917.6,1219.5,915.5,1219.5,912.9z"/>
		<path class="st4" d="M1162.5,925.6c1.8-0.7,2.8-1.8,3.3-3.1c0.5,1.3,1.5,2.4,3.3,3.1c4.8,0.5,7.1-4,5.2-7.2
			c-0.1-0.2-0.3-0.4-0.4-0.6c1.3,0.2,2.9-0.1,4.3-1.4c2.8-3.9,0.1-8.1-3.6-8.1c-0.3,0-0.5,0-0.8,0.1c0.9-1.1,1.3-2.5,1-4.4
			c0,0,0,0,0,0c-2-4.4-7-4.1-8.8-0.9c-0.1,0.2-0.2,0.5-0.3,0.7c-0.5-1.3-1.5-2.4-3.3-3.1c-4.8-0.5-7.1,4-5.2,7.2
			c0.1,0.2,0.3,0.4,0.4,0.6c-1.3-0.2-2.9,0.1-4.3,1.4c0,0,0,0,0,0c-2.8,3.9-0.1,8.1,3.6,8.1c0.3,0,0.5,0,0.8-0.1
			c-0.2,0.2-0.3,0.4-0.4,0.6C1155.4,921.6,1157.7,926.1,1162.5,925.6z M1161,913.1c0-2.6,2.1-4.8,4.7-4.8c2.6,0,4.8,2.1,4.8,4.7
			c0,2.6-2.1,4.8-4.7,4.8C1163.2,917.8,1161,915.7,1161,913.1z"/>
		<path class="st4" d="M1309.2,968.3c1.8-0.7,2.8-1.8,3.3-3.1c0.5,1.3,1.5,2.4,3.3,3.1c4.8,0.5,7.1-4,5.2-7.2
			c-0.1-0.2-0.3-0.4-0.4-0.6c1.3,0.2,2.9-0.1,4.3-1.4c2.8-3.9,0.1-8.1-3.6-8.1c-0.3,0-0.5,0-0.8,0.1c0.9-1.1,1.3-2.5,1-4.4
			c0,0,0,0,0,0c-2-4.4-7-4.1-8.8-0.9c-0.1,0.2-0.2,0.5-0.3,0.7c-0.5-1.3-1.5-2.4-3.3-3.1c-4.8-0.5-7.1,4-5.2,7.2
			c0.1,0.2,0.3,0.4,0.4,0.6c-1.3-0.2-2.9,0.1-4.3,1.4c0,0,0,0,0,0c-2.8,3.9-0.1,8.1,3.6,8.1c0.3,0,0.5,0,0.8-0.1
			c-0.2,0.2-0.3,0.4-0.4,0.6C1302.1,964.4,1304.4,968.9,1309.2,968.3z M1307.7,955.9c0-2.6,2.1-4.8,4.7-4.8c2.6,0,4.8,2.1,4.8,4.7
			c0,2.6-2.1,4.8-4.7,4.8C1309.9,960.6,1307.7,958.5,1307.7,955.9z"/>
		<path class="st4" d="M1129.6,967.5c0.5-0.5,0.8-1,1-1.6c0.2,0.6,0.6,1.1,1,1.6c1.3,1.3,3.2,1.8,5,1.2c2.9-1,4-4.4,2.6-6.9
			c-0.1-0.2-0.3-0.4-0.4-0.6c0.6,0.1,1.2,0.1,1.9-0.1c1.8-0.4,3.2-1.9,3.5-3.7c0.6-3-1.8-5.7-4.7-5.7c-0.3,0-0.5,0-0.8,0.1
			c0.4-0.5,0.7-1,0.9-1.7c0.5-1.8-0.1-3.7-1.5-4.9c-2.3-2-5.8-1.3-7.2,1.2c-0.1,0.2-0.2,0.5-0.3,0.7c-0.2-0.6-0.6-1.1-1-1.6
			c-1.3-1.3-3.2-1.8-5-1.2c-2.9,1-4,4.4-2.6,6.9c0.1,0.2,0.3,0.4,0.4,0.6c-0.6-0.1-1.2-0.1-1.9,0.1c-1.8,0.4-3.2,1.9-3.5,3.7
			c-0.6,3,1.8,5.7,4.7,5.7c0.3,0,0.5,0,0.8-0.1c-0.2,0.2-0.3,0.4-0.4,0.6c-1.5,2.5-0.3,5.9,2.6,6.9
			C1126.3,969.3,1128.3,968.8,1129.6,967.5z M1125.8,956.5c0-2.6,2.1-4.8,4.7-4.8c2.6,0,4.8,2.1,4.8,4.7c0,2.6-2.1,4.8-4.7,4.8
			C1127.9,961.3,1125.8,959.2,1125.8,956.5z"/>
		<path class="st4" d="M589.6,857.1c0.1-0.2,0.2-0.5,0.3-0.7c0.1,0.2,0.2,0.5,0.3,0.7c1.3,2.3,4.2,3,6.5,1.7s3-4.2,1.7-6.5
			c-0.1-0.2-0.3-0.4-0.4-0.6c0.3,0,0.5,0.1,0.8,0.1c2.6,0,4.7-2.1,4.7-4.8c0-2.6-2.1-4.7-4.8-4.7c-0.3,0-0.5,0-0.8,0.1
			c0.2-0.2,0.3-0.4,0.4-0.6c1.3-2.3,0.5-5.2-1.8-6.5c-2.3-1.3-5.2-0.5-6.5,1.8c-0.1,0.2-0.2,0.5-0.3,0.7c-0.1-0.2-0.2-0.5-0.3-0.7
			c-1.3-2.3-4.2-3-6.5-1.7s-3,4.2-1.7,6.5c0.1,0.2,0.3,0.4,0.4,0.6c-0.3,0-0.5-0.1-0.8-0.1c-2.6,0-4.7,2.1-4.7,4.8
			c0,2.6,2.1,4.7,4.8,4.7c0.3,0,0.5,0,0.8-0.1c-0.2,0.2-0.3,0.4-0.4,0.6c-1.3,2.3-0.5,5.2,1.8,6.5
			C585.4,860.2,588.3,859.4,589.6,857.1z M585.2,847.1c0-2.6,2.1-4.8,4.7-4.8c2.6,0,4.8,2.1,4.8,4.7c0,2.6-2.1,4.8-4.7,4.8
			S585.2,849.7,585.2,847.1z"/>
		<path class="st4" d="M645.8,856.9c0.1-0.2,0.2-0.5,0.3-0.7c0.1,0.2,0.2,0.5,0.3,0.7c1.3,2.3,4.2,3,6.5,1.7c2.3-1.3,3-4.2,1.7-6.5
			c-0.1-0.2-0.3-0.4-0.4-0.6c0.3,0,0.5,0.1,0.8,0.1c2.6,0,4.7-2.1,4.7-4.8c0-2.6-2.1-4.7-4.8-4.7c-0.3,0-0.5,0-0.8,0.1
			c0.2-0.2,0.3-0.4,0.4-0.6c1.3-2.3,0.5-5.2-1.8-6.5s-5.2-0.5-6.5,1.8c-0.1,0.2-0.2,0.5-0.3,0.7c-0.1-0.2-0.2-0.5-0.3-0.7
			c-1.3-2.3-4.2-3-6.5-1.7c-2.3,1.3-3,4.2-1.7,6.5c0.1,0.2,0.3,0.4,0.4,0.6c-0.3,0-0.5-0.1-0.8-0.1c-2.6,0-4.7,2.1-4.7,4.8
			c0,2.6,2.1,4.7,4.8,4.7c0.3,0,0.5,0,0.8-0.1c-0.2,0.2-0.3,0.4-0.4,0.6c-1.3,2.3-0.5,5.2,1.8,6.5
			C641.6,860,644.5,859.2,645.8,856.9z M641.4,846.8c0-2.6,2.1-4.8,4.7-4.8c2.6,0,4.8,2.1,4.8,4.7c0,2.6-2.1,4.8-4.7,4.8
			C643.5,851.6,641.4,849.5,641.4,846.8z"/>
		<path class="st4" d="M1250.7,968.5c1.8-0.7,2.8-1.8,3.3-3.1c0.5,1.3,1.5,2.4,3.3,3.1c4.8,0.5,7.1-4,5.2-7.2
			c-0.1-0.2-0.3-0.4-0.4-0.6c1.3,0.2,2.9-0.1,4.3-1.4c2.8-3.9,0.1-8.1-3.6-8.1c-0.3,0-0.5,0-0.8,0.1c0.9-1.1,1.3-2.5,1-4.4
			c0,0,0,0,0,0c-2-4.4-7-4.1-8.8-0.9c-0.1,0.2-0.2,0.5-0.3,0.7c-0.5-1.3-1.5-2.4-3.3-3.1c-4.8-0.5-7.1,4-5.2,7.2
			c0.1,0.2,0.3,0.4,0.4,0.6c-1.3-0.2-2.9,0.1-4.3,1.4c0,0,0,0,0,0c-2.8,3.9-0.1,8.1,3.6,8.1c0.3,0,0.5,0,0.8-0.1
			c-0.2,0.2-0.3,0.4-0.4,0.6C1243.6,964.6,1245.9,969.1,1250.7,968.5z M1249.2,956.1c0-2.6,2.1-4.8,4.7-4.8c2.6,0,4.8,2.1,4.8,4.7
			c0,2.6-2.1,4.8-4.7,4.8C1251.4,960.8,1249.2,958.7,1249.2,956.1z"/>
		<path class="st4" d="M1192.2,968.8c1.8-0.7,2.8-1.8,3.3-3.1c0.5,1.3,1.5,2.4,3.3,3.1c4.8,0.5,7.1-4,5.2-7.2
			c-0.1-0.2-0.3-0.4-0.4-0.6c1.3,0.2,2.9-0.1,4.3-1.4c2.8-3.9,0.1-8.1-3.6-8.1c-0.3,0-0.5,0-0.8,0.1c0.9-1.1,1.3-2.5,1-4.4
			c0,0,0,0,0,0c-2-4.4-7-4.1-8.8-0.9c-0.1,0.2-0.2,0.5-0.3,0.7c-0.5-1.3-1.5-2.4-3.3-3.1c-4.8-0.5-7.1,4-5.2,7.2
			c0.1,0.2,0.3,0.4,0.4,0.6c-1.3-0.2-2.9,0.1-4.3,1.4c0,0,0,0,0,0c-2.8,3.9-0.1,8.1,3.6,8.1c0.3,0,0.5,0,0.8-0.1
			c-0.2,0.2-0.3,0.4-0.4,0.6C1185.1,964.8,1187.4,969.3,1192.2,968.8z M1190.7,956.3c0-2.6,2.1-4.8,4.7-4.8c2.6,0,4.8,2.1,4.8,4.7
			c0,2.6-2.1,4.8-4.7,4.8C1192.9,961,1190.8,958.9,1190.7,956.3z"/>
	</g>
</g>
</svg>
