<?xml version="1.0" encoding="utf-8"?>
<!-- Generator: Adobe Illustrator 17.0.0, SVG Export Plug-In . SVG Version: 6.00 Build 0)  -->
<!DOCTYPE svg PUBLIC "-//W3C//DTD SVG 1.1//EN" "http://www.w3.org/Graphics/SVG/1.1/DTD/svg11.dtd">
<svg version="1.1" id="Layer_1" xmlns="http://www.w3.org/2000/svg" xmlns:xlink="http://www.w3.org/1999/xlink" x="0px" y="0px"
	 width="1750px" height="980px" viewBox="0 0 1750 980" enable-background="new 0 0 1750 980" xml:space="preserve">
<rect fill-rule="evenodd" clip-rule="evenodd" fill="#8CC4FF" width="1750" height="980"/>
<g>
	<path fill-rule="evenodd" clip-rule="evenodd" fill="#FFFFFF" d="M0,296.7c34.4-9.5,52.2,5.4,61.9,32.1
		c12.3-21.2,33.8-28.2,59.3-29.6C72.7,154.3,273.7,169,257,284.4c46.1-33.6,139.7-10.3,182.7,34.5c54.1-21.8,116.9,35.4,123.5,79
		c10.5-36.5,72.2-37.2,89.4-12.6c19.4-7.3,44.3,32.9,31.6,57c70.6-15.6,188.1-2.9,209.9,27.2H0V296.7z"/>
	<path fill-rule="evenodd" clip-rule="evenodd" fill="#CCDCE8" d="M894.1,469.6c-54.1-25.1-135-28.4-240.1-12.4
		c31.2-16.7,10.8-64.8-28.4-60.5c4.6,8.2,4.6,17.3,0,27.2c-18.5-10.7-50.1-1.4-58,9.9c-15.7-47.7-75.9-85.6-122.2-72.8
		c-18.1-44-59.1-64.6-106.2-58c43.7,4.1,69.3,24.3,84,64.2c-43.8-42.2-173.5-32.8-207.4,12.4c-29.8-8.1-56.5,2.4-70.4,19.7
		c11.2-23.9,30.4-36.1,55.6-39.5c7-23.5,17.2-46.4,43.2-66.7c4.4-23.9-15.2-80.1-49.4-75.3c18.6,5.3,24.9,58.5,18.5,79
		c-28.9-6-50.6,11.8-54.4,30.9c-52.9-4.8-76.3,36.4-76.5,66.7c-12.8-9-35.9-5-51.8,9.9c16-6.4,30.3-1.9,34.5,5
		c-24.7-5.8-46.9-2-65,18.5v42H894.1z"/>
</g>
<g>
	<path fill-rule="evenodd" clip-rule="evenodd" fill="#35AFB5" d="M0,651c737.5-16.8,1065.4-241.2,1126.6-242
		c40.7-0.5,76.9,42.4,124.6,40.9c53.9-1.7,91.5-71.9,168.5-71.9c74.3,0,151.3,112.7,330.3,179.5V980H0V651z"/>
	<path fill-rule="evenodd" clip-rule="evenodd" fill="#279BA1" d="M0,699.2C737.5,684.9,1092,429.7,1153.1,429
		c40.7-0.5,89.8,89.3,137.5,88c53.9-1.4,83.4-111.4,160.5-111.4c74.2,0,119.8,106.1,298.8,163.2V980H0V699.2z"/>
	<g>
		<path fill="#71EAF0" d="M1554.8,516.9c1.1,1.6-1.4,3.3-2.5,1.6c-4.2-6.6-7.8-9.5-11-9.3c-3.1,0.2-6,3.4-8.8,9.1
			c-0.8,1.8-3.5,0.5-2.7-1.3c3.3-6.7,7-10.5,11.3-10.8C1545.4,506,1550,509.3,1554.8,516.9L1554.8,516.9z M1520.4,523
			c1.1,1.6-1.4,3.3-2.5,1.6c-4.2-6.6-7.8-9.4-11-9.3s-6.1,3.4-8.9,9.1c-0.8,1.8-3.5,0.5-2.7-1.3c3.3-6.7,7-10.5,11.3-10.8
			C1511,512.1,1515.5,515.4,1520.4,523L1520.4,523z M1536.5,498.9c1.1,1.6-1.4,3.3-2.5,1.6c-4.2-6.6-7.8-9.5-11-9.3
			c-3.1,0.2-6,3.4-8.8,9.1c-0.8,1.8-3.5,0.5-2.7-1.3c3.3-6.7,7-10.5,11.3-10.8C1527.2,488,1531.7,491.3,1536.5,498.9L1536.5,498.9z"
			/>
		<path fill="#71EAF0" d="M1322,467.2c-1,1.6,1.5,3.3,2.5,1.6c4.2-6.6,7.8-9.5,11-9.3c3.1,0.2,6,3.4,8.8,9.1
			c0.9,1.8,3.5,0.4,2.7-1.3c-3.3-6.7-7-10.5-11.3-10.8C1331.4,456.3,1326.8,459.7,1322,467.2L1322,467.2z M1356.4,473.3
			c-1,1.6,1.5,3.3,2.5,1.6c4.2-6.6,7.8-9.5,11-9.3c3.1,0.2,6,3.4,8.8,9.1c0.8,1.8,3.5,0.4,2.7-1.3c-3.3-6.7-7-10.5-11.3-10.8
			C1365.8,462.4,1361.3,465.7,1356.4,473.3L1356.4,473.3z M1340.3,449.2c-1.1,1.6,1.5,3.3,2.5,1.6c4.2-6.6,7.8-9.5,11-9.3
			c3.1,0.2,6.1,3.4,8.8,9.1c0.9,1.8,3.5,0.4,2.7-1.3c-3.3-6.7-7-10.5-11.3-10.8C1349.6,438.3,1345.1,441.6,1340.3,449.2
			L1340.3,449.2z"/>
		<path fill="#71EAF0" d="M1190.2,500.6c-1,1.6,1.5,3.3,2.5,1.6c4.2-6.6,7.8-9.5,11-9.3c3.1,0.2,6.1,3.4,8.8,9.1
			c0.9,1.8,3.5,0.5,2.7-1.3c-3.3-6.7-7-10.5-11.3-10.8C1199.6,489.8,1195.1,493.1,1190.2,500.6L1190.2,500.6z"/>
	</g>
</g>
<g>
	<path fill-rule="evenodd" clip-rule="evenodd" fill="#28A399" d="M0,571.5c87.6-56,185.7-166.9,262.9-167.9
		c56.5-0.7,106.7,58.9,172.9,56.8c74.7-2.3,183.4-238.4,316.1-242c163-4.4,345.7,347.8,998.2,634.7v127H0V571.5z"/>
	<path fill-rule="evenodd" clip-rule="evenodd" fill="#1D8F85" d="M0,636.5c87.6-47.1,200.6-220.6,277.7-221.4
		c56.5-0.6,149.9,108.8,216.1,107c74.7-2,182.2-235,314.9-238.1c163-3.7,238.2,281.3,941.4,522.5V980H0V636.5z"/>
	<g>
		<path fill="#67E0D6" stroke="#86C740" stroke-width="0.2289" stroke-miterlimit="10" d="M78.3,556.3c-1.3,2,1.8,4,3.1,2
			c5.2-8.2,9.7-11.7,13.6-11.5c3.8,0.2,7.5,4.2,11,11.3c1.1,2.2,4.4,0.6,3.3-1.6c-4.1-8.3-8.7-13.1-14.1-13.4
			C89.9,542.7,84.3,546.9,78.3,556.3L78.3,556.3z M121,563.8c-1.3,2,1.8,4,3.1,2c5.2-8.1,9.7-11.7,13.6-11.5s7.5,4.3,11,11.3
			c1.1,2.2,4.4,0.6,3.3-1.6c-4.1-8.3-8.7-13.1-14-13.4C132.7,550.3,127.1,554.4,121,563.8L121,563.8z M100.9,533.9
			c-1.3,2.1,1.8,4,3.1,2c5.2-8.2,9.7-11.7,13.6-11.5c3.8,0.2,7.5,4.3,11,11.3c1.1,2.2,4.4,0.6,3.3-1.6c-4.1-8.3-8.7-13.1-14.1-13.4
			C112.6,520.4,107,524.5,100.9,533.9L100.9,533.9z"/>
		<path fill="#67E0D6" d="M667.5,335.2c-1.3,2,1.8,4,3.1,2c5.2-8.2,9.7-11.8,13.6-11.5c3.8,0.2,7.5,4.3,11,11.3
			c1.1,2.2,4.4,0.6,3.3-1.6c-4.1-8.3-8.7-13.1-14.1-13.4C679.2,321.7,673.5,325.8,667.5,335.2L667.5,335.2z M690.2,312.8
			c-1.3,2.1,1.8,4,3.1,2c5.2-8.2,9.7-11.7,13.6-11.5c3.9,0.2,7.5,4.2,11,11.3c1.1,2.2,4.4,0.6,3.3-1.6c-4.1-8.3-8.7-13.1-14-13.4
			C701.9,299.3,696.3,303.4,690.2,312.8L690.2,312.8z"/>
		<path fill="#67E0D6" d="M763.8,411.7c-1.3,2,1.8,4,3.1,2c5.2-8.2,9.7-11.7,13.6-11.5c3.8,0.2,7.5,4.3,11,11.3
			c1,2.2,4.4,0.6,3.3-1.6c-4.1-8.3-8.7-13.1-14.1-13.4C775.5,398.2,769.9,402.3,763.8,411.7L763.8,411.7z M806.6,419.3
			c-1.3,2.1,1.8,4,3.1,2c5.2-8.2,9.7-11.7,13.6-11.5c3.9,0.2,7.5,4.3,11,11.3c1.1,2.2,4.4,0.6,3.3-1.6c-4.1-8.3-8.7-13.1-14-13.4
			C818.2,405.8,812.6,409.9,806.6,419.3L806.6,419.3z M786.5,389.4c-1.3,2,1.8,4,3.1,2c5.2-8.2,9.7-11.7,13.6-11.5
			c3.8,0.2,7.5,4.2,11,11.3c1.1,2.2,4.4,0.6,3.3-1.6c-4.1-8.3-8.7-13.1-14.1-13.4C798.2,375.8,792.5,380,786.5,389.4L786.5,389.4z"
			/>
		<path fill="#67E0D6" d="M913.7,497.4c-1.3,2.1,1.8,4,3.1,2c5.2-8.2,9.7-11.7,13.6-11.5c3.9,0.2,7.5,4.3,11,11.3
			c1,2.2,4.4,0.6,3.3-1.6c-4.1-8.3-8.7-13.1-14-13.4C925.4,483.8,919.8,487.9,913.7,497.4L913.7,497.4z"/>
		<path fill="#67E0D6" d="M552.7,558.4c-1.3,2.1,1.8,4,3.1,2c5.2-8.2,9.7-11.7,13.6-11.5c3.9,0.2,7.5,4.2,11,11.3
			c1.1,2.2,4.4,0.6,3.3-1.6c-4.1-8.3-8.7-13.1-14.1-13.4C564.4,544.8,558.7,548.9,552.7,558.4L552.7,558.4z M575.4,536
			c-1.3,2,1.8,4,3.1,2c5.2-8.2,9.7-11.7,13.6-11.5c3.9,0.2,7.5,4.3,11,11.3c1.1,2.2,4.4,0.6,3.3-1.6c-4.1-8.3-8.7-13.1-14-13.4
			C587.1,522.5,581.5,526.6,575.4,536L575.4,536z"/>
		<path fill="#67E0D6" d="M283.8,487.2c-1.3,2,1.8,4,3.1,2c5.2-8.2,9.7-11.8,13.6-11.5c3.9,0.2,7.5,4.3,10.9,11.3
			c1.1,2.2,4.4,0.6,3.3-1.6c-4.1-8.3-8.7-13.1-14-13.4C295.4,473.7,289.8,477.8,283.8,487.2L283.8,487.2z"/>
	</g>
</g>
<g>
	<g>
		<path fill-rule="evenodd" clip-rule="evenodd" fill="#FFFFFF" d="M1750,214.1c-17.5-4.8-26.5,2.8-31.5,16.3
			c-6.2-10.7-17.2-14.4-30.1-15.1c24.6-73.6-77.5-66.1-69-7.5c-23.4-17-71-5.3-92.9,17.6c-27.5-11.1-59.4,18-62.8,40.1
			c-5.3-18.5-36.7-18.9-45.4-6.4c-9.9-3.7-22.5,16.7-16.1,29c-35.9-7.9-95.6-1.5-106.7,13.8H1750V214.1z"/>
		<path fill-rule="evenodd" clip-rule="evenodd" fill="#CCDCE8" d="M1295.6,301.9c27.5-12.7,68.6-14.5,122.1-6.3
			c-15.9-8.5-5.5-32.9,14.4-30.8c-2.3,4.2-2.3,8.8,0,13.8c9.4-5.5,25.5-0.7,29.5,5c8-24.3,38.6-43.5,62.1-37
			c9.2-22.4,30-32.9,54-29.5c-22.2,2.1-35.2,12.3-42.7,32.6c22.3-21.5,88.2-16.7,105.5,6.3c15.1-4.1,28.7,1.3,35.8,10
			c-5.7-12.1-15.4-18.3-28.2-20.1c-3.6-12-8.8-23.6-22-33.9c-2.2-12.1,7.7-40.7,25.1-38.3c-9.5,2.7-12.7,29.8-9.4,40.1
			c14.7-3,25.7,6,27.6,15.7c26.9-2.5,38.8,18.5,38.9,33.9c6.5-4.6,18.3-2.6,26.4,5c-8.1-3.3-15.4-0.9-17.6,2.5c12.5-3,23.8-1,33,9.4
			v21.3H1295.6z"/>
	</g>
	<g>
		<path fill-rule="evenodd" clip-rule="evenodd" fill="#FFFFFF" d="M1356.4,379.5c18.7-56.2-62.7-50.3-57.7-15.9
			c-10.8-7.8-32.7-2.4-42.8,8.1c-24.2-22.4-64.5,15.2-57.2,28.9c-16.5-3.7-44-0.7-49.1,6.4h279.1
			C1419.7,388.9,1390.7,374.2,1356.4,379.5L1356.4,379.5z"/>
		<path fill-rule="evenodd" clip-rule="evenodd" fill="#CCDCE8" d="M1149.6,407c17.5-7.4,35.8-5.8,54.1-3.5
			c5.3-13.1,17.1-24,30.9-20.4c-8.2,2-11.9,7.6-13.9,14.5c12.8-11.9,26.2-12.5,39.8-7.1c5-19.1,20.7-23.5,40.1-22.9
			c6.9-13.1,26.6-19.5,34.9-11.1c0.2-2.6-3.5-5.4-7.1-6.2c22.5-4.6,30,21.2,24,34.9c33.6-0.5,63.1,2.8,76.1,21.7
			C1335.6,407,1242.6,407,1149.6,407L1149.6,407z"/>
	</g>
	<g>
		<path fill-rule="evenodd" clip-rule="evenodd" fill="#FFFFFF" d="M642.5,308.7c18.7-56.2-62.6-50.3-57.7-15.9
			c-10.8-7.9-32.7-2.4-42.8,8.1c-24.2-22.4-64.5,15.2-57.2,28.9c-16.5-3.7-44-0.7-49.1,6.3h279.1
			C705.8,318.1,676.8,303.4,642.5,308.7L642.5,308.7z"/>
		<path fill-rule="evenodd" clip-rule="evenodd" fill="#CCDCE8" d="M435.7,336.2c17.5-7.4,35.8-5.8,54.1-3.5
			c5.3-13.1,17.1-24,30.9-20.4c-8.2,2-11.9,7.6-13.9,14.5c12.8-11.9,26.2-12.5,39.8-7.1c5-19.1,20.7-23.6,40.1-22.9
			c6.9-13.1,26.6-19.6,34.9-11.1c0.2-2.6-3.5-5.4-7.1-6.2c22.6-4.6,30.1,21.2,24.1,34.9c33.6-0.5,63.1,2.8,76.1,21.7
			C621.8,336.2,528.7,336.2,435.7,336.2L435.7,336.2z"/>
	</g>
	<g>
		<path fill-rule="evenodd" clip-rule="evenodd" fill="#FFFFFF" d="M312.2,105.4c18.7-56.2-62.7-50.3-57.7-15.9
			c-10.8-7.9-32.7-2.4-42.8,8.1c-24.1-22.4-64.5,15.2-57.2,28.9c-16.5-3.7-44-0.7-49.1,6.3h279.1
			C375.5,114.8,346.5,100.1,312.2,105.4L312.2,105.4z"/>
		<path fill-rule="evenodd" clip-rule="evenodd" fill="#CCDCE8" d="M105.4,132.9c17.5-7.4,35.8-5.8,54.1-3.5
			c5.2-13.1,17.1-24,30.9-20.4c-8.2,2-11.9,7.6-13.9,14.5c12.8-11.9,26.2-12.5,39.8-7.1c5-19.1,20.7-23.5,40.1-22.9
			c6.9-13.1,26.7-19.6,34.9-11.1c0.2-2.6-3.5-5.4-7.1-6.2c22.5-4.6,30,21.2,24.1,34.9c33.6-0.5,63.1,2.8,76.1,21.7
			C291.4,132.9,198.4,132.9,105.4,132.9L105.4,132.9z"/>
	</g>
</g>
<g>
	<path fill-rule="evenodd" clip-rule="evenodd" fill="#83F567" d="M0,634c230.7-50.3,461.4-46.4,692.1,8.6
		c343.6-65.2,694.5-86.7,1057.9-33.4V980H0V634z"/>
	<g>
		<rect y="666.6" fill-rule="evenodd" clip-rule="evenodd" fill="#30AB57" width="1750" height="313.4"/>
		<rect y="913.7" fill-rule="evenodd" clip-rule="evenodd" fill="#249155" width="1750" height="66.3"/>
	</g>
</g>
<g>
	<g>
		<g>
			<rect x="179.2" y="579.7" fill-rule="evenodd" clip-rule="evenodd" fill="#FF9933" width="13" height="86.9"/>
			<rect x="179.2" y="579.7" fill-rule="evenodd" clip-rule="evenodd" fill="#D17213" width="13" height="48.8"/>
		</g>
		<g>
			<path fill-rule="evenodd" clip-rule="evenodd" fill="#CCFF66" d="M209.2,514.7c13.3,9.6,22.2,27.1,22.2,47.1
				c0,30.3-20.5,55-45.7,55c-25.2,0-45.7-24.6-45.7-55c0-20,8.9-37.5,22.2-47.1c-4.6-6.5-7.4-14.9-7.4-24.2
				c0-20.6,13.9-37.2,30.9-37.2c17.1,0,31,16.7,31,37.2C216.7,499.8,213.9,508.2,209.2,514.7L209.2,514.7z"/>
			<path fill-rule="evenodd" clip-rule="evenodd" fill="#86C740" d="M209.2,514.7c13.3,9.6,22.2,27.1,22.2,47.1
				c0,29.7-19.6,53.9-44,54.9c-44.6-6-41.8-81.1-6.4-99.3c-24.4-14.3-18.3-61.5,9.3-63.8c14.9,2.7,26.4,18.1,26.4,36.9
				C216.7,499.8,213.9,508.2,209.2,514.7L209.2,514.7z"/>
		</g>
	</g>
	<g>
		<g>
			<rect x="399.3" y="596.3" fill-rule="evenodd" clip-rule="evenodd" fill="#FF9933" width="10.5" height="70.3"/>
			<rect x="399.3" y="596.3" fill-rule="evenodd" clip-rule="evenodd" fill="#D17213" width="10.5" height="39.4"/>
		</g>
		<g>
			<path fill-rule="evenodd" clip-rule="evenodd" fill="#CCFF66" d="M423.6,543.8c10.7,7.8,17.9,21.9,17.9,38.1
				c0,24.5-16.6,44.5-37,44.5c-20.4,0-37-19.9-37-44.5c0-16.2,7.2-30.3,17.9-38.1c-3.7-5.3-6-12.1-6-19.6c0-16.6,11.2-30.1,25-30.1
				c13.8,0,25.1,13.5,25.1,30.1C429.6,531.6,427.3,538.5,423.6,543.8L423.6,543.8z"/>
			<path fill-rule="evenodd" clip-rule="evenodd" fill="#86C740" d="M423.6,543.8c10.7,7.8,17.9,21.9,17.9,38.1
				c0,24-15.8,43.6-35.6,44.4c-36.1-4.9-33.8-65.6-5.1-80.3c-19.8-11.6-14.8-49.7,7.5-51.6c12.1,2.2,21.4,14.7,21.4,29.8
				C429.6,531.6,427.3,538.5,423.6,543.8L423.6,543.8z"/>
		</g>
	</g>
	<g>
		<g>
			<rect x="1646.3" y="579.7" fill-rule="evenodd" clip-rule="evenodd" fill="#FF9933" width="13" height="86.9"/>
			<rect x="1646.3" y="579.7" fill-rule="evenodd" clip-rule="evenodd" fill="#D17213" width="13" height="48.8"/>
		</g>
		<g>
			<path fill-rule="evenodd" clip-rule="evenodd" fill="#CCFF66" d="M1676.3,514.7c13.3,9.6,22.2,27.1,22.2,47.1
				c0,30.3-20.5,55-45.7,55c-25.2,0-45.7-24.6-45.7-55c0-20,8.9-37.5,22.2-47.1c-4.6-6.5-7.4-14.9-7.4-24.2
				c0-20.6,13.9-37.2,30.9-37.2c17.1,0,31,16.7,31,37.2C1683.7,499.8,1680.9,508.2,1676.3,514.7L1676.3,514.7z"/>
			<path fill-rule="evenodd" clip-rule="evenodd" fill="#86C740" d="M1676.3,514.7c13.3,9.6,22.2,27.1,22.2,47.1
				c0,29.7-19.6,53.9-44.1,54.9c-44.6-6-41.8-81.1-6.3-99.3c-24.4-14.3-18.3-61.5,9.3-63.8c14.9,2.7,26.4,18.1,26.4,36.9
				C1683.7,499.8,1680.9,508.2,1676.3,514.7L1676.3,514.7z"/>
		</g>
	</g>
</g>
<g>
	<rect y="692" fill-rule="evenodd" clip-rule="evenodd" fill="#212B33" width="1750" height="188.5"/>
	<rect y="867.9" fill-rule="evenodd" clip-rule="evenodd" fill="#FFFFFF" width="1750" height="7.1"/>
	<rect y="697.8" fill-rule="evenodd" clip-rule="evenodd" fill="#FFFFFF" width="1750" height="4.9"/>
	<path fill-rule="evenodd" clip-rule="evenodd" fill="#FF9933" d="M0,767.3h65.8v7.1H0V767.3z M1684.2,767.3h65.8v7.1h-65.8V767.3z
		 M1531.1,767.3h65.8v7.1h-65.8V767.3z M1378,767.3h65.8v7.1H1378V767.3z M1224.9,767.3h65.8v7.1h-65.8V767.3z M1071.8,767.3h65.8
		v7.1h-65.8V767.3z M918.7,767.3h65.8v7.1h-65.8V767.3z M765.6,767.3h65.8v7.1h-65.8V767.3z M612.5,767.3h65.8v7.1h-65.8V767.3z
		 M459.3,767.3h65.8v7.1h-65.8V767.3z M306.2,767.3H372v7.1h-65.8V767.3z M153.1,767.3h65.8v7.1h-65.8V767.3z"/>
</g>
<g>
	<path fill-rule="evenodd" clip-rule="evenodd" fill="#1A1A1A" d="M1554.8,724.6H999.5c-2.9,0-5.2-2.4-5.2-5.3v-72
		c0-2.9,2.3-5.2,5.2-5.2h555.3c2.9,0,5.3,2.3,5.3,5.2v72C1560.1,722.3,1557.7,724.6,1554.8,724.6L1554.8,724.6z"/>
	<g>
		<path fill-rule="evenodd" clip-rule="evenodd" fill="#FF6699" d="M1479.4,512.6c23.2-0.1,42.6,64,54.8,85.7
			c9.7,2.2,24.8,10.5,26.1,21.7l11.7,99.4h-99.5c0-23-18.7-41.7-41.6-41.7c-23,0-41.7,18.7-41.7,41.7h-282.8
			c0-23-18.7-41.7-41.7-41.7c-23,0-41.7,18.7-41.7,41.7h-44.4l15.4-96.3c3.2-19.7,33.6-21.9,54.3-25.3c16.4-25.8,30-83.9,58-84
			L1479.4,512.6z"/>
		<path fill-rule="evenodd" clip-rule="evenodd" fill="#FF85AE" d="M1559.4,616.6c0.4,1.1,0.7,2.2,0.8,3.4l1.5,12.4H992.7l1.5-9.3
			c0.4-2.4,1.2-4.5,2.3-6.4H1559.4z M1562.3,637.6l0.8,6.4H990.8l1-6.4H1562.3z"/>
	</g>
	<g>
		<path fill-rule="evenodd" clip-rule="evenodd" fill="#FF99FF" d="M1572,719.4h-99.5c0-10.5-3.8-20.1-10.3-27.4h106.5
			C1577.9,692,1577.3,719.4,1572,719.4L1572,719.4z M1389.2,719.4h-282.8c0-10.5-3.8-20.1-10.3-27.4h303.3
			C1393.1,699.3,1389.2,708.9,1389.2,719.4L1389.2,719.4z M1023.1,719.4h-44.4c-7.3,0-9.1-27.4,0-27.4h54.6
			C1027,699.3,1023.1,708.9,1023.1,719.4L1023.1,719.4z"/>
		<path fill-rule="evenodd" clip-rule="evenodd" fill="#C25DC2" d="M1569.7,719.4h-97.2c0-7.9-2.2-15.3-6-21.6h100
			C1575.6,697.8,1575,719.4,1569.7,719.4L1569.7,719.4z M1389.2,719.4h-282.8c0-7.9-2.2-15.3-6-21.6h294.8
			C1391.4,704.1,1389.2,711.5,1389.2,719.4L1389.2,719.4z M1023.1,719.4H981c-7.2,0-9.1-21.6,0-21.6h48.1
			C1025.3,704.1,1023.1,711.5,1023.1,719.4L1023.1,719.4z"/>
	</g>
	<g>
		<path fill-rule="evenodd" clip-rule="evenodd" fill="#FF9933" d="M1563.6,621.7h-19.9v20.5h20.5c1.4,0,2.6-1.2,2.6-2.6v-14.7
			C1566.8,623.1,1565.4,621.7,1563.6,621.7L1563.6,621.7z"/>
		<path fill-rule="evenodd" clip-rule="evenodd" fill="#CC3366" d="M1563.6,644.2h-19.9v20.5h20.5c1.4,0,2.6-1.2,2.6-2.6v-14.7
			C1566.8,645.7,1565.4,644.2,1563.6,644.2L1563.6,644.2z"/>
	</g>
	<path fill-rule="evenodd" clip-rule="evenodd" fill="#FFFFCC" d="M993.1,621.7h19.9v20.5h-20.5c-1.4,0-2.6-1.2-2.6-2.6v-14.7
		C989.9,623.1,991.3,621.7,993.1,621.7L993.1,621.7z"/>
	<path fill-rule="evenodd" clip-rule="evenodd" fill="#B53660" d="M999.2,653.5h-9.9c-0.4,0-0.7,0.3-0.7,0.7v3.6h10.6V653.5z
		 M999.2,671.5H987c-0.5,0-0.8,0.3-0.8,0.7v3.6h13.1V671.5z M999.2,683.4h-14.6c-0.5,0-0.8,0.3-0.8,0.7v3.6h15.4V683.4z
		 M999.2,677.4h-13.4c-0.5,0-0.8,0.3-0.8,0.7v3.6h14.2V677.4z M999.2,665.5h-11.8c-0.3,0-0.7,0.3-0.7,0.7v3.6h12.5V665.5z
		 M999.2,659.4h-10.8c-0.4,0-0.7,0.3-0.7,0.7v3.6h11.5V659.4z"/>
	<g>
		<g>
			<path fill-rule="evenodd" clip-rule="evenodd" fill="#333333" d="M1430.9,682.6c-20.3,0-36.8,16.4-36.8,36.8
				c0,20.3,16.4,36.7,36.8,36.7c20.3,0,36.7-16.4,36.7-36.7C1467.6,699.1,1451.1,682.6,1430.9,682.6L1430.9,682.6z"/>
			<path fill-rule="evenodd" clip-rule="evenodd" fill="#FFFFFF" d="M1430.9,692c-15.1,0-27.4,12.3-27.4,27.4
				c0,15.1,12.3,27.4,27.4,27.4s27.4-12.3,27.4-27.4C1458.2,704.3,1446,692,1430.9,692L1430.9,692z"/>
			<path fill-rule="evenodd" clip-rule="evenodd" fill="#999999" d="M1430.9,695.8c-13.1,0-23.7,10.6-23.7,23.6
				c0,13.1,10.6,23.6,23.7,23.6c13,0,23.6-10.6,23.6-23.6C1454.5,706.3,1443.9,695.8,1430.9,695.8L1430.9,695.8z"/>
			<path fill-rule="evenodd" clip-rule="evenodd" fill="#666666" d="M1430.9,704.4c-8.3,0-15,6.7-15,14.9s6.7,14.9,15,14.9
				s14.9-6.7,14.9-14.9S1439.1,704.4,1430.9,704.4L1430.9,704.4z"/>
			<path fill-rule="evenodd" clip-rule="evenodd" fill="#FFFFFF" d="M1430.9,707.3c-6.7,0-12.1,5.4-12.1,12s5.4,12,12.1,12
				c6.6,0,12-5.4,12-12S1437.5,707.3,1430.9,707.3L1430.9,707.3z M1430.9,708.3c-6.2,0-11.1,5-11.1,11.1c0,6.2,5,11.1,11.1,11.1
				c6.1,0,11.1-5,11.1-11.1C1442,713.2,1437,708.3,1430.9,708.3L1430.9,708.3z"/>
			<path fill-rule="evenodd" clip-rule="evenodd" fill="#FFFFFF" d="M1430.9,716.4c-1.6,0-3,1.3-3,2.9c0,1.6,1.3,2.9,3,2.9
				c1.6,0,2.9-1.3,2.9-2.9C1433.8,717.7,1432.5,716.4,1430.9,716.4L1430.9,716.4z"/>
			<path fill-rule="evenodd" clip-rule="evenodd" fill="#FFFFFF" d="M1430.9,710.8c-0.8,0-1.5,0.6-1.5,1.5c0,0.8,0.6,1.5,1.5,1.5
				c0.8,0,1.5-0.7,1.5-1.5C1432.3,711.4,1431.7,710.8,1430.9,710.8L1430.9,710.8z"/>
			<path fill-rule="evenodd" clip-rule="evenodd" fill="#FFFFFF" d="M1439.4,719.4c0-0.8-0.7-1.5-1.5-1.5c-0.8,0-1.5,0.7-1.5,1.5
				c0,0.8,0.7,1.5,1.5,1.5C1438.8,720.9,1439.4,720.2,1439.4,719.4L1439.4,719.4z"/>
			<path fill-rule="evenodd" clip-rule="evenodd" fill="#FFFFFF" d="M1430.9,728c0.8,0,1.5-0.7,1.5-1.5s-0.7-1.5-1.5-1.5
				c-0.8,0-1.5,0.7-1.5,1.5S1430,728,1430.9,728L1430.9,728z"/>
			<path fill-rule="evenodd" clip-rule="evenodd" fill="#FFFFFF" d="M1422.3,719.4c0,0.8,0.7,1.5,1.5,1.5c0.8,0,1.5-0.7,1.5-1.5
				c0-0.8-0.6-1.5-1.5-1.5C1422.9,717.9,1422.3,718.6,1422.3,719.4L1422.3,719.4z"/>
		</g>
		<g>
			<path fill-rule="evenodd" clip-rule="evenodd" fill="#333333" d="M1064.8,682.6c-20.3,0-36.8,16.4-36.8,36.8
				c0,20.3,16.4,36.7,36.8,36.7c20.3,0,36.7-16.4,36.7-36.7C1101.5,699.1,1085,682.6,1064.8,682.6L1064.8,682.6z"/>
			<path fill-rule="evenodd" clip-rule="evenodd" fill="#FFFFFF" d="M1064.8,692c-15.1,0-27.4,12.3-27.4,27.4
				c0,15.1,12.3,27.4,27.4,27.4s27.4-12.3,27.4-27.4C1092.1,704.3,1079.9,692,1064.8,692L1064.8,692z"/>
			<path fill-rule="evenodd" clip-rule="evenodd" fill="#999999" d="M1064.8,695.8c-13.1,0-23.6,10.6-23.6,23.6
				c0,13.1,10.6,23.6,23.6,23.6c13.1,0,23.6-10.6,23.6-23.6C1088.4,706.3,1077.8,695.8,1064.8,695.8L1064.8,695.8z"/>
			<path fill-rule="evenodd" clip-rule="evenodd" fill="#666666" d="M1064.8,704.4c-8.3,0-15,6.7-15,14.9s6.7,14.9,15,14.9
				s14.9-6.7,14.9-14.9S1073,704.4,1064.8,704.4L1064.8,704.4z"/>
			<path fill-rule="evenodd" clip-rule="evenodd" fill="#FFFFFF" d="M1064.8,707.3c-6.7,0-12.1,5.4-12.1,12s5.4,12,12.1,12
				s12-5.4,12-12S1071.4,707.3,1064.8,707.3L1064.8,707.3z M1064.8,708.3c-6.2,0-11.1,5-11.1,11.1c0,6.2,5,11.1,11.1,11.1
				c6.1,0,11.1-5,11.1-11.1C1075.9,713.2,1070.9,708.3,1064.8,708.3L1064.8,708.3z"/>
			<path fill-rule="evenodd" clip-rule="evenodd" fill="#FFFFFF" d="M1064.8,716.4c-1.6,0-2.9,1.3-2.9,2.9c0,1.6,1.3,2.9,2.9,2.9
				c1.6,0,2.9-1.3,2.9-2.9C1067.7,717.7,1066.4,716.4,1064.8,716.4L1064.8,716.4z"/>
			<path fill-rule="evenodd" clip-rule="evenodd" fill="#FFFFFF" d="M1064.8,710.8c-0.8,0-1.5,0.6-1.5,1.5c0,0.8,0.6,1.5,1.5,1.5
				c0.8,0,1.5-0.7,1.5-1.5C1066.2,711.4,1065.6,710.8,1064.8,710.8L1064.8,710.8z"/>
			<path fill-rule="evenodd" clip-rule="evenodd" fill="#FFFFFF" d="M1073.3,719.4c0-0.8-0.7-1.5-1.5-1.5c-0.8,0-1.5,0.7-1.5,1.5
				c0,0.8,0.7,1.5,1.5,1.5C1072.7,720.9,1073.3,720.2,1073.3,719.4L1073.3,719.4z"/>
			<path fill-rule="evenodd" clip-rule="evenodd" fill="#FFFFFF" d="M1064.8,728c0.8,0,1.5-0.7,1.5-1.5s-0.7-1.5-1.5-1.5
				c-0.8,0-1.5,0.7-1.5,1.5S1063.9,728,1064.8,728L1064.8,728z"/>
			<path fill-rule="evenodd" clip-rule="evenodd" fill="#FFFFFF" d="M1056.2,719.4c0,0.8,0.7,1.5,1.5,1.5c0.8,0,1.5-0.7,1.5-1.5
				c0-0.8-0.6-1.5-1.5-1.5C1056.8,717.9,1056.2,718.6,1056.2,719.4L1056.2,719.4z"/>
		</g>
	</g>
	<path fill="#B53660" d="M1066.5,598.2v74.7c24.4,0,45.4,22.6,45.4,46.6h3.7c0-23.9-21-48.9-45.4-50.2v-71H1066.5z M1424.4,598.2v71
		c-24.4,1.3-45.4,26.2-45.4,50.2h3.7c0-23.9,21-46.6,45.4-46.6v-74.7H1424.4z M1313,598.2v121.2h3.7V598.2H1313z M1181.1,598.2
		v121.2h3.7V598.2H1181.1z"/>
	<g>
		<path fill-rule="evenodd" clip-rule="evenodd" fill="#1A1A1A" d="M1534.2,598.3l-485.7-0.5c12.6-19.8,23.5-58.7,40.6-75.6l405.4-1
			C1511,539.3,1524.8,581.5,1534.2,598.3L1534.2,598.3z"/>
		<path fill-rule="evenodd" clip-rule="evenodd" fill="#B3B3B3" d="M1520.4,589.4l-86.9-0.1l-7-59.3l63.3-0.1
			C1502.6,544,1513.2,576.5,1520.4,589.4L1520.4,589.4z M1420.4,589.3l-85.2-0.1l-10.5-58.9l88.7-0.2L1420.4,589.3z M1315,589.3
			l-119.7-0.1l3.5-58.6l109.2-0.2L1315,589.3z M1171.6,589.2l-109.4-0.1c9.7-15.3,18.1-45.2,31.3-58.3l81.6-0.2L1171.6,589.2z"/>
		<path fill-rule="evenodd" clip-rule="evenodd" fill="#4D4D4D" d="M1514.7,585.9l-78-0.1l-6.2-52.3l57.8-0.1
			c2.6,3.1,4.9,6.7,6.9,10.2c2.7,4.8,5.1,9.7,7.4,14.7c2.8,6,5.4,12.1,8,18.2C1511.9,579.7,1513.2,582.9,1514.7,585.9L1514.7,585.9z
			 M1416.4,585.8l-78.3-0.1l-9.3-51.9l81.4-0.2L1416.4,585.8z M1311.1,585.8l-112.1-0.1l3.1-51.6l102.9-0.2L1311.1,585.8z
			 M1168.3,585.7l-100-0.1c1.5-2.8,2.8-5.6,4.1-8.4c2.4-5.3,4.7-10.6,7.1-15.9c3.8-8.5,9-19.9,15.5-27l76.4-0.1L1168.3,585.7z"/>
		<path fill-rule="evenodd" clip-rule="evenodd" fill="#808080" d="M1472.8,533.5H1462l30.2,52.3h10.8L1472.8,533.5z M1125.5,533.5
			h-10.8l30.2,52.3h10.8L1125.5,533.5z M1110.1,533.5h-3.1l30.2,52.3h3.1L1110.1,533.5z M1274.3,533.5h-10.8l30.2,52.3h10.8
			L1274.3,533.5z M1258.8,533.5h-3.1l30.2,52.3h3.1L1258.8,533.5z M1363.8,533.5H1353l30.2,52.3h10.8L1363.8,533.5z M1348.4,533.5
			h-10.8l30.2,52.3h10.8L1348.4,533.5z M1457.3,533.5h-10.8l30.2,52.3h10.8L1457.3,533.5z"/>
	</g>
	<g>
		<path fill-rule="evenodd" clip-rule="evenodd" fill="#FFFFFF" d="M1169.5,626.1h-28.2c-1.5,0-2.8,1.2-2.8,2.8v2.8h33.8v-2.8
			C1172.3,627.3,1171,626.1,1169.5,626.1L1169.5,626.1z"/>
		<path fill-rule="evenodd" clip-rule="evenodd" fill="#B53660" d="M1170.8,634.7H1140c-0.8,0-1.5-0.7-1.5-1.5v-1.5h33.8v1.5
			C1172.3,634,1171.6,634.7,1170.8,634.7L1170.8,634.7z"/>
	</g>
	<g>
		<path fill-rule="evenodd" clip-rule="evenodd" fill="#FFFFFF" d="M1300.1,626.1h-28.2c-1.5,0-2.8,1.2-2.8,2.8v2.8h33.8v-2.8
			C1302.9,627.3,1301.6,626.1,1300.1,626.1L1300.1,626.1z"/>
		<path fill-rule="evenodd" clip-rule="evenodd" fill="#B53660" d="M1301.4,634.7h-30.8c-0.8,0-1.5-0.7-1.5-1.5v-1.5h33.8v1.5
			C1302.9,634,1302.2,634.7,1301.4,634.7L1301.4,634.7z"/>
	</g>
	<g>
		<path fill-rule="evenodd" clip-rule="evenodd" fill="#FFFFFF" d="M1413.7,626.1h-28.2c-1.5,0-2.8,1.2-2.8,2.8v2.8h33.8v-2.8
			C1416.5,627.3,1415.3,626.1,1413.7,626.1L1413.7,626.1z"/>
		<path fill-rule="evenodd" clip-rule="evenodd" fill="#B53660" d="M1415,634.7h-30.8c-0.8,0-1.5-0.7-1.5-1.5v-1.5h33.8v1.5
			C1416.5,634,1415.8,634.7,1415,634.7L1415,634.7z"/>
	</g>
	<g>
		<polygon fill-rule="evenodd" clip-rule="evenodd" fill="#FFFFFF" points="1445.9,512.7 1441.1,512.7 1441.1,507.7 1298.1,508.4 
			1298.1,513.4 1293.4,513.4 1293.4,508.4 1150.3,509.1 1150.3,514.1 1145.6,514.1 1145.6,509.1 1126.4,509.2 1126.8,502.6 
			1464.9,502.3 1464.9,507.6 1445.9,507.7 		"/>
		<rect x="1370.4" y="480" fill-rule="evenodd" clip-rule="evenodd" fill="#CC6633" width="82.9" height="22.2"/>
		<g>
			<path fill-rule="evenodd" clip-rule="evenodd" fill="#4D4D4D" d="M1359.9,502.3h-69.6c-3.6,0-6.6-3-6.6-6.6v-9
				c0-3.7,3-6.6,6.6-6.6h69.6c3.7,0,6.6,3,6.6,6.6v9C1366.5,499.3,1363.5,502.3,1359.9,502.3L1359.9,502.3z"/>
			<rect x="1283.6" y="489" fill-rule="evenodd" clip-rule="evenodd" fill="#B3B3B3" width="82.9" height="2.9"/>
		</g>
		<g>
			<rect x="1228.4" y="480" fill-rule="evenodd" clip-rule="evenodd" fill="#996633" width="52.3" height="22.2"/>
			<rect x="1228.4" y="489.8" fill-rule="evenodd" clip-rule="evenodd" fill="#FFFF99" width="52.3" height="2.8"/>
		</g>
	</g>
</g>
<g>
	<g>
		<g>
			<path fill-rule="evenodd" clip-rule="evenodd" fill="#CCFF66" d="M27.8,980c-26.4-73.6-17.6-85,33.4-21.9
				c-7.4-31.7-7.6-52.2,27.2-17.9c-12.9-117,10.4-94.3,46.9-21c36.2-58.8,45.5-31.8,43.8,29.6c36.2-41.4,47-27.3,44.4,16.1
				c50.8-73,51.3-50.2,29.6,15.1H27.8z"/>
			<path fill-rule="evenodd" clip-rule="evenodd" fill="#86C740" d="M31.7,980c-17.3-48.2-0.4-55.6,32.9-14.3
				c-4.8-20.7,5.2-30.2,28-7.7c-8.5-76.6,13.4-70.9,37.3-23c23.7-38.5,37.7-10.6,36.6,29.6c38.8-41.6,53.6-17.3,51.9,11.1
				c33.2-47.8,37.9-38.4,23.7,4.3H31.7z"/>
		</g>
		<g>
			<path fill-rule="evenodd" clip-rule="evenodd" fill="#9966FF" d="M136.7,943.9c3.6,0,6.5,2.9,6.5,6.5c0,3.6-2.9,6.5-6.5,6.5
				c-3.6,0-6.5-2.9-6.5-6.5C130.2,946.8,133.1,943.9,136.7,943.9L136.7,943.9z"/>
			<path fill-rule="evenodd" clip-rule="evenodd" fill="#9966FF" d="M194.9,961.9c1.8,0,3.2,1.5,3.2,3.3c0,1.8-1.4,3.2-3.2,3.2
				c-1.8,0-3.3-1.4-3.3-3.2C191.6,963.3,193.1,961.9,194.9,961.9L194.9,961.9z"/>
			<path fill-rule="evenodd" clip-rule="evenodd" fill="#9966FF" d="M45.9,966.3c1.8,0,3.3,1.4,3.3,3.3c0,1.8-1.4,3.2-3.3,3.2
				c-1.8,0-3.2-1.4-3.2-3.2C42.7,967.8,44.1,966.3,45.9,966.3L45.9,966.3z"/>
			<path fill-rule="evenodd" clip-rule="evenodd" fill="#9966FF" d="M84.6,961.9c2.8,0,5.1,2.3,5.1,5.1c0,2.8-2.3,5-5.1,5
				c-2.8,0-5-2.3-5-5C79.6,964.1,81.8,961.9,84.6,961.9L84.6,961.9z"/>
		</g>
	</g>
	<g>
		<g>
			<path fill-rule="evenodd" clip-rule="evenodd" fill="#CCFF66" d="M242.7,980c-17.5-48.7-11.7-56.2,22.1-14.5
				c-4.9-21-5-34.5,18-11.8c-8.5-77.4,6.9-62.4,31-13.9c24-38.9,30.1-21,29,19.6c23.9-27.4,31.1-18.1,29.4,10.6
				c33.6-48.3,34-33.2,19.6,10H242.7z"/>
			<path fill-rule="evenodd" clip-rule="evenodd" fill="#86C740" d="M245.3,980c-11.4-31.9-0.3-36.8,21.8-9.5
				c-3.2-13.7,3.5-19.9,18.5-5.1c-5.6-50.6,8.9-46.9,24.7-15.2c15.7-25.5,24.9-7,24.2,19.6c25.7-27.5,35.5-11.4,34.4,7.4
				c22-31.6,25.1-25.4,15.7,2.9H245.3z"/>
		</g>
		<g>
			<path fill-rule="evenodd" clip-rule="evenodd" fill="#9966FF" d="M314.7,956.1c2.3,0,4.3,1.9,4.3,4.3s-1.9,4.3-4.3,4.3
				c-2.4,0-4.3-1.9-4.3-4.3S312.3,956.1,314.7,956.1L314.7,956.1z"/>
			<path fill-rule="evenodd" clip-rule="evenodd" fill="#9966FF" d="M353.2,968c1.2,0,2.2,1,2.2,2.2s-1,2.1-2.2,2.1
				c-1.2,0-2.1-0.9-2.1-2.1S352,968,353.2,968L353.2,968z"/>
			<path fill-rule="evenodd" clip-rule="evenodd" fill="#9966FF" d="M254.7,971c1.2,0,2.1,0.9,2.1,2.1s-0.9,2.2-2.1,2.2
				c-1.2,0-2.1-1-2.1-2.2S253.5,971,254.7,971L254.7,971z"/>
			<path fill-rule="evenodd" clip-rule="evenodd" fill="#9966FF" d="M280.3,968c1.8,0,3.3,1.5,3.3,3.4c0,1.9-1.5,3.4-3.3,3.4
				c-1.9,0-3.4-1.5-3.4-3.4C276.9,969.5,278.4,968,280.3,968L280.3,968z"/>
		</g>
	</g>
	<g>
		<g>
			<path fill-rule="evenodd" clip-rule="evenodd" fill="#CCFF66" d="M1454.2,980c-26.4-73.6-17.6-85,33.4-21.9
				c-7.4-31.7-7.6-52.2,27.2-17.9c-13-117,10.4-94.3,46.9-21c36.3-58.8,45.5-31.8,43.9,29.6c36.2-41.4,47-27.3,44.5,16.1
				c50.7-73,51.3-50.2,29.6,15.1H1454.2z"/>
			<path fill-rule="evenodd" clip-rule="evenodd" fill="#86C740" d="M1458.2,980c-17.3-48.2-0.5-55.6,32.9-14.3
				c-4.8-20.7,5.2-30.2,28-7.7c-8.5-76.6,13.4-70.9,37.3-23c23.7-38.5,37.7-10.6,36.6,29.6c38.8-41.6,53.6-17.3,51.9,11.1
				c33.3-47.8,37.9-38.4,23.7,4.3H1458.2z"/>
		</g>
		<g>
			<path fill-rule="evenodd" clip-rule="evenodd" fill="#9966FF" d="M1563.1,943.9c3.6,0,6.5,2.9,6.5,6.5c0,3.6-2.9,6.5-6.5,6.5
				c-3.6,0-6.5-2.9-6.5-6.5C1556.6,946.8,1559.5,943.9,1563.1,943.9L1563.1,943.9z"/>
			<path fill-rule="evenodd" clip-rule="evenodd" fill="#9966FF" d="M1621.3,961.9c1.8,0,3.2,1.5,3.2,3.3c0,1.8-1.4,3.2-3.2,3.2
				c-1.8,0-3.3-1.4-3.3-3.2C1618.1,963.3,1619.5,961.9,1621.3,961.9L1621.3,961.9z"/>
			<path fill-rule="evenodd" clip-rule="evenodd" fill="#9966FF" d="M1472.3,966.3c1.8,0,3.3,1.4,3.3,3.3c0,1.8-1.5,3.2-3.3,3.2
				c-1.8,0-3.2-1.4-3.2-3.2C1469.1,967.8,1470.6,966.3,1472.3,966.3L1472.3,966.3z"/>
			<path fill-rule="evenodd" clip-rule="evenodd" fill="#9966FF" d="M1511.1,961.9c2.8,0,5,2.3,5,5.1c0,2.8-2.2,5-5,5
				c-2.8,0-5.1-2.3-5.1-5C1506,964.1,1508.3,961.9,1511.1,961.9L1511.1,961.9z"/>
		</g>
	</g>
	<g>
		<g>
			<path fill-rule="evenodd" clip-rule="evenodd" fill="#CCFF66" d="M1153.7,980c-21.6-60.2-14.4-69.5,27.3-17.9
				c-6-25.9-6.2-42.7,22.2-14.6c-10.6-95.7,8.5-77.1,38.4-17.2c29.6-48.1,37.2-26,35.8,24.3c29.6-33.9,38.4-22.3,36.3,13.1
				c41.5-59.7,42-41.1,24.3,12.4H1153.7z"/>
			<path fill-rule="evenodd" clip-rule="evenodd" fill="#86C740" d="M1156.9,980c-14.1-39.4-0.3-45.5,26.9-11.7
				c-3.9-16.9,4.3-24.7,22.9-6.3c-6.9-62.6,11-58,30.5-18.8c19.4-31.5,30.8-8.7,29.9,24.2c31.7-34.1,43.8-14.1,42.5,9.1
				c27.2-39.1,31-31.4,19.4,3.5H1156.9z"/>
		</g>
		<g>
			<path fill-rule="evenodd" clip-rule="evenodd" fill="#9966FF" d="M1242.7,950.5c2.9,0,5.3,2.4,5.3,5.3c0,2.9-2.4,5.3-5.3,5.3
				c-2.9,0-5.3-2.4-5.3-5.3C1237.4,952.8,1239.8,950.5,1242.7,950.5L1242.7,950.5z"/>
			<path fill-rule="evenodd" clip-rule="evenodd" fill="#9966FF" d="M1290.3,965.2c1.5,0,2.7,1.2,2.7,2.7c0,1.5-1.2,2.7-2.7,2.7
				c-1.4,0-2.6-1.2-2.6-2.7C1287.7,966.3,1288.9,965.2,1290.3,965.2L1290.3,965.2z"/>
			<path fill-rule="evenodd" clip-rule="evenodd" fill="#9966FF" d="M1168.5,968.8c1.5,0,2.7,1.2,2.7,2.7s-1.2,2.7-2.7,2.7
				c-1.5,0-2.6-1.2-2.6-2.7S1167,968.8,1168.5,968.8L1168.5,968.8z"/>
			<path fill-rule="evenodd" clip-rule="evenodd" fill="#9966FF" d="M1200.2,965.2c2.3,0,4.1,1.9,4.1,4.2c0,2.3-1.9,4.1-4.1,4.1
				c-2.3,0-4.2-1.9-4.2-4.1C1196,967,1197.9,965.2,1200.2,965.2L1200.2,965.2z"/>
		</g>
	</g>
	<g>
		<g>
			<path fill-rule="evenodd" clip-rule="evenodd" fill="#CCFF66" d="M499.6,980c-17.5-48.7-11.7-56.2,22.1-14.5
				c-4.9-21-5-34.5,18-11.8c-8.5-77.4,6.9-62.4,31-13.9c24-38.9,30.1-21,29,19.6c23.9-27.4,31.1-18.1,29.4,10.6
				c33.6-48.3,33.9-33.2,19.6,10H499.6z"/>
			<path fill-rule="evenodd" clip-rule="evenodd" fill="#86C740" d="M502.2,980c-11.4-31.9-0.3-36.8,21.8-9.5
				c-3.1-13.7,3.5-19.9,18.5-5.1c-5.6-50.6,8.9-46.9,24.7-15.2c15.7-25.5,24.9-7,24.2,19.6c25.7-27.5,35.5-11.4,34.4,7.4
				c22-31.6,25.1-25.4,15.7,2.9H502.2z"/>
		</g>
		<g>
			<path fill-rule="evenodd" clip-rule="evenodd" fill="#9966FF" d="M571.7,956.1c2.3,0,4.3,1.9,4.3,4.3s-1.9,4.3-4.3,4.3
				c-2.4,0-4.3-1.9-4.3-4.3S569.3,956.1,571.7,956.1L571.7,956.1z"/>
			<path fill-rule="evenodd" clip-rule="evenodd" fill="#9966FF" d="M610.1,968c1.2,0,2.2,1,2.2,2.2s-1,2.1-2.2,2.1
				c-1.2,0-2.1-0.9-2.1-2.1S609,968,610.1,968L610.1,968z"/>
			<path fill-rule="evenodd" clip-rule="evenodd" fill="#9966FF" d="M511.6,971c1.2,0,2.2,0.9,2.2,2.1s-1,2.2-2.2,2.2
				c-1.2,0-2.1-1-2.1-2.2S510.4,971,511.6,971L511.6,971z"/>
			<path fill-rule="evenodd" clip-rule="evenodd" fill="#9966FF" d="M537.2,968c1.8,0,3.3,1.5,3.3,3.4c0,1.9-1.5,3.4-3.3,3.4
				c-1.9,0-3.4-1.5-3.4-3.4C533.9,969.5,535.4,968,537.2,968L537.2,968z"/>
		</g>
	</g>
</g>
</svg>
